<svg width="95" height="22" viewBox="0 0 95 22" fill="none" xmlns="http://www.w3.org/2000/svg">
<path d="M80.1257 21.6996L86.0428 14.5839L80.3428 6.409H83.4371C84.9571 6.409 84.74 7.03365 87.3728 10.8088L88.2686 12.1124L91.8514 6.59911C91.96 6.43615 92.15 6.38184 92.3129 6.38184H94.1586L88.7843 12.8457L95 21.6996H92.0957C90.1686 21.7267 90.5214 20.9391 87.97 17.3269L86.5585 15.3172L82.46 21.4551C82.3514 21.6181 82.1885 21.6724 81.9714 21.6724H80.1257V21.6996Z" fill="white"/>
<path d="M73.909 21.9998C71.819 21.9998 69.6476 21.4023 68.2905 19.7184C67.0147 18.1432 66.5533 16.1878 66.499 14.2052C66.4719 11.7337 67.0962 9.75107 68.399 8.25732C69.7019 6.76357 71.4933 6.03027 73.7733 6.03027C74.859 6.03027 75.8362 6.19323 76.6776 6.51914C77.5191 6.84505 78.1705 7.27959 78.6862 7.84993C79.2019 8.42027 79.5819 9.07209 79.8262 9.80538C80.0705 10.5387 80.2062 11.3535 80.2334 12.2225C80.2334 12.6842 80.2062 13.1188 80.1248 13.499C80.1248 13.5533 80.0705 13.5805 80.0434 13.5805H70.489C70.5433 16.052 70.9233 17.8173 71.629 18.9308C72.3348 20.0444 73.5019 20.5875 75.1576 20.5875C76.8676 20.5875 78.1976 20.0987 79.5005 19.0938C79.7176 19.2839 79.9619 19.7999 79.5005 20.2073C78.3062 21.2937 75.9719 21.9998 73.909 21.9998ZM70.4619 12.8472L76.6505 12.3855C76.6776 10.3214 76.5962 6.92652 73.8548 6.92652C70.9776 6.92652 70.5433 10.6473 70.4619 12.8472Z" fill="white"/>
<path d="M64.115 19.9344V10.9719C64.115 7.90297 62.9479 6.05615 59.935 6.05615C57.8179 6.05615 55.8093 7.06104 54.3707 8.55479C54.3707 7.35979 54.1807 6.38206 53.0135 6.38206H50.5707L50.7064 8.12024V19.9073L50.5707 21.6726H54.5335L54.3978 19.9073V9.36956C55.5378 8.50047 56.5964 8.06592 58.1164 8.06592C60.0436 8.06592 60.4236 9.85842 60.4236 11.841V19.6085C60.4236 20.9122 60.7221 21.6726 61.8079 21.6726H64.2507L64.115 19.9344Z" fill="white"/>
<path d="M46.7444 1.95545C46.7444 3.04182 45.8487 3.91091 44.763 3.91091C43.6773 3.91091 42.7816 3.04182 42.7816 1.95545C42.7816 0.86909 43.6773 0 44.763 0C45.8487 0 46.7444 0.86909 46.7444 1.95545Z" fill="white"/>
<path d="M42.9146 6.38263L43.0503 8.12081V19.9078L42.9146 21.6732H46.8774L46.7417 19.9078V8.41956C46.7417 7.25172 46.5246 6.35547 45.3574 6.35547H42.9146V6.38263Z" fill="white"/>
<path d="M39.1655 19.9344V10.9719C39.1655 7.87581 37.9983 6.05615 34.9855 6.05615C32.4612 6.05615 30.7512 7.33263 29.394 8.77206C28.9054 7.06104 27.7112 6.05615 25.4311 6.05615C23.2869 6.05615 21.5497 7.06104 20.1383 8.58195V8.55479C20.1383 7.35979 19.9483 6.38206 18.7811 6.38206H16.3383L16.474 8.12024V19.9073L16.3383 21.6726H20.3011L20.1654 19.9073V9.36956C21.2783 8.44615 22.6083 8.06592 23.6669 8.06592C25.7569 8.06592 25.974 10.2115 25.974 11.841V19.9073L25.8383 21.6726H29.8012L29.6655 19.9073V9.36956C30.6155 8.55479 31.9455 8.06592 33.194 8.06592C35.3655 8.06592 35.5012 10.4288 35.5012 11.841V19.6085C35.5012 21.0751 35.9083 21.6726 36.8855 21.6726H39.3283L39.1655 19.9344Z" fill="white"/>
<path d="M6.32437 21.9988C4.50579 21.9988 1.81863 21.4828 0.190055 20.5594C0.488628 19.8804 1.05863 19.3644 1.87292 19.799C3.33864 20.5594 4.80436 20.9125 6.43294 20.9125C8.76723 20.9125 10.4772 19.6089 10.3687 17.246C10.1244 12.3031 -0.0270886 11.5698 5.43336e-05 5.62193C0.0271973 1.24932 3.96293 0 7.7358 0C9.55438 0 11.3458 0.353068 13.1101 1.0592C12.8115 1.76534 12.2958 2.36284 11.4001 1.92829C10.1515 1.33079 8.90295 1.0592 7.57294 1.0592C5.26579 1.0592 3.96293 2.30852 3.96293 4.15534C3.93578 8.88102 14.2501 9.58715 14.4401 15.7251C14.5487 20.2064 10.803 21.9988 6.32437 21.9988Z" fill="white"/>
</svg>
