<svg width="17" height="17" viewBox="0 0 17 17" fill="none" xmlns="http://www.w3.org/2000/svg">
<path d="M10.1393 10.1393C8.80357 11.5175 8.70643 13.2357 8.59107 17C12.1004 17 14.5229 16.9879 15.7736 15.7736C16.9879 14.5229 17 11.985 17 8.59107C13.2357 8.7125 11.5175 8.80357 10.1393 10.1393ZM0 8.59107C0 11.985 0.0121428 14.5229 1.22643 15.7736C2.47714 16.9879 4.89964 17 8.40893 17C8.2875 13.2357 8.19643 11.5175 6.86071 10.1393C5.4825 8.80357 3.76429 8.70643 0 8.59107ZM8.40893 0C4.90571 0 2.47714 0.0121428 1.22643 1.22643C0.0121428 2.47714 0 5.015 0 8.40893C3.76429 8.2875 5.4825 8.19643 6.86071 6.86071C8.19643 5.4825 8.29357 3.76429 8.40893 0ZM10.1393 6.86071C8.80357 5.4825 8.70643 3.76429 8.59107 0C12.1004 0 14.5229 0.0121428 15.7736 1.22643C16.9879 2.47714 17 5.015 17 8.40893C13.2357 8.2875 11.5175 8.19643 10.1393 6.86071Z" fill="white"/>
</svg>
