<svg xmlns="http://www.w3.org/2000/svg" width="824" height="1168" fill="none"><g fill="#1F3834" opacity=".5"><path d="M124.507 802.354s48.198 171.023 180.743 239.106c132.142 68.09 183.955 125.99 183.955 125.99s-43.78-194.609-195.202-280.389c-95.592-54.148-169.898-84.171-169.898-84.171"/><path fill-rule="evenodd" d="M824 .739C790.084.268 759.946 0 734.609 0 516.011 0 332.373 38.124 210.216 128.871 72.386 231.967-2.354 418.829.056 570.252c1.206 77.859 20.092 159.477 84.386 230.893-12.055-42.42-21.297-76.785-22.101-125.649-1.206-69.268 10.447-133.703 31.343-189.547 45.005-135.851 197.3-269.017 468.94-277.071 71.787-2.059 175.939 2.512 261.376 6.692V.739Z" clip-rule="evenodd"/></g></svg>