<svg xmlns="http://www.w3.org/2000/svg" width="135" height="133" fill="none"><path fill="#EB3702" d="M131.455 4.47c-17.089 28.143-64.52 5.443-112.383 41.028a.737.737 0 0 1-1.027-.138.713.713 0 0 1 .14-1.005c16.15-12.483 35.963-19.778 56.154-22.976 14.787-2.837 30.623-2.107 44.199-8.734 4.291-2.256 7.739-5.686 10.215-9.783 1.081-1.726 3.794-.17 2.702 1.62V4.47Z"/><path fill="#EB3702" d="M68.492 46.874c3.102-2.71 11.512-11.381 3.719-20.19-.465-.519-1.373-.339-1.59.296-.918 2.71-1.47 5.665-1.729 8.82-.043.55-.908.571-.983.02a27.702 27.702 0 0 1-.011-7.739c.108-.815-.984-1.291-1.578-.677-4.313 4.404-6.162 9.656.335 19.237.4.593 1.275.71 1.826.233h.011ZM53.072 50.103c2.767-2.54 10.182-10.735 2.605-19.64-.443-.529-1.286-.38-1.46.233-.734 2.626-1.123 5.506-1.231 8.576-.022.54-.822.53-.92 0a28.712 28.712 0 0 1-.334-7.58c.075-.794-.962-1.292-1.492-.72-3.816 4.16-5.296 9.232 1.113 18.856.39.593 1.211.741 1.697.286l.022-.01ZM38.622 55.61c2.605-2.394 9.587-10.175 2.313-19.28-.433-.54-1.222-.435-1.384.169-.68 2.562-1.016 5.378-1.102 8.406-.011.53-.768.487-.865-.042a29.55 29.55 0 0 1-.378-7.496c.064-.784-.93-1.324-1.416-.773-3.59 3.949-4.962 8.893 1.21 18.655.379.604 1.157.773 1.61.36h.012ZM25.958 61.188c2.464-2.213 9.08-9.36 2.475-17.501-.389-.477-1.124-.37-1.286.18-.67 2.33-1.038 4.891-1.167 7.634-.022.487-.725.455-.811-.032a25.95 25.95 0 0 1-.227-6.787c.065-.71-.843-1.186-1.308-.678-3.405 3.632-4.756 8.132.81 16.888.347.54 1.06.688 1.492.296h.022ZM52.015 2.258c4.67.465 18.365 2.964 19.046 16.252.043.783-.832 1.217-1.524.762-2.897-1.916-5.686-4.288-8.399-7.03-.475-.487-1.2.063-.821.624a39.576 39.576 0 0 0 6.129 7.179c.735.677.227 1.842-.735 1.673-6.994-1.24-12.658-4.892-15.003-18.052-.141-.805.475-1.493 1.297-1.408h.01ZM33.457 11.818c4.086-.571 16.344-1.26 20.376 10.112.237.666-.39 1.228-1.092.984-2.951-1.048-5.934-2.53-8.95-4.34-.53-.318-.994.306-.53.709a37.555 37.555 0 0 0 7.07 4.933c.8.434.67 1.546-.195 1.6-6.259.38-12.01-1.6-17.414-12.505-.335-.667.011-1.397.735-1.493ZM17.07 20.956c3.89-1.154 15.716-3.653 21.337 6.691.335.615-.195 1.24-.92 1.112-3.026-.572-6.16-1.546-9.36-2.848-.562-.233-.93.445-.41.762a37.022 37.022 0 0 0 7.609 3.695c.843.297.886 1.387.054 1.567-6.032 1.303-11.923.255-18.808-9.444-.421-.593-.194-1.344.486-1.546l.011.011ZM14.584 45.19c.735-.127 1.178.456.778 1.017-1.686 2.35-3.816 4.69-6.302 7.009-.432.413.108.868.616.519 2.378-1.588 4.562-3.367 6.529-5.379.605-.625 1.73-.392 1.6.328-.898 5.262-4.119 9.858-16.42 13.214-.756.2-1.426-.16-1.383-.773.26-3.473 2.086-13.785 14.582-15.945v.01ZM23.935 34.073c.476.403.314 1.08-.28 1.176-2.487.434-5.2.56-8.086.455-.508-.021-.53.635-.022.752 2.335.529 4.691.783 7.091.762.746 0 1.178.879.616 1.27-4.053 2.86-8.863 3.748-17.64-2.138-.54-.36-.649-1.038-.206-1.408 2.497-2.107 10.453-7.666 18.516-.869h.011ZM112.77 27.33c-7.609 4.668-9.133 14.684-6.615 22.636 1.589 4.976 3.167 10.47 4.173 15.563 2.853 14.071 3.221 28.735.021 42.785a.737.737 0 0 1-.875.551.722.722 0 0 1-.562-.858c1.491-6.914 2.151-13.997 2.021-21.059-.173-10.609-2.043-21.154-5.113-31.318-3.221-8.756-4.961-18.518 1.492-26.395.908-1.006 4.648-5.442 5.923-3.494.357.561.13 1.302-.465 1.599v-.01Z"/><path fill="#EB3702" d="M84.552 66.101c1.146-4.023 5.513-15.574 17.543-13.139a.901.901 0 0 1 .454 1.525c-2.162 2.128-4.734 4.055-7.62 5.823-.508.307-.13 1.07.432.868a32.237 32.237 0 0 0 7.394-3.79c.724-.498 1.686.222 1.383 1.037-2.205 5.908-6.356 10.08-18.527 9.148-.746-.053-1.264-.762-1.07-1.472h.01ZM88.638 81.061c1.146-3.642 5.513-14.102 17.543-11.9.714.127.962.921.454 1.376-2.162 1.927-4.734 3.674-7.62 5.273-.508.286-.13.974.432.783a33.624 33.624 0 0 0 7.394-3.43c.724-.455 1.686.201 1.383.932-2.205 5.347-6.356 9.137-18.527 8.29-.746-.053-1.264-.688-1.07-1.334l.01.01ZM90.09 96.297c1.08-3.441 5.253-13.32 17.327-11.477.713.106.983.847.475 1.281-2.129 1.842-4.669 3.526-7.523 5.082-.497.275-.108.91.443.73a34.138 34.138 0 0 0 7.329-3.356c.713-.434 1.686.16 1.394.847-2.108 5.05-6.183 8.672-18.375 8.11-.746-.031-1.276-.624-1.092-1.228l.022.01ZM90.66 110.03c.962-3.219 4.713-12.472 15.565-10.747.638.106.886.795.432 1.207-1.913 1.726-4.194 3.304-6.755 4.754-.454.254-.098.858.4.688a30.163 30.163 0 0 0 6.582-3.133c.638-.403 1.514.148 1.254.794-1.891 4.732-5.556 8.12-16.505 7.591-.67-.032-1.146-.582-.984-1.154h.01ZM134.815 58.489c-2.616-3.822-11.371-14.473-24.374-8.534-.768.35-.779 1.324-.022 1.694 3.167 1.578 6.734 2.827 10.615 3.833.681.18.497 1.07-.217 1.017a42.576 42.576 0 0 1-9.706-1.8c-.995-.307-1.859.709-1.254 1.46 4.442 5.453 10.55 8.577 24.202 4.151.843-.275 1.199-1.143.745-1.821h.011ZM134.32 79.283c-1.351-3.822-6.388-14.802-19.132-12.705-.757.127-.995.942-.433 1.429 2.378 2.043 5.178 3.907 8.302 5.632.551.308.173 1.017-.433.816a38.203 38.203 0 0 1-7.998-3.706c-.79-.476-1.784.18-1.438.953 2.54 5.611 7.102 9.624 20.04 8.957.789-.042 1.319-.699 1.081-1.366l.011-.01ZM133.203 97.97c-.703-3.94-3.816-15.427-16.311-15.226-.735.01-1.092.784-.627 1.334 1.956 2.35 4.345 4.585 7.069 6.713.476.38 0 1.016-.54.73a36.156 36.156 0 0 1-7.069-4.785c-.681-.583-1.741-.085-1.525.72 1.557 5.865 5.297 10.46 17.771 11.678.767.074 1.372-.487 1.254-1.186l-.022.021ZM111.215 112.031c-.216-.699-.984-.794-1.33-.18-1.459 2.626-2.702 5.611-3.772 8.904-.184.582-.875.328-.789-.286a40.727 40.727 0 0 1 2.097-8.3c.313-.837-.422-1.694-1.059-1.229-4.616 3.367-7.502 8.407-4.983 20.731.151.752.821 1.154 1.372.815 3.2-1.927 12.204-8.576 8.453-20.476l.011.021ZM117.486 98.468c-.605-.212-1.178.254-.994.815.745 2.372 1.88 4.786 3.329 7.231.259.434-.357.773-.703.392a28.328 28.328 0 0 1-4.032-5.781c-.335-.646-1.383-.593-1.502.085-.843 4.913.54 9.529 10.236 14.251.595.286 1.297.042 1.449-.519.854-3.197 2.453-12.832-7.783-16.485v.01Z"/><path fill="#EB3702" d="M131.707 4.3c-4.519 10.726-12.171 14.517-22.224 18.953-20.58 9.105-28.763 21.016-33.573 42.191-2.27 9.296-6.302 18.677-13.76 25.178a.745.745 0 0 1-1.038-.032.7.7 0 0 1 .043-1.016c3.438-3.25 6.302-7.041 8.345-11.255 4.216-8.576 5.07-18.232 8.399-27.21 4.734-14.029 16.83-24.564 30.298-30.493 8.647-3.854 17.035-8.396 20.267-17.575.811-2.223 4.226-.964 3.243 1.26Z"/><path fill="#EB3702" d="M81.038 99.791C74.64 81.2 73.614 60.024 82.66 42.078c.475-.963 2.01-.264 1.502.731-6.604 13.076-7.912 28.163-5.329 42.425.822 4.775 2.076 9.486 3.6 14.102.292.868-1.103 1.366-1.405.445l.01.01Z"/><path fill="#EB3702" d="M48.695 80.373C65.18 78.18 73.815 70.346 77.33 55.3L48.695 80.373ZM74.523 52.93c-3.73 6.247-11.966 6.596-18.452 7.03-6.453.424-13.068 1.292-18.472 4.945-.779.53-1.633-.635-.833-1.186 8.367-6.014 19.295-4.605 28.807-6.712 3.07-.763 5.761-2.457 7.307-5.061.637-1.07 2.324-.096 1.643.974v.01Z"/><path fill="#EB3702" d="M45.375 72.54s.778-11.404 13.479-13.638L45.375 72.54ZM122.943 31.098c-3.361-.455-6.474 1.853-6.939 5.146-.465 3.293 1.891 6.342 5.253 6.797 3.362.456 6.475-1.853 6.94-5.145.464-3.293-1.892-6.342-5.254-6.798Zm-.713 8.396c.011.763-.216 1.356-.638 1.45-.421.096-.897-.317-1.243-1.005-.778.01-1.383-.212-1.481-.625-.097-.402.325-.878 1.027-1.217-.011-.763.216-1.355.638-1.45.411-.096.897.317 1.243 1.005.778-.01 1.383.212 1.481.625.097.402-.325.879-1.027 1.217ZM121.24 122.184c-2.983.064-5.35 2.478-5.286 5.4.065 2.922 2.53 5.241 5.513 5.177 2.983-.063 5.351-2.477 5.286-5.399-.065-2.922-2.53-5.241-5.513-5.178Zm-.443 5.093c.119.657 0 1.207-.346 1.345-.346.137-.821-.159-1.221-.699-.671.116-1.233 0-1.373-.339-.141-.339.162-.805.713-1.196-.119-.657 0-1.207.346-1.345.346-.138.822.159 1.222.699.67-.117 1.232 0 1.372.339.141.338-.162.804-.713 1.196ZM99.154 6.038c-1.978-2.71-5.816-3.335-8.583-1.408-2.767 1.937-3.405 5.696-1.438 8.407 1.979 2.71 5.816 3.335 8.583 1.408 2.767-1.938 3.405-5.697 1.438-8.407Zm-5.113 5.146c-.238.349-.876.37-1.61.106-.563.529-1.157.772-1.514.55-.357-.222-.378-.857-.108-1.578-.54-.55-.79-1.132-.562-1.482.227-.35.875-.37 1.61-.106.562-.529 1.157-.773 1.514-.55.356.222.378.857.108 1.577.54.55.789 1.133.562 1.483ZM131.117 18.425c-2.302-.307-4.421 1.26-4.734 3.515-.314 2.255 1.286 4.33 3.589 4.637 2.302.307 4.421-1.26 4.734-3.515.313-2.255-1.286-4.33-3.589-4.637Zm.465 6.162c-.659 0-1.2-.53-1.2-1.175 0-.646.541-1.176 1.2-1.176.66 0 1.2.53 1.2 1.176 0 .645-.54 1.175-1.2 1.175ZM96.86 41.115c-1.967-1.207-4.55-.635-5.793 1.292-1.232 1.927-.648 4.457 1.319 5.675 1.967 1.217 4.55.635 5.793-1.292 1.233-1.927.649-4.457-1.318-5.675Zm-1.696 2.71a1.2 1.2 0 0 1-1.59.583c-.605-.276-.875-.964-.594-1.557a1.204 1.204 0 0 1 1.59-.582c.605.275.875.964.594 1.556ZM131.369 122.163c1.886 0 3.416-1.498 3.416-3.346 0-1.847-1.53-3.345-3.416-3.345-1.887 0-3.416 1.498-3.416 3.345 0 1.848 1.529 3.346 3.416 3.346ZM33.963 7.732c1.886 0 3.415-1.498 3.415-3.345 0-1.848-1.529-3.346-3.415-3.346-1.887 0-3.416 1.498-3.416 3.346 0 1.847 1.53 3.345 3.416 3.345ZM112.665 1.93c-2.194-.74-4.583.392-5.34 2.541-.756 2.15.4 4.49 2.595 5.23 2.194.742 4.583-.391 5.339-2.54.757-2.15-.4-4.49-2.594-5.23Zm-1.319 4.934c-.129.635-.756 1.048-1.416.921a1.168 1.168 0 0 1-.94-1.387c.13-.645.757-1.048 1.416-.92.649.126 1.07.74.94 1.386ZM82.564 4.45C82.327 2.195 80.262.543 77.96.787c-2.303.232-3.989 2.255-3.74 4.51.237 2.255 2.302 3.907 4.604 3.663 2.303-.233 3.989-2.255 3.74-4.51Zm-5.112.921c-.649.159-1.297-.233-1.449-.858a1.165 1.165 0 0 1 .876-1.418c.648-.16 1.297.233 1.448.857a1.165 1.165 0 0 1-.875 1.419ZM27.017 10.198c-.237-2.255-2.302-3.906-4.604-3.663-2.303.233-3.989 2.255-3.74 4.51.238 2.256 2.302 3.907 4.605 3.664 2.302-.233 3.988-2.255 3.74-4.51Zm-5.112.922c-.649.158-1.297-.233-1.449-.858a1.165 1.165 0 0 1 .876-1.419c.638-.148 1.297.233 1.448.858a1.178 1.178 0 0 1-.875 1.419ZM5.86 18.245c-2.314-.201-4.357 1.461-4.562 3.727-.205 2.266 1.492 4.267 3.805 4.468 2.313.201 4.356-1.461 4.561-3.727.206-2.266-1.491-4.267-3.804-4.468Zm.756 6.14a1.188 1.188 0 0 1-1.254-1.121c-.032-.657.476-1.197 1.146-1.229a1.182 1.182 0 0 1 1.254 1.123c.032.656-.476 1.196-1.146 1.228ZM11.687 4.661C9.71 1.951 5.872 1.326 3.105 3.253.348 5.191-.3 8.95 1.678 11.66c1.978 2.71 5.815 3.335 8.582 1.408 2.768-1.938 3.405-5.696 1.438-8.407h-.01ZM6.574 9.807c-.237.35-.875.37-1.61.106-.562.53-1.157.773-1.513.55-.357-.222-.379-.857-.109-1.577-.54-.55-.789-1.133-.562-1.482.227-.35.876-.371 1.611-.106.562-.53 1.157-.773 1.513-.55.357.221.379.857.108 1.577.54.55.79 1.133.562 1.482ZM33.49 101.156c.304-.127.412-.603.304-1.196.497-.35.767-.762.637-1.059-.13-.296-.616-.402-1.221-.296-.357-.487-.778-.752-1.081-.625-.303.127-.41.603-.303 1.196-.497.35-.767.763-.637 1.059.13.297.616.402 1.221.297.357.487.778.751 1.08.624ZM77.617 116.118c.346-.138.465-.688.346-1.345.562-.392.865-.858.714-1.196-.152-.339-.703-.456-1.373-.339-.4-.551-.876-.847-1.222-.699-.345.148-.464.688-.345 1.345-.563.391-.865.857-.714 1.196.151.339.703.455 1.373.339.4.55.876.847 1.221.699ZM54.565 111.544c.4.169.962-.159 1.438-.784.778.159 1.426.032 1.61-.349.184-.381-.162-.943-.8-1.408.162-.763.033-1.398-.356-1.578-.39-.18-.962.159-1.438.784-.778-.159-1.427-.032-1.61.349-.184.381.162.942.8 1.408-.163.762-.033 1.398.356 1.578ZM15.62 92.665c.4.17.962-.159 1.437-.784.779.16 1.427.032 1.611-.349.184-.381-.162-.942-.8-1.408.162-.762.033-1.398-.357-1.578-.389-.18-.962.16-1.437.784-.779-.159-1.427-.032-1.61.35-.185.38.161.941.8 1.407-.163.763-.033 1.398.356 1.578ZM22.913 117.673c.379-.349.26-1.112-.238-1.916.53-.784.692-1.536.325-1.906-.368-.371-1.135-.254-1.957.233-.8-.519-1.567-.678-1.945-.318-.379.36-.26 1.112.237 1.916-.53.784-.691 1.536-.324 1.906.368.371 1.135.254 1.957-.233.8.519 1.567.678 1.945.318ZM24.285 75.503c-.4.17-.962-.159-1.438-.783-.778.159-1.427.031-1.61-.35-.184-.38.162-.942.8-1.408-.163-.762-.033-1.397.356-1.577.39-.18.962.158 1.438.783.778-.159 1.427-.032 1.61.35.184.38-.162.942-.8 1.408.163.762.033 1.397-.356 1.577ZM41.418 84.82c-.152-.402-.79-.55-1.579-.445-.443-.646-.983-1.016-1.394-.857-.41.158-.562.772-.454 1.545-.66.434-1.038.964-.876 1.366.163.403.79.55 1.579.445.443.646.983 1.016 1.394.858.41-.16.562-.773.454-1.546.66-.434 1.038-.964.876-1.366ZM44.379 116.636c-.152-.402-.79-.55-1.579-.445-.443-.645-.983-1.016-1.394-.857-.41.159-.562.773-.454 1.546-.66.434-1.038.963-.875 1.365.162.403.788.551 1.578.445.443.646.983 1.017 1.394.858.41-.159.562-.773.454-1.546.66-.434 1.038-.964.876-1.366Z"/><path fill="#EB3702" d="M83.92 117.409a6.187 6.187 0 0 1-3.675 4.214c-3.21 1.312-6.886-.18-8.226-3.314-1.34-3.145.184-6.745 3.383-8.058a6.43 6.43 0 0 1 2.4-.476c-.865-2.615-3.373-4.51-6.335-4.51h-.183c0-.085.01-.17.01-.254 0-5.802-6.658-9.01-11.306-6.088-.01-3.886-4.042-6.438-7.599-5.157.065-4.478-3.837-8.035-8.377-7.654a6.05 6.05 0 0 1-1.827 4.076c-2.453 2.403-6.442 2.403-8.895 0a6.077 6.077 0 0 1 0-8.714c.41-.402.864-.73 1.35-1.005 3.578-5.188-.972-12.504-7.371-11.636.68.984 1.08 2.17 1.08 3.451 0 3.399-2.81 6.162-6.29 6.162s-6.291-2.752-6.291-6.162c0-1.45.519-2.784 1.373-3.843-.692-2.721-3.2-4.743-6.194-4.743-3.524 0-6.388 2.805-6.388 6.257 0 .752.14 1.472.389 2.139-2.26.942-3.837 3.134-3.837 5.696 0 1.704.702 3.25 1.837 4.372a5.142 5.142 0 0 0-.238 1.589c0 2.128 1.254 3.96 3.081 4.849-2.713.826-4.68 3.314-4.68 6.247 0 2.308 1.232 4.34 3.08 5.505-2.237 1.133-3.761 3.409-3.761 6.046 0 3.186 2.237 5.855 5.264 6.596a5.316 5.316 0 0 0 .984 5.675c-2.195 1.154-3.687 3.43-3.687 6.035 0 3.79 3.135 6.86 7.005 6.86a7.016 7.016 0 0 0 6.031-3.388 5.588 5.588 0 0 0 6.485-.508c.995 2.679 3.611 4.595 6.692 4.595a7.14 7.14 0 0 0 6.334-3.79 6.422 6.422 0 0 0 3.513 1.048 6.334 6.334 0 0 0 5.426-3.028c1.092 2.901 3.924 4.965 7.264 4.965a7.794 7.794 0 0 0 6.053-2.858 6.495 6.495 0 0 0 3.535 1.048 6.411 6.411 0 0 0 4.799-2.149 6.08 6.08 0 0 0 5.112 2.763 6.09 6.09 0 0 0 4.648-2.128 7.234 7.234 0 0 0 5.956 3.081c3.978 0 7.21-3.155 7.21-7.062 0-3.187-2.162-5.887-5.124-6.755l-.01.011ZM5.986 75.789c.227-.286.8-.254 1.416.031.53-.423 1.07-.592 1.362-.36.291.234.259.784-.033 1.388.433.518.605 1.048.368 1.334-.227.285-.8.254-1.416-.032-.53.423-1.07.593-1.362.36-.292-.223-.26-.784.032-1.387-.432-.519-.605-1.048-.367-1.334Zm2.853 32.546c.12.657 0 1.207-.346 1.345-.346.137-.821-.159-1.221-.699-.67.116-1.232 0-1.373-.339-.14-.339.162-.805.714-1.196-.12-.657 0-1.207.345-1.345.346-.138.822.159 1.222.699.67-.117 1.232 0 1.373.339.14.339-.163.804-.714 1.196Zm36.47-5.781a.94.94 0 0 1 .811 1.048c-.065.509-.551.858-1.07.794a.934.934 0 0 1-.81-1.048.955.955 0 0 1 1.07-.794ZM17.497 83.232c3.47 0 6.291 2.753 6.291 6.162 0 3.41-2.81 6.162-6.29 6.162-3.481 0-6.292-2.753-6.292-6.162 0-3.41 2.81-6.162 6.291-6.162Zm-.151 18.031a.954.954 0 0 1-1.07.794.936.936 0 0 1-.81-1.049c.064-.508.55-.857 1.07-.794.518.064.875.54.81 1.049Zm9.707 15.648c-1.546 3.78-5.935 5.622-9.804 4.108-3.86-1.514-5.74-5.813-4.194-9.603 1.546-3.79 5.934-5.622 9.804-4.108 3.859 1.514 5.74 5.813 4.194 9.603Zm5.177 9.592c-.097.72-.778 1.218-1.513 1.123a1.32 1.32 0 0 1-1.146-1.483c.098-.719.778-1.217 1.513-1.122a1.32 1.32 0 0 1 1.146 1.482Zm-3.718-23.388c-1.19-2.795.162-6.003 3.005-7.167 2.854-1.165 6.129.158 7.318 2.943 1.189 2.795-.163 6.003-3.005 7.168-2.854 1.164-6.13-.159-7.318-2.944Zm16.624 18.899c-2.453 2.404-6.442 2.404-8.896 0a6.077 6.077 0 0 1 0-8.713c2.454-2.404 6.443-2.404 8.896 0a6.077 6.077 0 0 1 0 8.713Zm3.243-27.136c-.28.244-.832.106-1.383-.286-.606.318-1.168.382-1.416.106-.249-.275-.108-.815.291-1.355-.324-.593-.389-1.143-.108-1.387.281-.243.833-.106 1.384.286.605-.318 1.167-.381 1.416-.106.248.275.108.815-.292 1.355.324.593.39 1.144.108 1.387Zm9.404 27.93c.119.657 0 1.207-.346 1.345-.346.138-.821-.159-1.221-.699-.67.117-1.232 0-1.373-.339-.14-.338.162-.804.713-1.196-.118-.656 0-1.207.346-1.345.346-.137.822.159 1.222.699.67-.116 1.232 0 1.372.339.141.339-.162.805-.713 1.196Zm-1.351-8.364c-3.47 0-6.291-2.753-6.291-6.162s2.81-6.162 6.291-6.162c3.48 0 6.29 2.753 6.29 6.162s-2.81 6.162-6.29 6.162Zm11.544-1.016c-.097.72-.778 1.217-1.513 1.122a1.32 1.32 0 0 1-1.146-1.482c.097-.72.778-1.218 1.513-1.123a1.32 1.32 0 0 1 1.146 1.483Zm17.057 13.668c-.076.562-.605.943-1.167.869a1.019 1.019 0 0 1-.887-1.144c.076-.561.606-.942 1.168-.868.573.074.962.593.886 1.143Z"/></svg>