<svg width="23" height="14" viewBox="0 0 23 14" fill="none" xmlns="http://www.w3.org/2000/svg">
<path d="M22.795 12.4871C22.7332 12.3767 22.3508 11.4902 20.5106 9.66827C18.5842 7.76041 18.843 8.0702 21.1633 4.77132C22.5765 2.76224 23.1415 1.53531 22.9646 1.01081C22.7964 0.510836 21.757 0.64273 21.757 0.64273L18.301 0.664201C18.301 0.664201 18.0451 0.627393 17.8539 0.748552C17.6685 0.868177 17.5492 1.14423 17.5492 1.14423C17.5492 1.14423 17.0014 2.69936 16.2711 4.02136C14.7315 6.81107 14.1147 6.95831 13.8632 6.785C13.278 6.38165 13.4247 5.1624 13.4247 4.29742C13.4247 1.59359 13.8085 0.46636 12.6757 0.174966C12.299 0.0783461 12.023 0.0139328 11.0613 0.00319722C9.82779 -0.0106056 8.78265 0.00779817 8.1918 0.316062C7.79789 0.521571 7.49456 0.980134 7.68001 1.00621C7.90859 1.03841 8.42613 1.15497 8.70071 1.55372C9.0558 2.06749 9.04286 3.22386 9.04286 3.22386C9.04286 3.22386 9.247 6.40619 8.56701 6.80187C8.09979 7.07333 7.46006 6.51968 6.08714 3.98762C5.38415 2.69169 4.85224 1.25772 4.85224 1.25772C4.85224 1.25772 4.75017 0.990869 4.56759 0.848239C4.3462 0.674937 4.03568 0.619725 4.03568 0.619725L0.749314 0.641196C0.749314 0.641196 0.256215 0.656533 0.0750764 0.885047C-0.0859354 1.08902 0.062138 1.50924 0.062138 1.50924C0.062138 1.50924 2.63545 7.93064 5.54804 11.1682C8.22055 14.1358 11.2539 13.941 11.2539 13.941H12.6282C12.6282 13.941 13.0437 13.8919 13.255 13.6481C13.4506 13.4242 13.4434 13.004 13.4434 13.004C13.4434 13.004 13.4161 11.0363 14.2729 10.7464C15.1167 10.4612 16.2007 12.6482 17.3493 13.4901C18.2177 14.1266 18.8775 13.987 18.8775 13.987L21.9497 13.941C21.9497 13.941 23.5569 13.8352 22.795 12.4871Z" fill="white"/>
</svg>
