<svg width="20" height="15" viewBox="0 0 20 15" fill="none" xmlns="http://www.w3.org/2000/svg">
<path fill-rule="evenodd" clip-rule="evenodd" d="M7.61814 3C8.56747 3.67719 9.54871 4.42042 10.491 5.13572C11.4427 5.85901 12.4084 6.55481 13.3324 7.25461C11.6758 8.36923 10.0121 9.44396 8.33286 10.5426C8.09708 10.696 7.87298 10.8825 7.61814 11V3ZM0.00561093 4.15279V10.9098C0.00561093 11.7047 -0.032367 12.4559 0.147615 13.0122C0.326772 13.5645 0.65041 14.0091 1.03225 14.3315C1.42813 14.6643 1.88758 14.9073 2.56375 14.9654C3.20029 15.019 3.94582 14.9824 4.67937 14.9824H15.3363C16.0529 14.9824 16.7786 15.0317 17.468 14.9654C18.6874 14.848 19.5271 14.0374 19.852 12.9799C20.0282 12.4066 19.994 11.6554 19.994 10.8771V4.1192C19.994 3.31821 20.0447 2.62802 19.852 2.01637C19.6802 1.47147 19.3801 1.02341 18.9842 0.681813C18.5962 0.347193 18.1471 0.0902284 17.468 0.0308953C16.798 -0.0266926 16.0492 0.0138807 15.3524 0.0138807H4.69506C3.99081 0.0138807 3.17842 -0.0253838 2.53238 0.0308953C1.33277 0.135601 0.43699 0.982841 0.132342 2.03338C-0.040623 2.62802 0.00561093 3.39019 0.00561093 4.15279Z" fill="white"/>
</svg>
