<svg xmlns="http://www.w3.org/2000/svg" width="210" height="58" fill="none"><g fill="#fff" clip-path="url(#a)"><path d="m78.86 51.99.558-.019c2.09-.053 3.49.882 3.702 2.627.035.303.053.597.035.864-.07 1.238-.761 1.968-2.054 2.2-.452.116-1.01.151-1.647.133l-1.444-.035h-1.195c.088-.713.115-1.826.115-3.34v-3.873c0-1.594-.035-2.69-.097-3.304h5.03v.828c-.435-.116-1.63-.187-3.587-.205-.053.766-.07 1.656-.07 2.672v6.598c.167 0 .424 0 .743.018.337.018.593.018.744.018.558 0 .974-.098 1.293-.303.62-.32.938-.917.938-1.763 0-.926-.354-1.612-.77-1.95-.69-.526-1.55-.597-2.054-.561l-.24-.624v.018ZM89.76 56.068c-.832 1.923-1.832 2.253-3.329 1.576a.301.301 0 0 1-.168-.347l.089-.383c.451.25.912.392 1.346.392.239 0 .469-.17.726-.508.247-.338.371-.695.354-1.05l-2.294-5.71c-.557-1.406-.991-2.332-1.275-2.795h1.771s.053.222.168.623l.523 1.559c.221.623.434 1.202.637 1.71l1.364 3.472 2.108-5.049c.407-.962.69-1.745.858-2.315h1.099a50.933 50.933 0 0 0-1.329 2.76l-2.639 6.065h-.008ZM96.844 56.014c.204-.454.372-1.015.523-1.71.319-1.371.522-3.66.522-6.447-.487 0-.938.053-.938.053v-.658h7.358c-.071.676-.097 2.012-.097 4.033v3.153c0 1.505.035 2.627.115 3.34h-1.399v-7.214c0-.24-.018-1.113-.071-2.654-.593-.035-2.001-.053-4.206-.053 0 5.673-.912 10.206-2.966 10.16-.425-.017-.727-.115-.93-.32l.186-.623.088.053a1.3 1.3 0 0 0 .576.152c.451-.018.841-.339 1.248-1.238M110.587 51.99l.558-.019c2.302-.053 3.754 1.114 3.754 3.233 0 1.3-.805 2.253-2.072 2.458-.451.116-.991.151-1.647.133l-1.452-.035h-1.195c.088-.713.115-1.826.115-3.34v-3.873a63.2 63.2 0 0 0-.089-3.304h1.479c-.088.712-.115 1.807-.115 3.303v6.6c.168 0 .416 0 .744.017.336.018.593.018.744.018.557 0 .974-.098 1.292-.303.656-.338.974-.935.974-1.763 0-.926-.354-1.612-.77-1.95-.629-.454-1.346-.561-1.859-.57a.324.324 0 0 1-.31-.223l-.151-.4v.017ZM118.601 50.226c0-1.033-.036-2.03-.115-3.001l1.7-.036c.602-.018 1.009-.036 1.213-.036 1.771 0 2.913.766 2.913 2.049 0 1.13-.691 1.825-2.09 2.083 2.019.134 3.33 1.256 3.33 3.064 0 .935-.372 1.745-1.098 2.44-.726.694-1.683 1.033-2.86 1.033-.089 0-.434-.018-1.063-.036a69.162 69.162 0 0 0-2.037-.035 68.61 68.61 0 0 0 .098-3.304v-4.23l.009.009Zm1.833.828h.248c.451 0 .912-.09 1.452-.303.558-.223.938-.748.938-1.443 0-.953-.593-1.451-1.788-1.522-.744 0-1.213 0-1.417.017 0 4.925.018 8.042.035 9.342l1.55.036c.726.018 1.364-.259 1.921-.81.558-.562.842-1.22.842-2.013 0-.962-.452-1.71-.992-2.066a2.976 2.976 0 0 0-.974-.437 4.981 4.981 0 0 0-1.417-.231.36.36 0 0 1-.345-.285l-.062-.276.009-.01ZM135.726 54.447a46.479 46.479 0 0 0 1.328 3.322h-1.682a51.359 51.359 0 0 0-1.01-3.322l-.487-1.425c-.15-.018-.557-.018-1.248-.018h-.912c-.469 0-.841.018-1.107.036l-.62 1.638a210.75 210.75 0 0 0-1.08 3.082h-.992a56.966 56.966 0 0 0 1.346-3.197l2.843-7.285 1.009-.098 2.612 7.267Zm-3.099-2.048c.558 0 .912 0 1.027-.018l-1.346-3.892-1.461 3.91h1.789-.009ZM142.536 52.212l-.151-.597.452.018c.283.018.743-.054 1.346-.267.619-.223 1.106-.882 1.106-1.781 0-1.15-.956-1.746-2.054-1.764-.15 0-.407 0-.744.018h-.761v6.617c0 1.104.035 2.2.115 3.304h-1.497c.071-1.425.098-2.52.098-3.304v-3.874c0-1.113-.036-2.235-.115-3.34h1.08c.115 0 .54-.017 1.249-.035.726-.036 1.16-.036 1.31 0 1.461.116 2.559.944 2.559 2.315 0 .766-.336 1.425-1.027 1.95-.673.526-1.567.758-2.656.749l-.319-.018.009.009ZM149.406 53.604l-.002.419 29.229.128.002-.419-29.229-.128ZM41.535 53.12l-.001.419 29.229.128.002-.419-29.23-.128ZM199.109 8.015s3.223 1.149 6.243-.544c3.01-1.692 4.657-1.968 4.657-1.968s-3.365-1.22-7.066.312c-2.444 1.015-3.825 2.2-3.825 2.2M2.745 13.287s1.063 2.84 3.985 3.971c2.913 1.131 4.055 2.093 4.055 2.093s-.965-3.232-4.303-4.657c-2.108-.9-3.746-1.399-3.746-1.399M121.771 39.228V25.674h-10.767v13.554h-3.126V9.849h3.126v12.922h10.767V9.849h3.135v29.379h-3.135ZM145.024 36.387l.496 1.71c-1.284 1.095-3.267 1.638-5.968 1.638-3.144 0-5.632-1.229-7.447-3.695-1.824-2.458-2.736-6.296-2.736-11.497 0-5.2.974-9.074 2.922-11.523 1.948-2.45 4.383-3.67 7.305-3.67 2.196 0 4.064.339 5.596 1.007l-.46 1.763a.966.966 0 0 1-1.275.66c-1.01-.357-2.196-.535-3.56-.535-2.116 0-3.843.988-5.198 2.956-1.346 1.968-2.027 5.085-2.027 9.342 0 3.972.681 7.017 2.045 9.128 1.364 2.11 3.223 3.17 5.596 3.17 1.355 0 2.595-.294 3.719-.89a.704.704 0 0 1 1.01.436M161.733 38.364l-7.739-12.735h-1.506v13.599h-3.126V9.849h3.126v13.688l1.461-.588 7.093-12.227c.31-.534.877-.864 1.496-.864h2.595L157.5 22.53l-1.461 1.345 1.709 1.683 8.474 13.687h-2.958c-.628 0-1.204-.33-1.531-.863M49.268 9.85c-.408 0-.78.222-.974.578L37.765 29.2l-1.46 3.945h-.169l.292-3.776V9.85h-3.666v.615c0 .632.204 1.22.54 1.7v27.072h2.09L46.204 20.1l1.461-3.945h.124l-.248 3.865v18.514c0 .392.31.703.7.703h2.426V9.85h-1.4ZM101.139 9.85a1.11 1.11 0 0 0-.974.578L89.637 29.2l-1.461 3.945h-.169l.292-3.776V9.85h-3.665v.615c0 .632.203 1.22.54 1.7v27.072h2.09L98.075 20.1l1.461-3.945h.124l-.248 3.865v18.514c0 .392.31.703.7.703h2.426V9.85H101.139ZM185.906 9.85c-.408 0-.78.222-.974.578L174.403 29.2l-1.461 3.945h-.168l.292-3.776V9.85H169.4v.615c0 .632.204 1.22.541 1.7v27.072h2.089L182.842 20.1l1.461-3.945h.124l-.248 3.865v18.514c0 .392.31.703.7.703h2.426V9.85H185.906ZM208.61 9.85a1.11 1.11 0 0 0-.974.578L197.108 29.2l-1.461 3.945h-.168l.292-3.776V9.85h-3.666v.615c0 .632.204 1.22.54 1.7v27.072h2.09L205.546 20.1l1.462-3.945h.123l-.247 3.865v18.514c0 .392.309.703.699.703h2.426V9.85H208.61Z"/><path d="M41.237.276C35.995.392 21.429 0 16.187 0 11.37 0 7.323.632 4.63 2.137c-3.037 1.71-4.684 4.81-4.63 7.32.026 1.292.442 2.645 1.859 3.83-.266-.704-.47-1.274-.487-2.084a6.69 6.69 0 0 1 .69-3.144c.992-2.253 4.348-4.461 10.334-4.595 2.063-.044 5.34.098 7.332.17v35.594h3.134V3.696l3.055.044c1.904.036 6.765-.035 8.59-.222 1.567-.16 4.79-.615 6.596-1.95.354-.259.602-.758.602-.909 0-.25.089-.4-.469-.392v.01ZM79.826 9.85h-3.125v26.483h-7.217V9.85h-3.135v26.484h-7.216V9.85h-3.126v28.675c0 .392.31.704.7.704h23.128V9.849h-.009ZM78.86 51.99l.558-.019c2.09-.053 3.489.882 3.701 2.627.036.303.054.597.036.864-.07 1.238-.762 1.968-2.054 2.2-.452.116-1.01.151-1.647.133l-1.444-.035h-1.195c.088-.713.115-1.826.115-3.34v-3.873c0-1.594-.035-2.69-.097-3.304h5.03v.828c-.435-.116-1.63-.187-3.587-.205-.053.766-.07 1.656-.07 2.672v6.598c.167 0 .424 0 .743.018.336.018.593.018.744.018.558 0 .974-.098 1.293-.303.62-.32.938-.917.938-1.763 0-.926-.354-1.612-.77-1.95-.69-.526-1.55-.597-2.055-.561l-.239-.624v.018ZM89.76 56.068c-.832 1.923-1.832 2.253-3.329 1.576a.301.301 0 0 1-.168-.347l.088-.383c.452.25.912.392 1.346.392.24 0 .47-.17.727-.508.247-.338.371-.695.354-1.05l-2.294-5.71c-.557-1.406-.991-2.332-1.275-2.795h1.771s.053.222.168.623l.523 1.559c.221.623.434 1.202.637 1.71l1.364 3.472 2.108-5.049c.407-.962.69-1.745.858-2.315h1.098a51.008 51.008 0 0 0-1.328 2.76l-2.639 6.065h-.008ZM96.844 56.014c.204-.454.372-1.015.523-1.71.319-1.371.522-3.66.522-6.447-.487 0-.938.053-.938.053v-.658h7.358c-.071.676-.097 2.012-.097 4.033v3.153c0 1.505.035 2.627.115 3.34h-1.399v-7.214c0-.24-.018-1.113-.071-2.654-.593-.035-2.001-.053-4.206-.053 0 5.673-.912 10.206-2.967 10.16-.425-.017-.726-.115-.93-.32l.187-.623.088.053a1.3 1.3 0 0 0 .576.152c.451-.018.84-.339 1.248-1.238M110.587 51.99l.558-.019c2.302-.053 3.754 1.114 3.754 3.233 0 1.3-.805 2.253-2.072 2.458-.451.116-.991.151-1.647.133l-1.452-.035h-1.195c.088-.713.115-1.826.115-3.34v-3.873a63.2 63.2 0 0 0-.089-3.304h1.479c-.089.712-.115 1.807-.115 3.303v6.6c.168 0 .416 0 .744.017.336.018.593.018.744.018.557 0 .974-.098 1.292-.303.656-.338.974-.935.974-1.763 0-.926-.354-1.612-.77-1.95-.629-.454-1.346-.561-1.86-.57a.324.324 0 0 1-.309-.223l-.151-.4v.017ZM118.601 50.226c0-1.033-.036-2.03-.116-3.001l1.701-.036c.602-.018 1.009-.036 1.213-.036 1.771 0 2.913.766 2.913 2.049 0 1.13-.691 1.825-2.09 2.083 2.019.134 3.33 1.256 3.33 3.064 0 .935-.372 1.745-1.098 2.44-.726.694-1.683 1.033-2.86 1.033-.089 0-.434-.018-1.063-.036a69.162 69.162 0 0 0-2.037-.035 68.61 68.61 0 0 0 .098-3.304v-4.23l.009.009Zm1.833.828h.247c.452 0 .912-.09 1.453-.303.557-.223.938-.748.938-1.443 0-.953-.593-1.451-1.788-1.522-.744 0-1.214 0-1.417.017 0 4.925.018 8.042.035 9.342l1.55.036c.726.018 1.363-.259 1.921-.81.558-.562.842-1.22.842-2.013 0-.962-.452-1.71-.992-2.066a2.976 2.976 0 0 0-.974-.437 4.981 4.981 0 0 0-1.417-.231.36.36 0 0 1-.345-.285l-.062-.276.009-.01ZM135.726 54.447a46.479 46.479 0 0 0 1.328 3.322h-1.682a51.359 51.359 0 0 0-1.01-3.322l-.487-1.425c-.15-.018-.557-.018-1.248-.018h-.912c-.47 0-.841.018-1.107.036l-.62 1.638a210.75 210.75 0 0 0-1.08 3.082h-.992a56.966 56.966 0 0 0 1.346-3.197l2.842-7.285 1.01-.098 2.612 7.267Zm-3.099-2.048c.558 0 .912 0 1.027-.018l-1.346-3.892-1.461 3.91h1.789-.009ZM142.536 52.212l-.151-.597.452.018c.283.018.743-.054 1.346-.267.619-.223 1.106-.882 1.106-1.781 0-1.15-.956-1.746-2.054-1.764-.15 0-.407 0-.744.018h-.761v6.617c0 1.104.035 2.2.115 3.304h-1.497c.071-1.425.098-2.52.098-3.304v-3.874c0-1.113-.036-2.235-.115-3.34h1.08c.115 0 .54-.017 1.248-.035.727-.036 1.16-.036 1.311 0 1.461.116 2.559.944 2.559 2.315 0 .766-.336 1.425-1.027 1.95-.673.526-1.567.758-2.657.749l-.318-.018.009.009ZM149.406 53.604l-.002.419 29.229.128.002-.418-29.229-.129ZM41.535 53.12l-.001.42 29.229.127.002-.419-29.23-.127ZM199.109 8.015s3.223 1.149 6.243-.544c3.01-1.692 4.657-1.968 4.657-1.968s-3.365-1.22-7.066.312c-2.444 1.015-3.825 2.2-3.825 2.2M121.771 39.228V25.674h-10.767v13.554h-3.126V9.849h3.126v12.922h10.767V9.849h3.135v29.379h-3.135ZM145.024 36.387l.496 1.71c-1.284 1.095-3.267 1.638-5.968 1.638-3.144 0-5.632-1.229-7.447-3.695-1.824-2.458-2.736-6.296-2.736-11.497 0-5.2.974-9.074 2.922-11.523 1.948-2.45 4.383-3.67 7.305-3.67 2.196 0 4.064.339 5.596 1.007l-.46 1.763a.966.966 0 0 1-1.275.66c-1.01-.357-2.196-.535-3.56-.535-2.116 0-3.843.988-5.198 2.956-1.346 1.968-2.027 5.085-2.027 9.342 0 3.972.681 7.017 2.045 9.128 1.364 2.11 3.223 3.17 5.596 3.17 1.355 0 2.595-.294 3.719-.89a.704.704 0 0 1 1.01.436M161.733 38.364l-7.739-12.735h-1.506v13.599h-3.126V9.849h3.126v13.688l1.461-.588 7.093-12.227c.31-.534.877-.864 1.496-.864h2.595L157.5 22.53l-1.461 1.345 1.709 1.683 8.474 13.687h-2.958c-.628 0-1.204-.33-1.531-.863"/><path d="M49.268 9.85c-.408 0-.78.222-.974.578L37.765 29.2l-1.46 3.945h-.169l.292-3.776V9.85h-3.666v.615c0 .632.204 1.22.54 1.7v27.072h2.09L46.204 20.1l1.461-3.945h.124l-.248 3.865v18.514c0 .392.31.703.7.703h2.426V9.85h-1.4ZM101.139 9.85a1.11 1.11 0 0 0-.974.578L89.637 29.2l-1.461 3.945h-.169l.292-3.776V9.85h-3.665v.615c0 .632.203 1.22.54 1.7v27.072h2.09L98.075 20.1l1.461-3.945h.124l-.248 3.865v18.514c0 .392.31.703.7.703h2.426V9.85H101.139ZM185.906 9.85c-.408 0-.78.222-.974.578L174.403 29.2l-1.461 3.945h-.168l.292-3.776V9.85H169.4v.615c0 .632.204 1.22.541 1.7v27.072h2.089L182.842 20.1l1.461-3.945h.124l-.248 3.865v18.514c0 .392.31.703.7.703h2.426V9.85H185.906ZM208.61 9.85a1.11 1.11 0 0 0-.974.578L197.108 29.2l-1.461 3.945h-.168l.292-3.776V9.85h-3.666v.615c0 .632.204 1.22.54 1.7v27.072h2.09L205.546 20.1l1.462-3.945h.123l-.247 3.865v18.514c0 .392.309.703.699.703h2.426V9.85H208.61ZM2.745 13.287s1.063 2.84 3.985 3.971c2.913 1.131 4.056 2.093 4.056 2.093s-.966-3.232-4.304-4.657c-2.107-.9-3.745-1.399-3.745-1.399"/><path d="M41.237.276C35.995.392 21.429 0 16.187 0 11.37 0 7.323.632 4.63 2.137c-3.037 1.71-4.684 4.81-4.63 7.32.026 1.292.442 2.645 1.859 3.83-.266-.704-.47-1.274-.487-2.084a6.69 6.69 0 0 1 .69-3.144c.992-2.253 4.348-4.461 10.334-4.595 2.063-.044 5.34.098 7.332.17v35.594h3.134V3.696l3.055.044c1.904.036 6.765-.035 8.59-.222 1.567-.16 4.79-.615 6.596-1.95.354-.259.602-.758.602-.909 0-.25.089-.4-.469-.392v.01ZM79.826 9.85h-3.125v26.483h-7.217V9.85h-3.135v26.484h-7.216V9.85h-3.126v28.675c0 .392.31.704.7.704h23.128V9.849h-.009Z"/></g><defs><clipPath id="a"><path fill="#fff" d="M0 0h210v58H0z"/></clipPath></defs></svg>