<svg width="103" height="16" viewBox="0 0 103 16" fill="none" xmlns="http://www.w3.org/2000/svg">
<path opacity="0.2" fill-rule="evenodd" clip-rule="evenodd" d="M90.8256 4.49587L90.2998 6.61157C89.9712 6.54545 89.577 6.47934 89.1826 6.47934C88.7226 6.47934 88.2625 6.54545 87.9339 6.67768V16L85.4365 15.4711V5.15702C86.488 4.76033 87.9339 4.42975 89.5112 4.42975C90.0369 4.42975 90.497 4.49587 90.8256 4.49587ZM81.4933 8.06612V14.281C80.9018 14.6116 79.3903 15.0083 77.8787 15.0083C74.8556 15.0083 73.344 13.8182 73.344 11.7686C73.344 8.99174 76.17 8.46281 79.1931 8.26446V7.73554C79.1931 6.67769 78.4701 6.28099 77.2871 6.28099C76.3671 6.28099 75.1841 6.61157 74.4612 6.87603L73.804 5.15702C74.6584 4.82645 76.0385 4.42975 77.4844 4.42975C80.0475 4.42975 81.4933 5.42149 81.4933 8.06612ZM52.8392 8.99174C52.9049 9.2562 52.9049 9.58678 52.8392 9.85124L46.3986 10.7107C46.5958 12.1653 47.713 12.9587 49.1589 12.9587C50.1447 12.9587 51.2619 12.6942 51.9191 12.2975L52.642 14.2149C51.7876 14.6777 50.4076 14.9422 48.9618 14.9422C45.6757 14.9422 43.9012 12.7603 43.9012 9.65289C43.9012 6.54545 45.61 4.36364 48.5674 4.36364C51.3277 4.36364 52.8392 6.21488 52.8392 8.99174ZM39.3666 4.6281H41.2724V6.54546H39.3666V11.5702C39.3666 12.3636 39.8923 12.6942 40.5495 12.6942C40.8124 12.6942 41.0752 12.6281 41.2724 12.562V14.6777C40.9438 14.7438 40.2866 14.876 39.6951 14.876C37.7892 14.876 36.8692 13.8182 36.8692 11.7025V6.54546H35.6204V4.6281H36.8692V2.38017L39.3666 1.65289V4.6281ZM20.3076 4.89256C20.8991 4.6281 21.6877 4.42975 22.4107 4.42975C24.7766 4.42975 26.091 5.61983 26.091 7.86777V14.7438H23.5936V8.13223C23.5936 7.00827 22.9364 6.47934 21.7534 6.47934C21.2277 6.47934 20.7019 6.61157 20.3076 6.87603V14.8099H17.8102V0H20.3076V4.89256ZM70.1237 7.80165V14.8099H67.6263V8C67.6263 7.00826 66.9691 6.41322 65.9833 6.41322C65.3261 6.41322 64.866 6.61157 64.4717 6.94215V14.7438H61.9087V7.86777C61.9087 6.94215 61.2514 6.41322 60.1341 6.41322C59.5427 6.41322 59.0827 6.47934 58.7541 6.67768V14.7438H56.2567V5.15702C57.3082 4.76033 58.6226 4.42975 60.0027 4.42975C61.6457 4.42975 62.6316 4.95868 63.2231 5.4876C63.8803 5.02479 65.0632 4.42975 66.5748 4.42975C68.8092 4.42975 70.1237 5.75206 70.1237 7.80165ZM3.94323 10.843C4.1404 11.5702 4.20612 12.4959 4.20612 12.4959H4.27178C4.27178 12.4959 4.40328 11.5702 4.60044 10.843L6.24339 4.6281H8.54367L10.1866 10.843C10.3838 11.5702 10.5153 12.4959 10.5153 12.4959C10.5153 12.4959 10.581 11.5702 10.7782 10.843L12.224 4.6281H14.7871L11.8297 14.7438H9.20088L7.68925 8.99174C7.49208 8.33058 7.42636 7.47107 7.42636 7.47107H7.3607C7.3607 7.47107 7.2292 8.33058 7.03204 8.99174L5.52053 14.7438H2.89171L0 4.6281H2.56304L3.94323 10.843ZM32.4002 14.7438H29.9028V4.6281H32.4002V14.7438ZM96.2804 9.05785H96.3461L99.6321 4.6281H102.59L98.9749 9.38843L102.787 14.7438H99.9608L96.3461 9.65289H96.2804V14.7438H93.7831V0H96.2804V9.05785ZM75.7756 11.6364C75.7756 12.562 76.4985 13.157 77.8129 13.157C78.3387 13.157 78.9959 13.0909 79.2588 12.9587V9.85124C77.4186 9.91735 75.7756 10.1157 75.7756 11.6364ZM46.2672 9.12397L50.4733 8.52893C50.4733 7.00827 49.6847 6.28099 48.5674 6.28099C47.253 6.28099 46.3329 7.27273 46.2672 9.12397Z" fill="white"/>
</svg>
