<svg width="20" height="17" viewBox="0 0 20 17" fill="none" xmlns="http://www.w3.org/2000/svg">
<mask id="mask0_1_195" style="mask-type:luminance" maskUnits="userSpaceOnUse" x="0" y="0" width="20" height="17">
<path fill-rule="evenodd" clip-rule="evenodd" d="M0 0H20V17H0V0Z" fill="white"/>
</mask>
<g mask="url(#mask0_1_195)">
<path fill-rule="evenodd" clip-rule="evenodd" d="M20 1.36587C19.895 1.84122 19.7855 2.31561 19.6856 2.79208C19.0393 5.87326 18.3951 8.95492 17.7499 12.0364C17.472 13.3635 17.1962 14.691 16.9119 16.0167C16.8749 16.1889 16.809 16.36 16.7278 16.5161C16.5105 16.9331 16.1526 17.0904 15.712 16.9496C15.5111 16.8855 15.3088 16.7916 15.1391 16.6661C13.7017 15.6037 12.2718 14.5308 10.8395 13.4611C10.7876 13.4224 10.7345 13.3854 10.6726 13.341C10.6251 13.3824 10.5802 13.4179 10.5392 13.4577C9.79975 14.1765 9.0602 14.8951 8.322 15.6153C8.10206 15.8298 7.85178 15.9589 7.52284 15.9395C7.55007 15.5247 7.57505 15.1231 7.60306 14.7218C7.66172 13.8816 7.7219 13.0414 7.78166 12.2011C7.79108 12.0689 7.82492 11.9334 7.8079 11.8049C7.74356 11.3205 8.01055 11.0396 8.33668 10.7431C10.9881 8.33201 13.6268 5.9063 16.2693 3.48489C16.3081 3.44941 16.3583 3.4195 16.3811 3.3752C16.423 3.29393 16.4484 3.20384 16.4807 3.11742C16.3915 3.09187 16.2929 3.02845 16.215 3.04863C16.0547 3.09012 15.894 3.15737 15.7535 3.24687C12.3092 5.4411 8.86744 7.63941 5.42604 9.83837C5.32937 9.90015 5.2464 9.9343 5.12229 9.89436C3.66229 9.42416 2.19901 8.96469 0.739107 8.49407C0.562482 8.43713 0.386691 8.35204 0.235573 8.24363C-0.0484944 8.03987 -0.082695 7.74156 0.171441 7.50067C0.357591 7.32422 0.582992 7.16763 0.818232 7.07228C2.04825 6.57367 3.28666 6.09667 4.52272 5.61357C9.2184 3.77857 13.9141 1.94353 18.6111 0.112197C18.7606 0.0539274 18.9235 0.0155767 19.0828 0.00309406C19.5053 -0.029945 19.8187 0.203294 19.9479 0.622231C19.9631 0.671577 19.9825 0.719648 20 0.768304V1.36587Z" fill="white"/>
</g>
</svg>
