<svg width="20" height="20" viewBox="0 0 20 20" fill="none" xmlns="http://www.w3.org/2000/svg">
<path d="M9.96923 0C4.46154 0 0 4.47205 0 10C0 12.1739 0.707693 14.2236 1.90769 15.8696L0.646155 19.5963L4.49231 18.354C6.06154 19.4099 7.96923 20 10 20C15.5077 20 20 15.528 20 10C19.9692 4.47205 15.4769 0 9.96923 0ZM15.8154 14.1304C15.5692 14.8137 14.3692 15.4658 13.8462 15.528C13.3231 15.5901 13.3231 15.9627 10.3385 14.8137C7.38462 13.6335 5.50769 10.6211 5.35385 10.4037C5.2 10.2174 4.15385 8.81988 4.15385 7.39131C4.15385 5.96273 4.89231 5.24845 5.16923 4.96895C5.44615 4.68944 5.75385 4.59627 5.93846 4.59627C6.12308 4.59627 6.33846 4.62733 6.49231 4.62733C6.67692 4.62733 6.89231 4.53416 7.13846 5.12422C7.38462 5.71429 7.96923 7.14286 8.03077 7.29814C8.09231 7.45342 8.15385 7.6087 8.06154 7.79503C7.96923 7.98137 7.90769 8.10559 7.78462 8.29193C7.63077 8.44721 7.47692 8.6646 7.35385 8.78882C7.2 8.9441 7.04615 9.09938 7.23077 9.37888C7.41538 9.65839 8 10.6211 8.86154 11.3975C9.96923 12.3913 10.9231 12.7019 11.2 12.8571C11.4769 13.0124 11.6615 12.9814 11.8154 12.795C12 12.6087 12.5538 11.9565 12.7385 11.646C12.9231 11.3665 13.1385 11.3975 13.3846 11.4907C13.6615 11.5839 15.0769 12.2981 15.3846 12.4534C15.6615 12.6087 15.8769 12.6708 15.9385 12.795C16.0308 12.8571 16.0308 13.4472 15.8154 14.1304Z" fill="white"/>
</svg>
