<svg xmlns="http://www.w3.org/2000/svg" width="135" height="133" fill="none"><path fill="#F37600" d="M88.289 37.748c.614-.656.064-1.535-.808-1.28a227.696 227.696 0 0 1-16.82 4.16c-.733.15-1.304-.507-1.013-1.164a167.505 167.505 0 0 1 7.829-15.26c.323-.572-.054-1.175-.722-1.144-1.83.096-3.672.17-5.513.212-.463.01-.83-.317-.83-.752-.021-4.5.216-8.959.7-13.364.087-.762-.893-1.08-1.507-.487a271.848 271.848 0 0 0-5.578 5.517c-.324.329-.84.413-1.196.18-.398-.254-.797-.519-1.195-.783-.485-.318-1.195-.075-1.422.497a129 129 0 0 0-1.96 5.401c-.215.646-1.044.89-1.518.445-.215-.201-.441-.402-.657-.604-.474-.444-1.303-.222-1.529.434a153.067 153.067 0 0 0-2.681 8.854c-.27 1.006-1.734.91-1.831-.128-.377-4.14-.55-8.27-.528-12.39a.89.89 0 0 0-.495-.804c-.776-.371-1.54-.752-2.316-1.134a.906.906 0 0 1-.484-.847c.108-2.086.27-4.15.474-6.227.086-.9-1.002-1.334-1.594-.614a190.001 190.001 0 0 0-5.417 6.905c-.517.688-1.55.392-1.626-.477a130.244 130.244 0 0 1-.495-7.391c-.032-.72-.765-1.134-1.357-.752-.69.434-1.368.879-2.046 1.323a.849.849 0 0 1-1.13-.158 118.424 118.424 0 0 1-3.813-4.713c-.495-.635-1.443-.339-1.594.519-.377 2.15-.7 4.31-.98 6.47-.064.477-.409.848-.84.89l-2.358.222c-.69.064-1.066.932-.7 1.6 1.249 2.266 2.563 4.479 3.93 6.65.485.762-.086 1.768-.904 1.599-2.8-.583-5.6-1.24-8.4-1.96-.894-.232-1.464.996-.818 1.78a141.438 141.438 0 0 0 4.49 5.2c.27.296.367.72.27 1.1-.248.943-.496 1.896-.733 2.85-.097.38.011.794.28 1.09a140 140 0 0 0 9.822 9.68c.85.751.183 2.128-.84 1.715a154.814 154.814 0 0 1-9.154-4.035c-.678-.328-1.357.222-1.25 1.027.055.36.098.72.152 1.09.118.795-.55 1.356-1.239 1.039a163.508 163.508 0 0 1-5.793-2.891c-.614-.318-1.25.095-1.26.847 0 .614-.011 1.228-.022 1.843 0 .55-.355.963-.84.963-2.692 0-5.395-.053-8.098-.148-.883-.032-1.163 1.27-.42 2.001A158.768 158.768 0 0 0 15.394 54.09c.453.349.647.974.464 1.45a213.022 213.022 0 0 0-2.176 5.687c-.258.699.323 1.599 1.066 1.673 6.45.7 12.89 1.09 19.287 1.197.797.01 1.411.91 1.088 1.588a219.94 219.94 0 0 0-6.849 16.287c-.334.88.84 1.949 1.68 1.536 3.63-1.78 7.226-3.59 10.801-5.433.442-.222 1.055-.053 1.422.403.247.296.495.603.743.9.495.604 1.4.656 1.733.095 1.497-2.499 3.026-4.966 4.599-7.423.366-.562 1.281-.498 1.733.127.69.942 1.379 1.874 2.09 2.796.56.72 1.669.614 1.83-.17 1.002-4.787 2.208-9.499 3.597-14.127v-.01c3.263 3.389 6.785 6.544 10.866 9.361 1.346.794 2.498-.656 1.572-1.228a76.566 76.566 0 0 1-11.447-8.748 202.403 202.403 0 0 0 14.936-1.948c.819-.138 1.066-1.09.42-1.567-.829-.614-1.637-1.24-2.455-1.875-.538-.423-.42-1.207.215-1.482a374.887 374.887 0 0 0 8.152-3.685c.603-.286.743-1.007.28-1.409-.226-.201-.463-.402-.689-.604-.344-.296-.355-.804-.032-1.164 2.617-2.88 5.266-5.74 7.947-8.557l.022-.01ZM25.485 25.92c-.55-.498.075-1.515.69-.985a137.856 137.856 0 0 0 14.31 10.695c-4.759-8.8-8.388-17.992-11.005-27.66-.204-.741.85-1.154 1.077-.392 2.8 9.468 6.59 18.606 11.329 27.258 0-5.877.366-11.701 1.087-17.43.097-.742 1.196-.636 1.131.105a138.592 138.592 0 0 0-.355 20.63c2.767 4.754 5.793 9.34 8.96 13.85.441.626-.474 1.23-.948.657-3.554-4.278-6.634-8.885-9.412-13.671A139.088 139.088 0 0 1 25.463 25.92h.022Zm27.04 35.084c-2.336 2.584-4.953 4.903-7.484 7.296-2.53 2.393-5.115 4.755-7.667 7.127-.528.498-1.508-.466-1.002-.985 2.456-2.478 4.922-4.935 7.452-7.339 2.52-2.382 5.04-4.871 7.797-7 .528-.413 1.357.382.894.89l.01.01Zm4.297-3.866c-.043.424-.43.71-.883.657a171.752 171.752 0 0 1-19.48-3.59 470.646 470.646 0 0 1-14.14 4.755c-.69.222-1.27-1.027-.55-1.271a520.386 520.386 0 0 0 11.803-4.215 170.39 170.39 0 0 1-21.688-7.285c-.69-.286-.55-1.61.248-1.282a167.944 167.944 0 0 0 21.15 6.99 146.659 146.659 0 0 1-8.13-7.763c-.55-.572.15-1.504.764-.9a143.194 143.194 0 0 0 10.607 9.467A170.478 170.478 0 0 0 55.25 56.09a144.432 144.432 0 0 1 3.285-17.378 123.002 123.002 0 0 1-2.37-12.03c-.097-.699 1.013-.91 1.131-.222.55 3.113 1.217 6.227 2.014 9.319a146.215 146.215 0 0 1 6.537-18.66c.269-.635 1.313-.37 1.044.297a143.631 143.631 0 0 0-6.375 19.125 518.07 518.07 0 0 1 9.229-8.228c.527-.455 1.292.233.743.741a449.095 449.095 0 0 0-10.607 10.06 141.756 141.756 0 0 0-3.059 18.014v.01Zm21.98-13.66c-2.93 1.959-5.87 3.886-8.831 5.782-2.961 1.906-5.923 3.833-9.078 5.443-.614.307-1.25-.562-.679-.975 2.876-2.054 5.923-3.812 8.939-5.633 3.015-1.822 6.03-3.643 9.045-5.475.614-.37 1.217.455.604.858ZM76.406 122.974c4.448.074 8.97-2.192 12.061-5.348 1.142-1.091 2.068-2.372 2.994-3.643.55-.73 1.712.053 1.206.816-2.552 4.288-6.375 7.953-11.21 9.658-1.335.37-6.31 2.234-6.472-.223-.022-.762.668-1.355 1.421-1.271v.011Z"/><path fill="#F37600" d="M91.743 116.017v.01c1.045 3.4 1.95 6.852 2.703 10.368.119.572.948.646 1.346.116a103.93 103.93 0 0 0 1.53-2.065c.333-.455 1-.508 1.27-.095a220.123 220.123 0 0 1 3.403 5.432c.248.403.905.371 1.271-.074.183-.222.366-.444.538-.667.27-.328.722-.466 1.045-.296a423.385 423.385 0 0 0 7.958 3.95c.614.296 1.475-.488 1.228-1.133a158.701 158.701 0 0 0-5.105-11.946c-.237-.497.216-1.154.797-1.175a156.16 156.16 0 0 0 14.172-.953c.549-.064.969-.731.775-1.239a140.204 140.204 0 0 0-1.626-4.173c-.14-.349 0-.804.334-1.069a114.336 114.336 0 0 0 9.864-8.684c.55-.54.334-1.493-.312-1.472-1.981.074-3.974.127-5.955.138-.356 0-.614-.297-.625-.699 0-.456-.011-.9-.021-1.356-.011-.55-.485-.857-.937-.614-1.4.742-2.822 1.462-4.243 2.15-.506.243-.991-.17-.915-.763.032-.264.075-.529.107-.804.076-.593-.42-.996-.915-.752a121.578 121.578 0 0 1-6.709 3.007c-.754.307-1.249-.699-.625-1.26a100.65 100.65 0 0 0 7.172-7.148.904.904 0 0 0 .205-.805c-.183-.699-.366-1.398-.549-2.086a.896.896 0 0 1 .194-.815c1.12-1.25 2.218-2.531 3.284-3.844.474-.583.043-1.483-.614-1.303-2.046.54-4.103 1.027-6.16 1.472-.603.127-1.023-.614-.667-1.176a96.25 96.25 0 0 0 2.864-4.903c.27-.487-.021-1.133-.517-1.175l-1.733-.159c-.313-.032-.571-.296-.614-.646a119.022 119.022 0 0 0-.743-4.755c-.108-.624-.819-.847-1.174-.37a81.529 81.529 0 0 1-2.789 3.473.637.637 0 0 1-.829.127c-.507-.317-1.013-.646-1.508-.963-.442-.276-.98.031-1.002.56-.064 1.812-.172 3.633-.333 5.433a.658.658 0 0 1-1.196.35 154.921 154.921 0 0 0-4.016-5.052c-.442-.529-1.239-.2-1.174.456.161 1.514.28 3.04.377 4.575a.662.662 0 0 1-.345.624c-.56.286-1.13.572-1.69.848a.65.65 0 0 0-.367.593 95.446 95.446 0 0 1-.334 9.107c-.064.762-1.141.836-1.346.106a110.893 110.893 0 0 0-2.003-6.502c-.161-.477-.775-.646-1.12-.308-.161.149-.323.297-.474.445-.355.328-.958.148-1.12-.317a96.62 96.62 0 0 0-1.464-3.961c-.162-.424-.69-.593-1.045-.36-.29.19-.581.392-.872.582-.258.17-.635.117-.883-.127a162.696 162.696 0 0 0-4.124-4.024c-.453-.434-1.174-.19-1.11.37.377 3.23.571 6.513.571 9.817 0 .318-.258.562-.603.551a128.016 128.016 0 0 1-4.049-.138c-.485-.02-.765.424-.528.837 2.111 3.611 4.06 7.339 5.816 11.183.215.476-.205.964-.744.858a171.19 171.19 0 0 1-12.384-2.997c-.646-.18-1.044.466-.592.942a403.067 403.067 0 0 1 5.88 6.259.597.597 0 0 1-.022.858c-.161.148-.334.296-.506.444-.334.297-.237.826.205 1.038 1.981.921 3.984 1.811 5.998 2.679.463.202.55.784.162 1.091-.593.466-1.196.932-1.799 1.387-.474.35-.28 1.049.323 1.155 3.619.582 7.29 1.048 10.984 1.376m12.514-15.545c-2.025 3.526-4.265 6.925-6.86 10.081-.345.424-1.023-.021-.7-.477 2.315-3.325 4.512-6.703 6.526-10.208a101.56 101.56 0 0 0-.345-15.165c-.053-.54.765-.624.83-.084.549 4.214.85 8.493.872 12.803a102.112 102.112 0 0 0 8.216-20.078c.162-.562.937-.265.797.285a93.933 93.933 0 0 1-7.969 20.365 99.82 99.82 0 0 0 10.478-7.922c.453-.391.916.36.517.72a102.147 102.147 0 0 1-12.351 9.669l-.011.011Zm-6.72 15.567c2.035 1.546 3.898 3.367 5.761 5.114a238.437 238.437 0 0 1 5.514 5.369c.377.371-.334 1.091-.732.731-1.885-1.737-3.791-3.452-5.665-5.21s-3.801-3.452-5.535-5.337c-.345-.371.259-.953.657-.657v-.01Zm-6.149-15.387a339.38 339.38 0 0 0-7.84-7.36c-.409-.37.151-.88.539-.551a361.883 361.883 0 0 1 6.816 6.015 105.64 105.64 0 0 0-4.76-14.031c-.204-.488.56-.689.765-.223a105.942 105.942 0 0 1 4.878 13.682 90.146 90.146 0 0 0 1.444-6.851c.086-.509.904-.35.829.158a90.91 90.91 0 0 1-1.691 8.853 106.16 106.16 0 0 1 2.488 12.761c4.587-.593 9.175-1.44 13.751-2.563a106.566 106.566 0 0 0 7.754-6.999c.452-.445.969.233.56.656a111.612 111.612 0 0 1-5.944 5.74 125.784 125.784 0 0 0 15.507-5.221c.581-.243.689.731.183.943a125.799 125.799 0 0 1-15.906 5.443 371.288 371.288 0 0 0 8.691 3.05c.527.18.107 1.09-.399.931a321.818 321.818 0 0 1-10.413-3.441 127.778 127.778 0 0 1-14.301 2.711c-.323.042-.614-.17-.646-.477-.496-4.5-1.282-8.916-2.326-13.226h.021Zm-13.44 2.636c2.219 1.335 4.448 2.658 6.666 3.993 2.219 1.334 4.48 2.605 6.59 4.109.42.296-.042.942-.494.72-2.327-1.165-4.513-2.574-6.699-3.961a374.51 374.51 0 0 1-6.515-4.215c-.452-.296 0-.9.442-.635l.01-.011ZM34.411 114.895a184.358 184.358 0 0 0 2.477 4.511c.194.35-.14.667-.485.466a99.517 99.517 0 0 0-6.762-3.569c-.291-.137-.614.085-.56.392a76.492 76.492 0 0 0 1.68 7.381c.075.276-.151.498-.431.413-.776-.233-1.55-.466-2.337-.677-.194-.053-.388.042-.442.233a49.594 49.594 0 0 0-1.163 5.813c-.043.339-.495.371-.7.053a103.208 103.208 0 0 1-1.787-2.954c-.108-.18-.313-.265-.496-.201-.204.063-.398.137-.603.211-.237.085-.517-.095-.549-.36a64.714 64.714 0 0 1-.247-2.531c-.022-.296-.345-.487-.604-.349a8.467 8.467 0 0 0-.344.191.417.417 0 0 1-.603-.35 64.175 64.175 0 0 1-.183-4.088c0-.455-.646-.571-.797-.137a57.73 57.73 0 0 0-1.583 5.263.389.389 0 0 1-.302.296c-.377.075-.743.159-1.12.244a.402.402 0 0 0-.301.318c-.183.9-.345 1.81-.485 2.721-.064.403-.581.466-.754.096a96.093 96.093 0 0 1-1.572-3.537c-.14-.35-.625-.329-.754.031a62.712 62.712 0 0 0-1.023 3.124c-.097.307-.452.403-.667.18-.248-.264-.496-.519-.733-.783a.372.372 0 0 0-.506-.053 60.464 60.464 0 0 0-2.154 1.62c-.28.222-.657 0-.624-.392.075-.964.172-1.927.29-2.88.022-.212-.086-.403-.258-.466-.323-.117-.657-.233-.99-.35-.291-.095-.356-.508-.13-.762a65.04 65.04 0 0 1 2.412-2.436c.291-.275.162-.773-.215-.783a89.744 89.744 0 0 0-3.812-.053c-.41 0-.517-.583-.162-.848a66.53 66.53 0 0 1 2.499-1.757.537.537 0 0 0 .237-.445v-1.303c0-.169.096-.339.236-.434a61.729 61.729 0 0 1 5.277-3.113c.452-.233.313-.901-.172-.826a62.891 62.891 0 0 0-4.372.762c-.323.064-.56-.243-.42-.572.064-.148.118-.296.183-.455.14-.328-.086-.646-.42-.572a63.31 63.31 0 0 0-2.8.625c-.302.074-.528-.18-.452-.498l.193-.794c.065-.233-.043-.455-.258-.498a96.318 96.318 0 0 0-3.49-.794c-.387-.085-.354-.667.044-.9a70.444 70.444 0 0 1 7.075-3.611c.237-.106.388-.35.356-.572a75.035 75.035 0 0 1-.313-2.669c-.032-.328.313-.656.646-.603 2.843.381 5.654.9 8.41 1.535.345.074.7-.243.647-.561a96.418 96.418 0 0 1-1.152-7.71c-.043-.412.57-.74.893-.476a313.613 313.613 0 0 1 4.039 3.473c.161.149.452.138.657-.02.14-.107.28-.202.42-.308.28-.212.667-.127.753.138.367 1.228.754 2.457 1.163 3.674.098.276.496.35.754.128.399-.329.797-.657 1.207-.975.312-.254.786-.085.764.265a71.274 71.274 0 0 0 0 6.439c0 .158.108.296.27.349a94.997 94.997 0 0 1 6.288 2.446c.334.149.334.583 0 .72l-1.26.54a.378.378 0 0 0-.075.657c1.044.805 2.078 1.62 3.09 2.446.227.18.205.509-.032.636-.118.063-.237.127-.355.18-.183.095-.237.307-.14.497l-.01-.042Z"/><path fill="#F37600" d="M22.498 110.139c3.425-3.939 7.463-7.339 12.201-9.69a.666.666 0 0 1 .883.286.638.638 0 0 1-.312.869c-4.652 2.086-8.777 5.305-12.223 9.001-.301.339-.861-.127-.549-.477v.011ZM107.636 35.153c-1.26.381-2.52.784-3.769 1.197-.291.095-.485-.19-.28-.424a81.813 81.813 0 0 0 3.64-4.469c.151-.2.021-.466-.216-.466a59.048 59.048 0 0 0-5.826.223c-.226.02-.355-.18-.258-.37.291-.541.56-1.081.84-1.621.065-.138.022-.297-.118-.35a39.214 39.214 0 0 0-4.254-1.652c-.248-.084-.216-.413.054-.518.818-.318 1.658-.615 2.487-.911.151-.053.248-.19.226-.34-.021-.158-.053-.306-.075-.465-.032-.19.14-.37.355-.36.647.042 1.303.095 1.95.17.226.02.42-.191.344-.393l-.097-.285c-.075-.202.119-.424.345-.403a45.25 45.25 0 0 1 3.123.434c.344.064.527-.391.215-.572a48.061 48.061 0 0 0-3.78-1.884c-.107-.053-.183-.149-.183-.265 0-.286-.021-.572-.032-.847 0-.117-.086-.223-.194-.265a55.384 55.384 0 0 0-2.003-.73c-.29-.096-.27-.488.032-.562a67.633 67.633 0 0 1 2.897-.667c.28-.064.334-.413.076-.55a44.791 44.791 0 0 0-2.23-1.176c-.226-.106-.247-.392-.043-.52.237-.148.463-.285.7-.433a.271.271 0 0 0 .108-.36 41.027 41.027 0 0 0-.926-1.8c-.129-.234.097-.477.388-.403.721.19 1.432.392 2.143.603.161.053.323 0 .387-.127.13-.222.27-.455.399-.677.118-.202.441-.191.592.01a46.759 46.759 0 0 1 1.518 2.107c.173.255.56.223.625-.052.205-.922.398-1.854.56-2.796.054-.297.517-.297.668 0 .344.688.678 1.377.99 2.075a.423.423 0 0 0 .302.233c.334.053.657.117.991.18a.421.421 0 0 1 .301.233 46.31 46.31 0 0 1 1.637 4.3c.119.36.635.35.657-.01a48.16 48.16 0 0 0 .021-3.315c0-.244.259-.37.496-.233.108.063.215.127.312.201.226.148.496.021.496-.222-.011-.71-.044-1.43-.087-2.14-.01-.232.205-.36.442-.264.194.084.388.17.571.254.172.074.344.032.42-.117.377-.815.732-1.63 1.087-2.457.119-.264.56-.169.679.16a52.51 52.51 0 0 1 1.766 5.686c.043.18.215.328.387.339.69.032 1.379.085 2.068.138.248.02.452.317.377.55a70.019 70.019 0 0 1-2.315 5.962c-.108.244.086.551.344.551 1.993 0 4.006.064 6.009.212.323.021.485.53.237.72a180.994 180.994 0 0 1-3.198 2.489c-.129.095-.162.307-.075.487.064.116.118.233.172.35.118.232 0 .507-.216.529-.98.105-1.97.211-2.939.349-.227.032-.334.318-.205.54l.581 1.017c.151.264-.043.593-.312.53a55.728 55.728 0 0 0-4.889-.89.298.298 0 0 0-.301.148 67.807 67.807 0 0 1-2.725 4.278c-.161.223-.485.17-.549-.095-.076-.328-.151-.667-.237-.995-.054-.223-.312-.297-.495-.149-.754.657-1.519 1.303-2.283 1.938-.173.138-.42.085-.474-.116a2.596 2.596 0 0 1-.086-.286c-.043-.148-.205-.223-.356-.17l.011-.02Z"/><path fill="#F37600" d="M114.971 29.573c3.252 2.488 3.306 7.455 1.012 10.6-2.348 3.389-6.935 4.035-10.736 3.283-.991-.17-.679-1.642.301-1.409 3.381.752 7.366.403 9.552-2.52 2.111-2.637 2.197-7.148-.56-9.383-.388-.264.054-.868.431-.582v.01Z"/><path fill="#F37600" d="M56.27 121.163c-4.49-.879-6.385-6.354-4.64-10.187 1.625-3.781 5.771-5.74 9.551-5.443 7.646.497 12.783 8.736 10.855 15.747-2.681 10.992-18.34 12.57-25.877 5.485-13.43-12.909-1.056-33.856 10.66-43.524 10.145-8.535 22.41-13.915 34.407-19.252 13.752-6.428 31.488-12.994 38.973-26.782 7.538-14.836-.948-33.601-18.781-34.279-6.354-.487-12.794 1.472-17.263 6.005-9.929 9.986-7.172 24.875 5.18 31.42a.72.72 0 0 1 .28.984c-.194.35-.646.466-1.001.276-2.919-1.62-5.611-3.739-7.732-6.344-11.89-15.185 1.981-35.952 20.643-34.152 24.004 1.07 30.853 29.916 14.689 45.134-22.765 21.984-64 24.06-79.743 53.468-2.778 5.591-4.932 11.881-3.532 17.896 1.26 6.005 6.483 10.982 12.75 11.607 5.977.847 12.987-2.213 14.204-8.408.646-2.86-.022-5.973-1.712-8.303-3.177-4.723-10.995-5.983-13.504-.307-.84 1.906.064 5.136 2.283 5.443 2.466.424 1.766 4.014-.679 3.537l-.01-.021Z"/><path fill="#F37600" d="M57.193 121.311c2.29 0 4.146-1.825 4.146-4.077 0-2.251-1.856-4.077-4.146-4.077s-4.146 1.826-4.146 4.077c0 2.252 1.856 4.077 4.146 4.077ZM84.433 66.965c10.812-4.363 23.304-7.19 34.719-3.378 5.384 1.652 12.837 7.593 8.744 13.608-.775 1.048-1.82 1.8-2.907 2.404a.747.747 0 0 1-1.002-.276.72.72 0 0 1 .302-.995c1.787-.996 3.317-2.669 3.177-4.755-.14-1.97-1.454-3.823-3.134-5.157-7.226-5.507-17.338-5.126-25.9-3.347-4.447.964-8.776 2.436-12.954 4.257-1.583.668-2.65-1.673-1.034-2.372l-.01.01ZM39.773 88.028c-3.339-.095-5.934 2.934-4.319 5.825 1.626 2.647 5.568 2.89 8.325 1.8 1.992-.773 3.682-2.213 4.953-3.971.894-1.24 2.822.106 1.928 1.345-2.994 4.15-8.852 6.756-13.87 4.468-4.265-1.662-5.019-7.751-.862-9.996.85-.53 4.523-1.705 4.566-.18 0 .391-.323.71-.721.72v-.01Z"/><path fill="#F37600" d="M91.099 59.268c-2.865-1.96-4.071-6.217-1.96-9.16 4.092-6.376 14.882-4.554 16.142 3.092.603 3.547-1.68 6.872-4.426 8.853a1.177 1.177 0 0 1-1.626-.212 1.144 1.144 0 0 1 .248-1.63c2.229-1.547 4.103-3.972 3.726-6.725-.819-5.91-9.401-7.413-12.654-2.5-1.712 2.373-.807 5.422 1.476 7.149.732.593-.172 1.694-.926 1.122v.01ZM20.342 77.894l1.281-4.098a.508.508 0 0 0-.56-.646l-1.033.149a.512.512 0 0 1-.571-.371l-.808-3.124c-.118-.466-.775-.519-.969-.064l-2.714 6.481c-.172.413-.754.413-.937.01l-2.304-5.124c-.172-.392-.732-.403-.926-.022l-.873 1.705a.505.505 0 0 1-.721.201l-2.682-1.61c-.42-.253-.926.18-.732.626l1.228 2.848a.502.502 0 0 1-.312.678l-1.842.604a.497.497 0 0 0-.108.9l4.825 2.986a.498.498 0 0 1-.15.91L2.518 82.64a.502.502 0 0 0-.075.953L5.47 84.83c.237.095.366.36.29.614l-.3.985c-.108.35.193.699.57.646l4.308-.646c.398-.064.71.339.549.699l-1.443 3.198c-.216.466.344.91.764.614l3.694-2.637a.805.805 0 0 1 .99.043l.486.413c.28.233.71.116.818-.233l1.13-3.686a.496.496 0 0 1 .41-.35l3.866-.57a.499.499 0 0 0 .355-.763l-.344-.53a.79.79 0 0 1 .107-.974l3.188-3.22c.366-.37 0-.974-.506-.836l-3.425.932a.508.508 0 0 1-.624-.636h-.011ZM64.333 90.231l-.496 2.34a.28.28 0 0 0 .345.329l.57-.138c.14-.032.291.043.335.18l.613 1.695c.097.254.463.243.539-.011l1.173-3.738c.076-.233.399-.265.517-.053l1.551 2.732a.29.29 0 0 0 .517-.032l.398-.995c.065-.149.237-.223.388-.149l1.572.752c.248.117.507-.148.377-.38l-.829-1.515a.284.284 0 0 1 .14-.392l.99-.424a.28.28 0 0 0 .012-.508l-2.833-1.419c-.226-.116-.204-.434.033-.508l3.747-1.292c.259-.085.248-.456 0-.53l-1.744-.54a.277.277 0 0 1-.194-.328l.118-.561a.28.28 0 0 0-.344-.329l-2.359.572c-.215.053-.409-.148-.334-.36l.636-1.842c.097-.276-.237-.488-.452-.297l-1.917 1.652a.444.444 0 0 1-.55.032l-.29-.201a.286.286 0 0 0-.442.17l-.441 2.096a.274.274 0 0 1-.216.212l-2.121.508a.283.283 0 0 0-.162.445l.216.275a.439.439 0 0 1 0 .54l-1.605 1.949c-.183.222.054.54.323.434l1.853-.689c.215-.074.43.106.376.318h-.01ZM130.683 54.12l-1.217-1.95a.274.274 0 0 0-.463 0l-.301.467a.277.277 0 0 1-.356.095l-1.551-.783c-.236-.117-.484.127-.366.36l1.68 3.357c.108.211-.097.444-.323.37l-2.897-.9c-.215-.064-.42.148-.333.35l.387.942a.277.277 0 0 1-.172.36l-1.605.487a.265.265 0 0 0 0 .508l1.594.52a.265.265 0 0 1 .162.36l-.41.942a.268.268 0 0 0 .324.36l2.918-.837c.226-.063.431.17.323.382l-1.745 3.314c-.118.233.13.477.367.36l1.572-.752a.275.275 0 0 1 .355.096l.291.466c.108.17.355.17.463 0l1.26-1.917a.272.272 0 0 1 .474.032l.786 1.694c.118.244.495.19.517-.085l.237-2.382a.419.419 0 0 1 .366-.371l.334-.042c.194-.032.301-.244.194-.403l-1.099-1.747a.273.273 0 0 1 0-.286l1.131-1.726c.108-.159 0-.381-.183-.413l-.334-.053a.418.418 0 0 1-.355-.381l-.183-2.383c-.022-.275-.399-.339-.517-.095l-.83 1.673a.271.271 0 0 1-.473.021l-.022-.01ZM54.568 2.823l-2.003.53a.232.232 0 0 0-.119.38l.323.371a.238.238 0 0 1 0 .318l-1.076 1.112c-.162.17-.011.434.215.402l3.338-.56c.216-.033.366.19.237.37l-1.518 2.203c-.119.169.021.391.226.37l.915-.085c.14-.01.259.096.27.233l.021 1.472c0 .233.302.329.442.138l.85-1.207a.24.24 0 0 1 .356-.043l.71.583c.162.127.399.021.399-.18V6.572c0-.212.269-.318.42-.17l2.444 2.309c.173.159.442.01.41-.212l-.259-1.514a.234.234 0 0 1 .172-.265l.485-.127a.232.232 0 0 0 .118-.381l-1.356-1.546c-.13-.138-.044-.36.15-.392l1.67-.233c.247-.032.29-.37.053-.455l-2.013-.795a.383.383 0 0 1-.237-.402l.043-.297a.24.24 0 0 0-.302-.264l-1.798.476a.247.247 0 0 1-.248-.074L56.7.843c-.118-.127-.323-.106-.398.053l-.13.264a.366.366 0 0 1-.42.202L53.631.917c-.237-.053-.398.243-.215.413l1.249 1.122c.14.128.086.36-.097.403v-.032ZM123.282 125.474l-.743 2.51a.31.31 0 0 0 .345.391l.635-.106a.324.324 0 0 1 .356.223l.517 1.906c.075.286.484.307.592.032l1.604-3.982c.097-.254.463-.265.571-.011l1.454 3.114c.108.233.452.243.56 0l.517-1.049a.313.313 0 0 1 .441-.127l1.659.964c.258.148.57-.116.441-.392l-.775-1.726c-.076-.159.011-.349.183-.413l1.12-.381a.308.308 0 0 0 .065-.551l-2.973-1.79c-.237-.137-.183-.487.086-.561l4.211-1.101c.291-.074.312-.477.032-.583l-1.863-.73a.31.31 0 0 1-.183-.371l.183-.604c.065-.211-.129-.423-.355-.391l-2.628.434a.305.305 0 0 1-.333-.424l.85-1.959c.13-.286-.215-.551-.474-.371l-2.239 1.642a.478.478 0 0 1-.603-.021l-.302-.244c-.172-.137-.442-.063-.495.148l-.668 2.256a.31.31 0 0 1-.248.222l-2.358.382a.304.304 0 0 0-.215.466l.215.317a.472.472 0 0 1-.054.593l-1.917 1.991c-.215.223 0 .593.312.509l2.079-.604a.312.312 0 0 1 .388.381l.01.011ZM14.183 6.847l.528-2.976a.358.358 0 0 0-.452-.402l-.711.201a.352.352 0 0 1-.43-.212l-.84-2.117c-.13-.318-.593-.297-.69.031l-1.324 4.776c-.087.297-.496.36-.657.085l-2.079-3.4c-.161-.253-.549-.222-.646.064L6.42 4.168a.362.362 0 0 1-.485.201L3.91 3.48c-.323-.137-.635.202-.463.498l1.109 1.885a.348.348 0 0 1-.161.498l-1.239.583c-.28.127-.27.518 0 .646l3.65 1.683c.291.138.27.54-.02.657l-4.696 1.79a.357.357 0 0 0 .032.677l2.23.604c.183.053.29.222.258.402l-.13.72a.358.358 0 0 0 .453.403l2.961-.826c.27-.074.528.18.442.445l-.722 2.361c-.107.35.323.614.593.36l2.358-2.16a.56.56 0 0 1 .7-.053l.377.243a.369.369 0 0 0 .56-.232l.474-2.68a.372.372 0 0 1 .258-.286l2.66-.73a.36.36 0 0 0 .183-.572l-.29-.34a.55.55 0 0 1-.011-.687l1.949-2.531c.226-.286-.086-.678-.43-.54l-2.316.953a.365.365 0 0 1-.496-.392v-.01ZM91.066 74.622c.043.36.42.635.786.55a3.765 3.765 0 0 0 1.335-.593c.205.678.873 2.13 1.745 1.98.872-.147 1.034-1.715 1.001-2.435.485.138.98.19 1.454.138.366-.043.646-.413.56-.773-.377-1.663-2.261-3.124-4.017-2.838-1.755.286-3.058 2.276-2.864 3.96v.01ZM12.173 25.75c-.14-.34-.581-.488-.915-.318-.42.233-.797.55-1.11.932-.387-.593-1.442-1.8-2.24-1.43-.796.37-.506 1.938-.269 2.616-.506 0-.99.084-1.432.264-.344.138-.495.572-.323.9.83 1.494 3.058 2.383 4.663 1.632 1.605-.752 2.294-3.03 1.626-4.596ZM85.12 62.538c-.237-.391-.807-.508-1.184-.233-.485.35-.894.816-1.217 1.345-.582-.678-2.1-1.99-3.026-1.398-.926.593-.29 2.489.118 3.283a4.58 4.58 0 0 0-1.733.572.81.81 0 0 0-.237 1.165c1.292 1.705 4.21 2.436 6.063 1.239 1.906-1.24 2.315-4.13 1.227-5.962l-.01-.01ZM77.14 9.208c.226.37.765.466 1.12.212.453-.339.83-.773 1.12-1.281.56.624 1.992 1.853 2.865 1.27.872-.582.247-2.34-.151-3.081a4.56 4.56 0 0 0 1.626-.561c.377-.223.474-.752.215-1.102-1.238-1.588-3.984-2.245-5.707-1.09-1.723 1.154-2.122 3.907-1.077 5.623l-.01.01ZM125.825 40.83c-.204-.297-.667-.35-.947-.117a3.536 3.536 0 0 0-.873 1.133c-.495-.497-1.776-1.44-2.466-.91-.689.53-.075 1.97.302 2.573a3.58 3.58 0 0 0-1.325.55c-.301.202-.355.657-.118.933 1.12 1.26 3.457 1.652 4.835.593 1.422-1.091 1.551-3.39.582-4.766l.01.01ZM50.992 98.12a.784.784 0 0 0 1.11-.18c.3-.466.506-.996.602-1.557.733.403 2.488 1.049 3.091.233.603-.815-.57-2.245-1.195-2.806a4.113 4.113 0 0 0 1.313-1.06c.27-.328.184-.857-.183-1.09-1.69-1.059-4.458-.752-5.664.89-1.238 1.694-.625 4.33.937 5.57h-.01ZM127.197 86.154a.786.786 0 0 0-.172 1.144c.377.445.84.815 1.389 1.09-.635.593-1.852 2.108-1.217 2.955.636.847 2.466.148 3.231-.275.108.593.334 1.143.657 1.62.248.37.808.455 1.163.17 1.615-1.324 2.186-4.141.905-5.836-1.325-1.758-4.19-1.99-5.945-.857l-.011-.01Z"/></svg>