<svg xmlns="http://www.w3.org/2000/svg" width="24" height="24" fill="none"><path stroke="#fff" d="m17.634 15.545.004.001c1.419.47 2.915.707 4.436.707.786 0 1.426.64 1.426 1.426v4.395c0 .786-.64 1.426-1.426 1.426C10.178 23.5.5 13.822.5 1.926.5 1.14 1.14.5 1.926.5h4.407c.786 0 1.426.64 1.426 1.426 0 1.521.238 3.015.708 4.44a1.44 1.44 0 0 1-.354 1.458l-.028.027-.023.032-.966 1.322-.184.253.146.276c1.695 3.195 3.99 5.49 7.207 7.207l.278.149.254-.188 1.392-1.027.033-.024.029-.03c.122-.125.335-.244.604-.304.266-.06.544-.052.779.028Z"/></svg>