<svg xmlns="http://www.w3.org/2000/svg" width="135" height="133" fill="none"><g clip-path="url(#a)"><path fill="#5BC94E" d="M64.047 52.082a92.113 92.113 0 0 1 15.934 25.844c.428 1.048-1.005 1.68-1.562.706-6.057-10.466-12.938-19.648-19.67-27.064-.588-.653-1.572-.064-1.22.706C61.5 63.072 73.797 77.391 89.57 112.845c.235.577 1.06.47 1.113-.161 1.99-35.411-16.256-54.91-25.405-61.865-.953-.728-1.99.385-1.22 1.263h-.011ZM98.794 51.632c-1.883-.16-2.9.93-1.776 1.905 6.41 5.532 17.775 14.372 34.18 33.12.578.728 1.509.46 1.498-.224-.363-20.386-21.253-33.731-33.902-34.801ZM124.51 2.673c-6.196-.985-15.774-.47-23.061 3.703-.675.385-.429 1.402.353 1.434 12.371.513 19.755-2.151 22.922-3.692.674-.332.525-1.327-.214-1.445ZM131.755 41.99c-3.831 3.863-6.966 10.916-6.774 16.48.032.9 1.124 1.37 1.809.782 7.18-6.143 7.287-13.27 6.838-16.62-.118-.899-1.231-1.295-1.873-.642ZM119.332 20.395c-3.521 2.022-12.103 8.796-13.762 27.524-.064.685.77 1.102 1.273.631 7.877-7.437 12.328-22.44 13.613-27.32.171-.654-.535-1.167-1.124-.835ZM103.309 71.483c2.836 6.796 4.998 15.175 4.987 24.881 0 .953-1.573 1.06-1.723.14-1.648-9.964-4.559-19.146-7.983-26.872-.3-.674-1.434-.482-1.402.225-.407 9.663 5.575 24.399 6.753 56.878 0 .524.802.663 1.091.171 15.282-27.599 5.747-48.07-.107-56.097-.61-.835-1.99-.235-1.605.674h-.011Z"/><path fill="#5BC94E" d="M53.229 28.913c9.096 3.135 18.588 8.668 25.844 18 .706.92-.524 1.872-1.327 1.07-8.818-8.668-19.712-14.404-30.403-17.626-.93-.278-1.712.503-.974.963 8.251 7.288 31.163 13.153 46.862 50.736.214.632.91.375.942-.364.941-41.275-27.471-52.223-40.216-54.17-1.349-.225-1.937.973-.717 1.39h-.011Z"/><path fill="#5BC94E" d="M57.133 44.077c-21.328-8.23-44.218-19.584-54.61-41.222l2.141-.674c2.665 15.624 10.798 29.75 18.91 43.212 8.261 13.655 17.593 26.732 24.41 41.244.363.76-.825 1.573-1.328.62C32.96 58.588 8.752 34.51 2.428 2.555c-.224-1.263 1.606-1.862 2.14-.674 2.409 5.126 5.64 9.867 9.472 14.072 11.718 12.778 27.738 20.333 43.63 26.754.856.343.374 1.712-.536 1.36v.01Z"/><path stroke="#5BC94E" stroke-linecap="round" stroke-linejoin="round" stroke-width="1.466" d="M118.398 102.785c4.966-19.637-7.523-33.581-21.456-42.453"/><path fill="#5BC94E" d="M43.79 43.285c2.76 7.234 5.832 15.892 9.064 26.037.321.995-1.145 1.552-1.616.61-5.008-10.145-9-20.033-12.071-28.605-.268-.75-1.402-.557-1.391.235.096 10.006 3.991 30.189 27.181 59.286.364.46 1.135.129 1.028-.438-5.736-31.334-14.533-48.895-20.611-57.906-.589-.867-1.959-.193-1.595.781h.01ZM25.917 62.215c-.61-.695-1.851.033-1.434.846 3.125 6.057 6.635 13.313 10.412 21.874.375.834-.963 1.477-1.466.695-5.447-8.368-9.92-16.619-13.43-23.81-.31-.632-1.36-.343-1.295.353.824 8.743 5.95 26.015 29.868 49.13.374.364 1.07 0 .931-.492-7.673-26.84-17.219-41.319-23.586-48.596ZM14.18 16.692c9.995-1.145 20.12 1.445 28.755 6.432 1.241.695 2.397 1.53 3.596 2.28a.727.727 0 0 1 .225 1.005.73.73 0 0 1-1.06.193c-9.021-6.122-20.311-9.503-31.205-8.155-1.188.225-1.53-1.573-.31-1.765v.01ZM14.96 31.31c-.812 7.93.333 16.448 4.645 23.275.493.803-.738 1.584-1.252.77-2.3-3.552-3.81-7.565-4.57-11.717-.77-4.163-.994-8.326-.566-12.564a.877.877 0 0 1 .963-.781.877.877 0 0 1 .77 1.017h.01ZM120.014 31.106c6.624-8.293 11.632-18.181 13.537-28.669l1.701.75c-1.915 2.471-4.601 4.216-7.384 5.34-8.283 3.22-17.325 3.242-25.929 4.612-11.28 1.509-22.944 5.04-30.542 13.944-.589.695-1.755-.204-1.103-.963 3.874-4.517 8.904-7.973 14.351-10.253 5.469-2.29 11.269-3.531 17.048-4.398 9.856-1.862 25.437-1.188 32.04-9.45a.958.958 0 0 1 1.38-.17.955.955 0 0 1 .321.92c-1.048 5.404-2.889 10.637-5.372 15.538-2.472 4.912-5.404 9.525-8.946 13.762-.632.728-1.745-.224-1.102-.963ZM35.111 132.899c-14.34-7.951-23.703-22.741-28.24-38.194l1.712.3c-4.345 7.202-6.186 16.223-4.377 24.506.61 2.772 1.616 5.447 2.932 7.973a.73.73 0 0 1-.31.995.737.737 0 0 1-.985-.299c-1.413-2.612-2.504-5.415-3.178-8.326-1.36-5.822-.963-11.975.749-17.668.877-2.858 1.99-5.587 3.585-8.219.396-.696 1.52-.535 1.69.235 2.066 7.566 5.533 14.929 9.996 21.403 2.247 3.243 4.794 6.293 7.662 9 2.847 2.729 6.046 5.073 9.47 7.01.825.449.15 1.755-.706 1.284Z"/><path stroke="#5BC94E" stroke-linecap="round" stroke-linejoin="round" stroke-width="1.466" d="M7.787 94.47c4.045 10.477 10.884 12.671 10.884 12.671"/><path fill="#5BC94E" d="M45.48 16.927C56.492 4.171 75.658.008 91.143 6.525c1.081.46.396 2.13-.706 1.659-14.757-6.335-33.228-2.45-43.844 9.717-.62.717-1.744-.246-1.102-.974h-.01Z"/><path stroke="#5BC94E" stroke-linecap="round" stroke-linejoin="round" stroke-width="1.466" d="M24.012 11.994s18.02-12.83 39.317-5.94"/><path fill="#5BC94E" d="M108.587 131.711c4.623-5.212 15.453-19.744 16.598-42.453.032-.727.91-1.07 1.445-.567 10.22 9.76 7.362 36.653-17.133 44.368-.814.257-1.477-.706-.91-1.348ZM123.985 131.454c2.119-1.733 5.586-5.094 7.759-9.867.289-.631 1.187-.684 1.508-.075 2.366 4.452.568 11.462-8.732 11.43-.792 0-1.145-.996-.535-1.499v.011ZM75.797 131.208c2.055-2.258 5.373-6.507 7.31-12.211.267-.77 1.305-.909 1.755-.214 3.092 4.741 1.027 12.639-8.209 14.03-.899.139-1.466-.942-.856-1.605ZM20.504 130.127c-2.27-2.622-6.068-7.63-8.883-14.479-.438-1.059-1.99-1.006-2.333.086-1.862 5.843 1.306 14.714 10.167 16.255 1.038.182 1.734-1.059 1.049-1.851v-.011ZM57.027 130.309c-2.826-3.007-7.93-8.721-11.355-14.115-.642-1.006-2.236-.567-2.236.621-.011 6.495 4.323 14.265 12.531 15.485 1.124.171 1.83-1.167 1.06-1.991ZM90.094 130.577c1.402-2.975 3.607-8.412 4.912-15.507.15-.802 1.188-1.091 1.702-.46 3.178 3.906 3.339 12.264-5.222 17.197-.835.482-1.809-.363-1.402-1.23h.01ZM67.802 128.19c1.53-5.918 4.324-19.509 2.986-36.139-.086-1.06 1.263-1.573 1.926-.727 8.583 10.958 6.85 28.626-3.135 37.915-.781.728-2.044 0-1.777-1.038v-.011ZM41.318 126.221c-3.532-5.832-11.483-19.562-16.405-32.618-.396-1.06-1.959-.941-2.173.172-2.525 13.419 5.308 29.429 16.983 34.287 1.135.471 2.226-.792 1.595-1.841ZM51.279 95.648c.47 9.567 3.317 19.712 8.882 30.039.482.888 1.83.706 2.044-.279 2.611-11.878-3.168-23.318-8.69-30.563-.738-.974-2.29-.407-2.236.813v-.01ZM16.576 92.308c-1.787-5.907-5.447-20.579-5.03-40.89.022-.856-1.027-1.284-1.648-.685-13.023 12.403-6.067 33.902 5.02 42.677.802.632 1.958-.117 1.658-1.091v-.01ZM4.889 46.848c.075-4.002.428-13.034 2.194-20.525.182-.76-.685-1.306-1.327-.846C.79 29.073-2.088 38.105 3.658 47.191c.353.545 1.22.3 1.231-.343ZM40.963 16.734a43.023 43.023 0 0 1 7.298-9.289c.514-.492.118-1.348-.588-1.284-8.123.706-11.975 6.903-8.176 10.744a.914.914 0 0 0 1.455-.181l.011.01ZM58.941 21.55c4.067-2.173 13.548-6.742 26.968-10.092.813-.203.877-1.348.064-1.605-9.118-2.825-22.034.321-28.07 10.627-.396.663.353 1.434 1.038 1.07ZM131.402 24.311c-2.001 4.077-6.956 12.81-15.924 20.504-.557.482-.225 1.402.514 1.413 8.336.064 18.203-10.145 16.951-21.628-.086-.803-1.177-1.017-1.541-.278v-.011ZM86.197 34.167c2.205-3.745 7.138-11.332 13.548-16.426.675-.535.204-1.595-.652-1.488-8.337.985-15.24 6.999-14.49 17.55.053.825 1.166 1.082 1.594.364ZM95.456 44.954c2.728-5.083 9.053-15.356 21.467-28.498.717-.76.096-2.012-.953-1.883-12.221 1.53-23.447 13.366-22.644 29.9.053 1.145 1.594 1.487 2.13.481Z"/><path stroke="#5BC94E" stroke-linecap="round" stroke-linejoin="round" stroke-width="1.466" d="M122.08 16.382s6.881 1.027 9.685-4.28"/></g><defs><clipPath id="a"><path fill="#fff" d="M0 .76h135v132H0z"/></clipPath></defs></svg>