<svg width="82" height="19" viewBox="0 0 82 19" fill="none" xmlns="http://www.w3.org/2000/svg">
<path d="M69.1613 18.7406L74.2686 12.5952L69.3487 5.53493H72.0195C73.3315 5.53493 73.1441 6.07442 75.4166 9.33478L76.1897 10.4607L79.2823 5.69912C79.376 5.55839 79.54 5.51147 79.6806 5.51147H81.2737L76.6349 11.094L82 18.7406H79.4931C77.8297 18.764 78.1343 18.0838 75.932 14.9642L74.7138 13.2285L71.1761 18.5295C71.0824 18.6702 70.9418 18.7171 70.7544 18.7171H69.1613V18.7406Z" fill="white"/>
<path d="M63.7941 18.9998C61.9901 18.9998 60.1159 18.4838 58.9445 17.0295C57.8433 15.6691 57.445 13.9803 57.3982 12.268C57.3748 10.1335 57.9136 8.42122 59.0382 7.13115C60.1627 5.84107 61.709 5.20776 63.677 5.20776C64.6141 5.20776 65.4575 5.3485 66.1838 5.62997C66.9101 5.91144 67.4724 6.28673 67.9175 6.77931C68.3626 7.27188 68.6906 7.83482 68.9015 8.46813C69.1123 9.10144 69.2295 9.80512 69.2529 10.5557C69.2529 10.9545 69.2295 11.3297 69.1592 11.6581C69.1592 11.705 69.1123 11.7285 69.0889 11.7285H60.8422C60.889 13.863 61.217 15.3876 61.8261 16.3493C62.4353 17.311 63.4427 17.7801 64.8718 17.7801C66.3478 17.7801 67.4958 17.3579 68.6203 16.49C68.8078 16.6542 69.0186 17.0999 68.6203 17.4517C67.5895 18.39 65.5747 18.9998 63.7941 18.9998ZM60.8187 11.0952L66.1604 10.6964C66.1838 8.91379 66.1135 5.98181 63.7473 5.98181C61.2639 5.98181 60.889 9.19526 60.8187 11.0952Z" fill="white"/>
<path d="M55.3403 17.2167V9.47623C55.3403 6.82571 54.3328 5.23071 51.7323 5.23071C49.9049 5.23071 48.1712 6.09858 46.9295 7.38865C46.9295 6.3566 46.7655 5.51218 45.7581 5.51218H43.6495L43.7667 7.01336V17.1932L43.6495 18.7178H47.0701L46.9529 17.1932V8.09233C47.9369 7.34174 48.8506 6.96645 50.1626 6.96645C51.826 6.96645 52.154 8.51454 52.154 10.2268V16.9352C52.154 18.0611 52.4117 18.7178 53.3489 18.7178H55.4574L55.3403 17.2167Z" fill="white"/>
<path d="M40.3473 1.68882C40.3473 2.62706 39.5742 3.37765 38.637 3.37765C37.6999 3.37765 36.9268 2.62706 36.9268 1.68882C36.9268 0.750588 37.6999 0 38.637 0C39.5742 0 40.3473 0.750588 40.3473 1.68882Z" fill="white"/>
<path d="M37.041 5.51174L37.1582 7.01291V17.1928L37.041 18.7174H40.4615L40.3444 17.1928V7.27093C40.3444 6.26233 40.157 5.48828 39.1496 5.48828H37.041V5.51174Z" fill="white"/>
<path d="M33.8057 17.2167V9.47623C33.8057 6.80226 32.7983 5.23071 30.1978 5.23071C28.019 5.23071 26.543 6.33314 25.3716 7.5763C24.9498 6.09858 23.919 5.23071 21.951 5.23071C20.1002 5.23071 18.6008 6.09858 17.3825 7.41211V7.38865C17.3825 6.3566 17.2185 5.51218 16.2111 5.51218H14.1025L14.2197 7.01336V17.1932L14.1025 18.7178H17.5231L17.4059 17.1932V8.09233C18.3665 7.29483 19.5145 6.96645 20.4282 6.96645C22.2322 6.96645 22.4196 8.81946 22.4196 10.2268V17.1932L22.3024 18.7178H25.723L25.6058 17.1932V8.09233C26.4258 7.38865 27.5738 6.96645 28.6515 6.96645C30.5258 6.96645 30.6429 9.00711 30.6429 10.2268V16.9352C30.6429 18.2018 30.9943 18.7178 31.8378 18.7178H33.9463L33.8057 17.2167Z" fill="white"/>
<path d="M5.45884 18.9993C3.88915 18.9993 1.56974 18.5536 0.164045 17.7561C0.421756 17.1697 0.913751 16.724 1.6166 17.0993C2.88173 17.7561 4.14686 18.061 5.55256 18.061C7.56739 18.061 9.04337 16.9352 8.94966 14.8945C8.73881 10.6255 -0.0233814 9.99221 4.68978e-05 4.85537C0.0234752 1.07897 3.42058 0 6.67711 0C8.24681 0 9.79308 0.304927 11.3159 0.91478C11.0582 1.52463 10.6131 2.04066 9.83994 1.66537C8.76223 1.14934 7.68453 0.91478 6.53654 0.91478C4.54514 0.91478 3.42058 1.99375 3.42058 3.58875C3.39715 7.67007 12.2999 8.27993 12.4639 13.581C12.5576 17.4512 9.32451 18.9993 5.45884 18.9993Z" fill="white"/>
</svg>
