<svg width="0" height="0" class="hidden">
  <symbol id="icon-decor-1" viewBox="0 0 378 1168" fill="none" xmlns="http://www.w3.org/2000/svg">
    <g opacity="0.5">
      <path d="M124.507 802.354C124.507 802.354 172.705 973.377 305.25 1041.46C437.392 1109.55 489.205 1167.45 489.205 1167.45C489.205 1167.45 445.425 972.841 294.003 887.061C198.411 832.913 124.105 802.89 124.105 802.89" fill="#1F3834"/>
      <path fill-rule="evenodd" clip-rule="evenodd" d="M824 0.738569C790.084 0.268034 759.946 0 734.609 0C516.011 0 332.373 38.1242 210.216 128.871C72.3867 231.967 -2.35444 418.829 0.0565617 570.252C1.26206 648.111 20.1483 729.729 84.4417 801.145C72.3867 758.725 63.1445 724.36 62.3408 675.496C61.1353 606.228 72.7885 541.793 93.6838 485.949C138.689 350.098 290.984 216.932 562.624 208.878C634.411 206.819 738.563 211.39 824 215.57V0.738569Z" fill="#1F3834"/>
    </g>
    </symbol>
    <symbol id="icon-unique-decor-2" viewBox="0 0 695 984" fill="none" xmlns="http://www.w3.org/2000/svg">
        <path d="M104.94 676.271C104.94 676.271 145.564 820.42 257.281 877.808C368.659 935.197 412.33 984 412.33 984C412.33 984 375.429 819.968 247.802 747.668C167.23 702.028 104.602 676.723 104.602 676.723" fill="#1F3834"/>
        <path fill-rule="evenodd" clip-rule="evenodd" d="M694.516 0.622496C665.93 0.225909 640.528 0 619.172 0C434.925 0 280.144 32.1334 177.182 108.62C61.0118 195.516 -1.98446 353.014 0.0476736 480.643C1.06374 546.267 16.9822 615.06 71.1725 675.253C61.0118 639.499 53.222 610.534 52.5446 569.349C51.5285 510.966 61.3505 456.656 78.9624 409.587C116.896 295.084 245.259 182.843 474.213 176.055C534.72 174.32 622.504 178.172 694.516 181.695V0.622496Z" fill="#1F3834"/>
    </symbol>
  <symbol fill="none" xmlns="http://www.w3.org/2000/svg" viewBox="0 0 20 24" id="icon-play">
    <path d="M20 12L0 0V24L20 12Z" fill="white"></path>
  </symbol>
  <symbol fill="none" xmlns="http://www.w3.org/2000/svg" viewBox="0 0 181 26" id="icon-arrow-next">
    <path d="M168 0.346191L180 12.8462L168 25.3462" stroke="white"></path>
    <line x1="180" y1="12.8462" x2="4.37114e-08" y2="12.8462" stroke="white"></line>
  </symbol>
  <symbol fill="none" xmlns="http://www.w3.org/2000/svg" viewBox="0 0 20 20" id="icon-whatsapp">
    <path d="M9.96923 0C4.46154 0 0 4.47205 0 10C0 12.1739 0.707693 14.2236 1.90769 15.8696L0.646155 19.5963L4.49231 18.354C6.06154 19.4099 7.96923 20 10 20C15.5077 20 20 15.528 20 10C19.9692 4.47205 15.4769 0 9.96923 0ZM15.8154 14.1304C15.5692 14.8137 14.3692 15.4658 13.8462 15.528C13.3231 15.5901 13.3231 15.9627 10.3385 14.8137C7.38462 13.6335 5.50769 10.6211 5.35385 10.4037C5.2 10.2174 4.15385 8.81988 4.15385 7.39131C4.15385 5.96273 4.89231 5.24845 5.16923 4.96895C5.44615 4.68944 5.75385 4.59627 5.93846 4.59627C6.12308 4.59627 6.33846 4.62733 6.49231 4.62733C6.67692 4.62733 6.89231 4.53416 7.13846 5.12422C7.38462 5.71429 7.96923 7.14286 8.03077 7.29814C8.09231 7.45342 8.15385 7.6087 8.06154 7.79503C7.96923 7.98137 7.90769 8.10559 7.78462 8.29193C7.63077 8.44721 7.47692 8.6646 7.35385 8.78882C7.2 8.9441 7.04615 9.09938 7.23077 9.37888C7.41538 9.65839 8 10.6211 8.86154 11.3975C9.96923 12.3913 10.9231 12.7019 11.2 12.8571C11.4769 13.0124 11.6615 12.9814 11.8154 12.795C12 12.6087 12.5538 11.9565 12.7385 11.646C12.9231 11.3665 13.1385 11.3975 13.3846 11.4907C13.6615 11.5839 15.0769 12.2981 15.3846 12.4534C15.6615 12.6087 15.8769 12.6708 15.9385 12.795C16.0308 12.8571 16.0308 13.4472 15.8154 14.1304Z" fill="currentColor"></path>
  </symbol>
  <symbol fill="none" xmlns="http://www.w3.org/2000/svg" viewBox="0 0 23 14" id="icon-vk">
    <path d="M22.795 12.4871C22.7332 12.3767 22.3508 11.4902 20.5106 9.66827C18.5842 7.76041 18.843 8.0702 21.1633 4.77132C22.5765 2.76224 23.1415 1.53531 22.9646 1.01081C22.7964 0.510836 21.757 0.64273 21.757 0.64273L18.301 0.664201C18.301 0.664201 18.0451 0.627393 17.8539 0.748552C17.6685 0.868177 17.5492 1.14423 17.5492 1.14423C17.5492 1.14423 17.0014 2.69936 16.2711 4.02136C14.7315 6.81107 14.1147 6.95831 13.8632 6.785C13.278 6.38165 13.4247 5.1624 13.4247 4.29742C13.4247 1.59359 13.8085 0.46636 12.6757 0.174966C12.299 0.0783461 12.023 0.0139328 11.0613 0.00319722C9.82779 -0.0106056 8.78265 0.00779817 8.1918 0.316062C7.79789 0.521571 7.49456 0.980134 7.68001 1.00621C7.90859 1.03841 8.42613 1.15497 8.70071 1.55372C9.0558 2.06749 9.04286 3.22386 9.04286 3.22386C9.04286 3.22386 9.247 6.40619 8.56701 6.80187C8.09979 7.07333 7.46006 6.51968 6.08714 3.98762C5.38415 2.69169 4.85224 1.25772 4.85224 1.25772C4.85224 1.25772 4.75017 0.990869 4.56759 0.848239C4.3462 0.674937 4.03568 0.619725 4.03568 0.619725L0.749314 0.641196C0.749314 0.641196 0.256215 0.656533 0.0750764 0.885047C-0.0859354 1.08902 0.062138 1.50924 0.062138 1.50924C0.062138 1.50924 2.63545 7.93064 5.54804 11.1682C8.22055 14.1358 11.2539 13.941 11.2539 13.941H12.6282C12.6282 13.941 13.0437 13.8919 13.255 13.6481C13.4506 13.4242 13.4434 13.004 13.4434 13.004C13.4434 13.004 13.4161 11.0363 14.2729 10.7464C15.1167 10.4612 16.2007 12.6482 17.3493 13.4901C18.2177 14.1266 18.8775 13.987 18.8775 13.987L21.9497 13.941C21.9497 13.941 23.5569 13.8352 22.795 12.4871Z" fill="currentColor"></path>
  </symbol>
  <symbol fill="none" xmlns="http://www.w3.org/2000/svg" viewBox="0 0 20 15" id="icon-youtube">
    <path fill-rule="evenodd" clip-rule="evenodd" d="M7.61814 3C8.56747 3.67719 9.54871 4.42042 10.491 5.13572C11.4427 5.85901 12.4084 6.55481 13.3324 7.25461C11.6758 8.36923 10.0121 9.44396 8.33286 10.5426C8.09708 10.696 7.87298 10.8825 7.61814 11V3ZM0.00561093 4.15279V10.9098C0.00561093 11.7047 -0.032367 12.4559 0.147615 13.0122C0.326772 13.5645 0.65041 14.0091 1.03225 14.3315C1.42813 14.6643 1.88758 14.9073 2.56375 14.9654C3.20029 15.019 3.94582 14.9824 4.67937 14.9824H15.3363C16.0529 14.9824 16.7786 15.0317 17.468 14.9654C18.6874 14.848 19.5271 14.0374 19.852 12.9799C20.0282 12.4066 19.994 11.6554 19.994 10.8771V4.1192C19.994 3.31821 20.0447 2.62802 19.852 2.01637C19.6802 1.47147 19.3801 1.02341 18.9842 0.681813C18.5962 0.347193 18.1471 0.0902284 17.468 0.0308953C16.798 -0.0266926 16.0492 0.0138807 15.3524 0.0138807H4.69506C3.99081 0.0138807 3.17842 -0.0253838 2.53238 0.0308953C1.33277 0.135601 0.43699 0.982841 0.132342 2.03338C-0.040623 2.62802 0.00561093 3.39019 0.00561093 4.15279Z" fill="currentColor"></path>
  </symbol>
  <symbol fill="none" xmlns="http://www.w3.org/2000/svg" viewBox="0 0 20 17" id="icon-tg">
    <mask id="mask0_1_195" maskUnits="userSpaceOnUse" x="0" y="0" width="20" height="17">
      <path fill-rule="evenodd" clip-rule="evenodd" d="M0 0H20V17H0V0Z" fill="white"></path>
    </mask>
    <g mask="url(#mask0_1_195)">
      <path fill-rule="evenodd" clip-rule="evenodd" d="M20 1.36587C19.895 1.84122 19.7855 2.31561 19.6856 2.79208C19.0393 5.87326 18.3951 8.95492 17.7499 12.0364C17.472 13.3635 17.1962 14.691 16.9119 16.0167C16.8749 16.1889 16.809 16.36 16.7278 16.5161C16.5105 16.9331 16.1526 17.0904 15.712 16.9496C15.5111 16.8855 15.3088 16.7916 15.1391 16.6661C13.7017 15.6037 12.2718 14.5308 10.8395 13.4611C10.7876 13.4224 10.7345 13.3854 10.6726 13.341C10.6251 13.3824 10.5802 13.4179 10.5392 13.4577C9.79975 14.1765 9.0602 14.8951 8.322 15.6153C8.10206 15.8298 7.85178 15.9589 7.52284 15.9395C7.55007 15.5247 7.57505 15.1231 7.60306 14.7218C7.66172 13.8816 7.7219 13.0414 7.78166 12.2011C7.79108 12.0689 7.82492 11.9334 7.8079 11.8049C7.74356 11.3205 8.01055 11.0396 8.33668 10.7431C10.9881 8.33201 13.6268 5.9063 16.2693 3.48489C16.3081 3.44941 16.3583 3.4195 16.3811 3.3752C16.423 3.29393 16.4484 3.20384 16.4807 3.11742C16.3915 3.09187 16.2929 3.02845 16.215 3.04863C16.0547 3.09012 15.894 3.15737 15.7535 3.24687C12.3092 5.4411 8.86744 7.63941 5.42604 9.83837C5.32937 9.90015 5.2464 9.9343 5.12229 9.89436C3.66229 9.42416 2.19901 8.96469 0.739107 8.49407C0.562482 8.43713 0.386691 8.35204 0.235573 8.24363C-0.0484944 8.03987 -0.082695 7.74156 0.171441 7.50067C0.357591 7.32422 0.582992 7.16763 0.818232 7.07228C2.04825 6.57367 3.28666 6.09667 4.52272 5.61357C9.2184 3.77857 13.9141 1.94353 18.6111 0.112197C18.7606 0.0539274 18.9235 0.0155767 19.0828 0.00309406C19.5053 -0.029945 19.8187 0.203294 19.9479 0.622231C19.9631 0.671577 19.9825 0.719648 20 0.768304V1.36587Z" fill="currentColor"></path>
    </g>
  </symbol>
  <symbol fill="none" xmlns="http://www.w3.org/2000/svg" viewBox="0 0 17 17" id="icon-dzen">
    <path d="M10.1393 10.1393C8.80357 11.5175 8.70643 13.2357 8.59107 17C12.1004 17 14.5229 16.9879 15.7736 15.7736C16.9879 14.5229 17 11.985 17 8.59107C13.2357 8.7125 11.5175 8.80357 10.1393 10.1393ZM0 8.59107C0 11.985 0.0121428 14.5229 1.22643 15.7736C2.47714 16.9879 4.89964 17 8.40893 17C8.2875 13.2357 8.19643 11.5175 6.86071 10.1393C5.4825 8.80357 3.76429 8.70643 0 8.59107ZM8.40893 0C4.90571 0 2.47714 0.0121428 1.22643 1.22643C0.0121428 2.47714 0 5.015 0 8.40893C3.76429 8.2875 5.4825 8.19643 6.86071 6.86071C8.19643 5.4825 8.29357 3.76429 8.40893 0ZM10.1393 6.86071C8.80357 5.4825 8.70643 3.76429 8.59107 0C12.1004 0 14.5229 0.0121428 15.7736 1.22643C16.9879 2.47714 17 5.015 17 8.40893C13.2357 8.2875 11.5175 8.19643 10.1393 6.86071Z" fill="currentColor"></path>
  </symbol>
  <symbol fill="none" xmlns="http://www.w3.org/2000/svg" viewBox="0 0 103 16" id="icon-whitemark">
    <path opacity="0.2" fill-rule="evenodd" clip-rule="evenodd" d="M90.8256 4.49587L90.2998 6.61157C89.9712 6.54545 89.577 6.47934 89.1826 6.47934C88.7226 6.47934 88.2625 6.54545 87.9339 6.67768V16L85.4365 15.4711V5.15702C86.488 4.76033 87.9339 4.42975 89.5112 4.42975C90.0369 4.42975 90.497 4.49587 90.8256 4.49587ZM81.4933 8.06612V14.281C80.9018 14.6116 79.3903 15.0083 77.8787 15.0083C74.8556 15.0083 73.344 13.8182 73.344 11.7686C73.344 8.99174 76.17 8.46281 79.1931 8.26446V7.73554C79.1931 6.67769 78.4701 6.28099 77.2871 6.28099C76.3671 6.28099 75.1841 6.61157 74.4612 6.87603L73.804 5.15702C74.6584 4.82645 76.0385 4.42975 77.4844 4.42975C80.0475 4.42975 81.4933 5.42149 81.4933 8.06612ZM52.8392 8.99174C52.9049 9.2562 52.9049 9.58678 52.8392 9.85124L46.3986 10.7107C46.5958 12.1653 47.713 12.9587 49.1589 12.9587C50.1447 12.9587 51.2619 12.6942 51.9191 12.2975L52.642 14.2149C51.7876 14.6777 50.4076 14.9422 48.9618 14.9422C45.6757 14.9422 43.9012 12.7603 43.9012 9.65289C43.9012 6.54545 45.61 4.36364 48.5674 4.36364C51.3277 4.36364 52.8392 6.21488 52.8392 8.99174ZM39.3666 4.6281H41.2724V6.54546H39.3666V11.5702C39.3666 12.3636 39.8923 12.6942 40.5495 12.6942C40.8124 12.6942 41.0752 12.6281 41.2724 12.562V14.6777C40.9438 14.7438 40.2866 14.876 39.6951 14.876C37.7892 14.876 36.8692 13.8182 36.8692 11.7025V6.54546H35.6204V4.6281H36.8692V2.38017L39.3666 1.65289V4.6281ZM20.3076 4.89256C20.8991 4.6281 21.6877 4.42975 22.4107 4.42975C24.7766 4.42975 26.091 5.61983 26.091 7.86777V14.7438H23.5936V8.13223C23.5936 7.00827 22.9364 6.47934 21.7534 6.47934C21.2277 6.47934 20.7019 6.61157 20.3076 6.87603V14.8099H17.8102V0H20.3076V4.89256ZM70.1237 7.80165V14.8099H67.6263V8C67.6263 7.00826 66.9691 6.41322 65.9833 6.41322C65.3261 6.41322 64.866 6.61157 64.4717 6.94215V14.7438H61.9087V7.86777C61.9087 6.94215 61.2514 6.41322 60.1341 6.41322C59.5427 6.41322 59.0827 6.47934 58.7541 6.67768V14.7438H56.2567V5.15702C57.3082 4.76033 58.6226 4.42975 60.0027 4.42975C61.6457 4.42975 62.6316 4.95868 63.2231 5.4876C63.8803 5.02479 65.0632 4.42975 66.5748 4.42975C68.8092 4.42975 70.1237 5.75206 70.1237 7.80165ZM3.94323 10.843C4.1404 11.5702 4.20612 12.4959 4.20612 12.4959H4.27178C4.27178 12.4959 4.40328 11.5702 4.60044 10.843L6.24339 4.6281H8.54367L10.1866 10.843C10.3838 11.5702 10.5153 12.4959 10.5153 12.4959C10.5153 12.4959 10.581 11.5702 10.7782 10.843L12.224 4.6281H14.7871L11.8297 14.7438H9.20088L7.68925 8.99174C7.49208 8.33058 7.42636 7.47107 7.42636 7.47107H7.3607C7.3607 7.47107 7.2292 8.33058 7.03204 8.99174L5.52053 14.7438H2.89171L0 4.6281H2.56304L3.94323 10.843ZM32.4002 14.7438H29.9028V4.6281H32.4002V14.7438ZM96.2804 9.05785H96.3461L99.6321 4.6281H102.59L98.9749 9.38843L102.787 14.7438H99.9608L96.3461 9.65289H96.2804V14.7438H93.7831V0H96.2804V9.05785ZM75.7756 11.6364C75.7756 12.562 76.4985 13.157 77.8129 13.157C78.3387 13.157 78.9959 13.0909 79.2588 12.9587V9.85124C77.4186 9.91735 75.7756 10.1157 75.7756 11.6364ZM46.2672 9.12397L50.4733 8.52893C50.4733 7.00827 49.6847 6.28099 48.5674 6.28099C47.253 6.28099 46.3329 7.27273 46.2672 9.12397Z" fill="currentColor"></path>
  </symbol>
  <symbol fill="none" xmlns="http://www.w3.org/2000/svg" viewBox="0 0 95 22" id="icon-sminex">
    <path d="M80.1257 21.6996L86.0428 14.5839L80.3428 6.409H83.4371C84.9571 6.409 84.74 7.03365 87.3728 10.8088L88.2686 12.1124L91.8514 6.59911C91.96 6.43615 92.15 6.38184 92.3129 6.38184H94.1586L88.7843 12.8457L95 21.6996H92.0957C90.1686 21.7267 90.5214 20.9391 87.97 17.3269L86.5585 15.3172L82.46 21.4551C82.3514 21.6181 82.1885 21.6724 81.9714 21.6724H80.1257V21.6996Z" fill="white"></path>
    <path d="M73.909 21.9998C71.819 21.9998 69.6476 21.4023 68.2905 19.7184C67.0147 18.1432 66.5533 16.1878 66.499 14.2052C66.4719 11.7337 67.0962 9.75107 68.399 8.25732C69.7019 6.76357 71.4933 6.03027 73.7733 6.03027C74.859 6.03027 75.8362 6.19323 76.6776 6.51914C77.5191 6.84505 78.1705 7.27959 78.6862 7.84993C79.2019 8.42027 79.5819 9.07209 79.8262 9.80538C80.0705 10.5387 80.2062 11.3535 80.2334 12.2225C80.2334 12.6842 80.2062 13.1188 80.1248 13.499C80.1248 13.5533 80.0705 13.5805 80.0434 13.5805H70.489C70.5433 16.052 70.9233 17.8173 71.629 18.9308C72.3348 20.0444 73.5019 20.5875 75.1576 20.5875C76.8676 20.5875 78.1976 20.0987 79.5005 19.0938C79.7176 19.2839 79.9619 19.7999 79.5005 20.2073C78.3062 21.2937 75.9719 21.9998 73.909 21.9998ZM70.4619 12.8472L76.6505 12.3855C76.6776 10.3214 76.5962 6.92652 73.8548 6.92652C70.9776 6.92652 70.5433 10.6473 70.4619 12.8472Z" fill="white"></path>
    <path d="M64.115 19.9344V10.9719C64.115 7.90297 62.9479 6.05615 59.935 6.05615C57.8179 6.05615 55.8093 7.06104 54.3707 8.55479C54.3707 7.35979 54.1807 6.38206 53.0135 6.38206H50.5707L50.7064 8.12024V19.9073L50.5707 21.6726H54.5335L54.3978 19.9073V9.36956C55.5378 8.50047 56.5964 8.06592 58.1164 8.06592C60.0436 8.06592 60.4236 9.85842 60.4236 11.841V19.6085C60.4236 20.9122 60.7221 21.6726 61.8079 21.6726H64.2507L64.115 19.9344Z" fill="white"></path>
    <path d="M46.7444 1.95545C46.7444 3.04182 45.8487 3.91091 44.763 3.91091C43.6773 3.91091 42.7816 3.04182 42.7816 1.95545C42.7816 0.86909 43.6773 0 44.763 0C45.8487 0 46.7444 0.86909 46.7444 1.95545Z" fill="white"></path>
    <path d="M42.9146 6.38263L43.0503 8.12081V19.9078L42.9146 21.6732H46.8774L46.7417 19.9078V8.41956C46.7417 7.25172 46.5246 6.35547 45.3574 6.35547H42.9146V6.38263Z" fill="white"></path>
    <path d="M39.1655 19.9344V10.9719C39.1655 7.87581 37.9983 6.05615 34.9855 6.05615C32.4612 6.05615 30.7512 7.33263 29.394 8.77206C28.9054 7.06104 27.7112 6.05615 25.4311 6.05615C23.2869 6.05615 21.5497 7.06104 20.1383 8.58195V8.55479C20.1383 7.35979 19.9483 6.38206 18.7811 6.38206H16.3383L16.474 8.12024V19.9073L16.3383 21.6726H20.3011L20.1654 19.9073V9.36956C21.2783 8.44615 22.6083 8.06592 23.6669 8.06592C25.7569 8.06592 25.974 10.2115 25.974 11.841V19.9073L25.8383 21.6726H29.8012L29.6655 19.9073V9.36956C30.6155 8.55479 31.9455 8.06592 33.194 8.06592C35.3655 8.06592 35.5012 10.4288 35.5012 11.841V19.6085C35.5012 21.0751 35.9083 21.6726 36.8855 21.6726H39.3283L39.1655 19.9344Z" fill="white"></path>
    <path d="M6.32437 21.9988C4.50579 21.9988 1.81863 21.4828 0.190055 20.5594C0.488628 19.8804 1.05863 19.3644 1.87292 19.799C3.33864 20.5594 4.80436 20.9125 6.43294 20.9125C8.76723 20.9125 10.4772 19.6089 10.3687 17.246C10.1244 12.3031 -0.0270886 11.5698 5.43336e-05 5.62193C0.0271973 1.24932 3.96293 0 7.7358 0C9.55438 0 11.3458 0.353068 13.1101 1.0592C12.8115 1.76534 12.2958 2.36284 11.4001 1.92829C10.1515 1.33079 8.90295 1.0592 7.57294 1.0592C5.26579 1.0592 3.96293 2.30852 3.96293 4.15534C3.93578 8.88102 14.2501 9.58715 14.4401 15.7251C14.5487 20.2064 10.803 21.9988 6.32437 21.9988Z" fill="white"></path>
  </symbol>
  <symbol fill="none" xmlns="http://www.w3.org/2000/svg" viewBox="0 0 82 19" id="icon-sminex-2">
    <path d="M69.1613 18.7406L74.2686 12.5952L69.3487 5.53493H72.0195C73.3315 5.53493 73.1441 6.07442 75.4166 9.33478L76.1897 10.4607L79.2823 5.69912C79.376 5.55839 79.54 5.51147 79.6806 5.51147H81.2737L76.6349 11.094L82 18.7406H79.4931C77.8297 18.764 78.1343 18.0838 75.932 14.9642L74.7138 13.2285L71.1761 18.5295C71.0824 18.6702 70.9418 18.7171 70.7544 18.7171H69.1613V18.7406Z" fill="white"></path>
    <path d="M63.7941 18.9998C61.9901 18.9998 60.1159 18.4838 58.9445 17.0295C57.8433 15.6691 57.445 13.9803 57.3982 12.268C57.3748 10.1335 57.9136 8.42122 59.0382 7.13115C60.1627 5.84107 61.709 5.20776 63.677 5.20776C64.6141 5.20776 65.4575 5.3485 66.1838 5.62997C66.9101 5.91144 67.4724 6.28673 67.9175 6.77931C68.3626 7.27188 68.6906 7.83482 68.9015 8.46813C69.1123 9.10144 69.2295 9.80512 69.2529 10.5557C69.2529 10.9545 69.2295 11.3297 69.1592 11.6581C69.1592 11.705 69.1123 11.7285 69.0889 11.7285H60.8422C60.889 13.863 61.217 15.3876 61.8261 16.3493C62.4353 17.311 63.4427 17.7801 64.8718 17.7801C66.3478 17.7801 67.4958 17.3579 68.6203 16.49C68.8078 16.6542 69.0186 17.0999 68.6203 17.4517C67.5895 18.39 65.5747 18.9998 63.7941 18.9998ZM60.8187 11.0952L66.1604 10.6964C66.1838 8.91379 66.1135 5.98181 63.7473 5.98181C61.2639 5.98181 60.889 9.19526 60.8187 11.0952Z" fill="white"></path>
    <path d="M55.3403 17.2167V9.47623C55.3403 6.82571 54.3328 5.23071 51.7323 5.23071C49.9049 5.23071 48.1712 6.09858 46.9295 7.38865C46.9295 6.3566 46.7655 5.51218 45.7581 5.51218H43.6495L43.7667 7.01336V17.1932L43.6495 18.7178H47.0701L46.9529 17.1932V8.09233C47.9369 7.34174 48.8506 6.96645 50.1626 6.96645C51.826 6.96645 52.154 8.51454 52.154 10.2268V16.9352C52.154 18.0611 52.4117 18.7178 53.3489 18.7178H55.4574L55.3403 17.2167Z" fill="white"></path>
    <path d="M40.3473 1.68882C40.3473 2.62706 39.5742 3.37765 38.637 3.37765C37.6999 3.37765 36.9268 2.62706 36.9268 1.68882C36.9268 0.750588 37.6999 0 38.637 0C39.5742 0 40.3473 0.750588 40.3473 1.68882Z" fill="white"></path>
    <path d="M37.041 5.51174L37.1582 7.01291V17.1928L37.041 18.7174H40.4615L40.3444 17.1928V7.27093C40.3444 6.26233 40.157 5.48828 39.1496 5.48828H37.041V5.51174Z" fill="white"></path>
    <path d="M33.8057 17.2167V9.47623C33.8057 6.80226 32.7983 5.23071 30.1978 5.23071C28.019 5.23071 26.543 6.33314 25.3716 7.5763C24.9498 6.09858 23.919 5.23071 21.951 5.23071C20.1002 5.23071 18.6008 6.09858 17.3825 7.41211V7.38865C17.3825 6.3566 17.2185 5.51218 16.2111 5.51218H14.1025L14.2197 7.01336V17.1932L14.1025 18.7178H17.5231L17.4059 17.1932V8.09233C18.3665 7.29483 19.5145 6.96645 20.4282 6.96645C22.2322 6.96645 22.4196 8.81946 22.4196 10.2268V17.1932L22.3024 18.7178H25.723L25.6058 17.1932V8.09233C26.4258 7.38865 27.5738 6.96645 28.6515 6.96645C30.5258 6.96645 30.6429 9.00711 30.6429 10.2268V16.9352C30.6429 18.2018 30.9943 18.7178 31.8378 18.7178H33.9463L33.8057 17.2167Z" fill="white"></path>
    <path d="M5.45884 18.9993C3.88915 18.9993 1.56974 18.5536 0.164045 17.7561C0.421756 17.1697 0.913751 16.724 1.6166 17.0993C2.88173 17.7561 4.14686 18.061 5.55256 18.061C7.56739 18.061 9.04337 16.9352 8.94966 14.8945C8.73881 10.6255 -0.0233814 9.99221 4.68978e-05 4.85537C0.0234752 1.07897 3.42058 0 6.67711 0C8.24681 0 9.79308 0.304927 11.3159 0.91478C11.0582 1.52463 10.6131 2.04066 9.83994 1.66537C8.76223 1.14934 7.68453 0.91478 6.53654 0.91478C4.54514 0.91478 3.42058 1.99375 3.42058 3.58875C3.39715 7.67007 12.2999 8.27993 12.4639 13.581C12.5576 17.4512 9.32451 18.9993 5.45884 18.9993Z" fill="white"></path>
  </symbol>
  <symbol fill="none" xmlns="http://www.w3.org/2000/svg" viewBox="0 0 366 366" id="icon-unique-decor-1">
    <g opacity="0.5">
      <path d="M0.40165 0C0.40165 0 48.5997 171.023 181.144 239.111C313.287 307.198 365.1 365.1 365.1 365.1C365.1 365.1 321.32 170.487 169.898 84.7075C74.3053 30.559 0 0.536135 0 0.536135" fill="#1F3834"></path>
    </g>
  </symbol>
  <symbol xmlns="http://www.w3.org/2000/svg" fill="none" viewBox="0 0 40 15" id="icon-burger">
    <path stroke="#fff" stroke-width="2" d="M0 1h40M0 14h40"></path>
  </symbol>
  <symbol xmlns="http://www.w3.org/2000/svg" fill="none" viewBox="0 0 824 802" id="icon-decor-2">
    <path fill="#1F3834" fill-rule="evenodd" d="M824 1.177c-33.916-.47-64.054-.739-89.391-.739-218.598 0-402.236 38.118-524.393 128.848C72.386 232.363-2.354 419.192.056 570.587c1.206 77.845 20.092 159.449 84.386 230.851-12.055-42.412-21.297-76.771-22.101-125.626-1.206-69.255 10.447-133.679 31.343-189.512 45.005-135.827 197.3-268.969 468.94-277.022 71.787-2.058 175.939 2.512 261.376 6.692V1.177Z" clip-rule="evenodd"></path>
  </symbol>
  <symbol xmlns="http://www.w3.org/2000/svg" fill="none" viewBox="0 0 824 1168" id="icon-decor">
    <g fill="#1F3834" opacity=".5">
      <path d="M124.507 802.354s48.198 171.023 180.743 239.106c132.142 68.09 183.955 125.99 183.955 125.99s-43.78-194.609-195.202-280.389c-95.592-54.148-169.898-84.171-169.898-84.171"></path>
      <path fill-rule="evenodd" d="M824 .739C790.084.268 759.946 0 734.609 0 516.011 0 332.373 38.124 210.216 128.871 72.386 231.967-2.354 418.829.056 570.252c1.206 77.859 20.092 159.477 84.386 230.893-12.055-42.42-21.297-76.785-22.101-125.649-1.206-69.268 10.447-133.703 31.343-189.547 45.005-135.851 197.3-269.017 468.94-277.071 71.787-2.059 175.939 2.512 261.376 6.692V.739Z" clip-rule="evenodd"></path>
    </g>
  </symbol>
  <symbol xmlns="http://www.w3.org/2000/svg" fill="none" viewBox="0 0 210 58" id="icon-logo">
    <g fill="#fff" clip-path="url(#a)">
      <path d="m78.86 51.99.558-.019c2.09-.053 3.49.882 3.702 2.627.035.303.053.597.035.864-.07 1.238-.761 1.968-2.054 2.2-.452.116-1.01.151-1.647.133l-1.444-.035h-1.195c.088-.713.115-1.826.115-3.34v-3.873c0-1.594-.035-2.69-.097-3.304h5.03v.828c-.435-.116-1.63-.187-3.587-.205-.053.766-.07 1.656-.07 2.672v6.598c.167 0 .424 0 .743.018.337.018.593.018.744.018.558 0 .974-.098 1.293-.303.62-.32.938-.917.938-1.763 0-.926-.354-1.612-.77-1.95-.69-.526-1.55-.597-2.054-.561l-.24-.624v.018ZM89.76 56.068c-.832 1.923-1.832 2.253-3.329 1.576a.301.301 0 0 1-.168-.347l.089-.383c.451.25.912.392 1.346.392.239 0 .469-.17.726-.508.247-.338.371-.695.354-1.05l-2.294-5.71c-.557-1.406-.991-2.332-1.275-2.795h1.771s.053.222.168.623l.523 1.559c.221.623.434 1.202.637 1.71l1.364 3.472 2.108-5.049c.407-.962.69-1.745.858-2.315h1.099a50.933 50.933 0 0 0-1.329 2.76l-2.639 6.065h-.008ZM96.844 56.014c.204-.454.372-1.015.523-1.71.319-1.371.522-3.66.522-6.447-.487 0-.938.053-.938.053v-.658h7.358c-.071.676-.097 2.012-.097 4.033v3.153c0 1.505.035 2.627.115 3.34h-1.399v-7.214c0-.24-.018-1.113-.071-2.654-.593-.035-2.001-.053-4.206-.053 0 5.673-.912 10.206-2.966 10.16-.425-.017-.727-.115-.93-.32l.186-.623.088.053a1.3 1.3 0 0 0 .576.152c.451-.018.841-.339 1.248-1.238M110.587 51.99l.558-.019c2.302-.053 3.754 1.114 3.754 3.233 0 1.3-.805 2.253-2.072 2.458-.451.116-.991.151-1.647.133l-1.452-.035h-1.195c.088-.713.115-1.826.115-3.34v-3.873a63.2 63.2 0 0 0-.089-3.304h1.479c-.088.712-.115 1.807-.115 3.303v6.6c.168 0 .416 0 .744.017.336.018.593.018.744.018.557 0 .974-.098 1.292-.303.656-.338.974-.935.974-1.763 0-.926-.354-1.612-.77-1.95-.629-.454-1.346-.561-1.859-.57a.324.324 0 0 1-.31-.223l-.151-.4v.017ZM118.601 50.226c0-1.033-.036-2.03-.115-3.001l1.7-.036c.602-.018 1.009-.036 1.213-.036 1.771 0 2.913.766 2.913 2.049 0 1.13-.691 1.825-2.09 2.083 2.019.134 3.33 1.256 3.33 3.064 0 .935-.372 1.745-1.098 2.44-.726.694-1.683 1.033-2.86 1.033-.089 0-.434-.018-1.063-.036a69.162 69.162 0 0 0-2.037-.035 68.61 68.61 0 0 0 .098-3.304v-4.23l.009.009Zm1.833.828h.248c.451 0 .912-.09 1.452-.303.558-.223.938-.748.938-1.443 0-.953-.593-1.451-1.788-1.522-.744 0-1.213 0-1.417.017 0 4.925.018 8.042.035 9.342l1.55.036c.726.018 1.364-.259 1.921-.81.558-.562.842-1.22.842-2.013 0-.962-.452-1.71-.992-2.066a2.976 2.976 0 0 0-.974-.437 4.981 4.981 0 0 0-1.417-.231.36.36 0 0 1-.345-.285l-.062-.276.009-.01ZM135.726 54.447a46.479 46.479 0 0 0 1.328 3.322h-1.682a51.359 51.359 0 0 0-1.01-3.322l-.487-1.425c-.15-.018-.557-.018-1.248-.018h-.912c-.469 0-.841.018-1.107.036l-.62 1.638a210.75 210.75 0 0 0-1.08 3.082h-.992a56.966 56.966 0 0 0 1.346-3.197l2.843-7.285 1.009-.098 2.612 7.267Zm-3.099-2.048c.558 0 .912 0 1.027-.018l-1.346-3.892-1.461 3.91h1.789-.009ZM142.536 52.212l-.151-.597.452.018c.283.018.743-.054 1.346-.267.619-.223 1.106-.882 1.106-1.781 0-1.15-.956-1.746-2.054-1.764-.15 0-.407 0-.744.018h-.761v6.617c0 1.104.035 2.2.115 3.304h-1.497c.071-1.425.098-2.52.098-3.304v-3.874c0-1.113-.036-2.235-.115-3.34h1.08c.115 0 .54-.017 1.249-.035.726-.036 1.16-.036 1.31 0 1.461.116 2.559.944 2.559 2.315 0 .766-.336 1.425-1.027 1.95-.673.526-1.567.758-2.656.749l-.319-.018.009.009ZM149.406 53.604l-.002.419 29.229.128.002-.419-29.229-.128ZM41.535 53.12l-.001.419 29.229.128.002-.419-29.23-.128ZM199.109 8.015s3.223 1.149 6.243-.544c3.01-1.692 4.657-1.968 4.657-1.968s-3.365-1.22-7.066.312c-2.444 1.015-3.825 2.2-3.825 2.2M2.745 13.287s1.063 2.84 3.985 3.971c2.913 1.131 4.055 2.093 4.055 2.093s-.965-3.232-4.303-4.657c-2.108-.9-3.746-1.399-3.746-1.399M121.771 39.228V25.674h-10.767v13.554h-3.126V9.849h3.126v12.922h10.767V9.849h3.135v29.379h-3.135ZM145.024 36.387l.496 1.71c-1.284 1.095-3.267 1.638-5.968 1.638-3.144 0-5.632-1.229-7.447-3.695-1.824-2.458-2.736-6.296-2.736-11.497 0-5.2.974-9.074 2.922-11.523 1.948-2.45 4.383-3.67 7.305-3.67 2.196 0 4.064.339 5.596 1.007l-.46 1.763a.966.966 0 0 1-1.275.66c-1.01-.357-2.196-.535-3.56-.535-2.116 0-3.843.988-5.198 2.956-1.346 1.968-2.027 5.085-2.027 9.342 0 3.972.681 7.017 2.045 9.128 1.364 2.11 3.223 3.17 5.596 3.17 1.355 0 2.595-.294 3.719-.89a.704.704 0 0 1 1.01.436M161.733 38.364l-7.739-12.735h-1.506v13.599h-3.126V9.849h3.126v13.688l1.461-.588 7.093-12.227c.31-.534.877-.864 1.496-.864h2.595L157.5 22.53l-1.461 1.345 1.709 1.683 8.474 13.687h-2.958c-.628 0-1.204-.33-1.531-.863M49.268 9.85c-.408 0-.78.222-.974.578L37.765 29.2l-1.46 3.945h-.169l.292-3.776V9.85h-3.666v.615c0 .632.204 1.22.54 1.7v27.072h2.09L46.204 20.1l1.461-3.945h.124l-.248 3.865v18.514c0 .392.31.703.7.703h2.426V9.85h-1.4ZM101.139 9.85a1.11 1.11 0 0 0-.974.578L89.637 29.2l-1.461 3.945h-.169l.292-3.776V9.85h-3.665v.615c0 .632.203 1.22.54 1.7v27.072h2.09L98.075 20.1l1.461-3.945h.124l-.248 3.865v18.514c0 .392.31.703.7.703h2.426V9.85H101.139ZM185.906 9.85c-.408 0-.78.222-.974.578L174.403 29.2l-1.461 3.945h-.168l.292-3.776V9.85H169.4v.615c0 .632.204 1.22.541 1.7v27.072h2.089L182.842 20.1l1.461-3.945h.124l-.248 3.865v18.514c0 .392.31.703.7.703h2.426V9.85H185.906ZM208.61 9.85a1.11 1.11 0 0 0-.974.578L197.108 29.2l-1.461 3.945h-.168l.292-3.776V9.85h-3.666v.615c0 .632.204 1.22.54 1.7v27.072h2.09L205.546 20.1l1.462-3.945h.123l-.247 3.865v18.514c0 .392.309.703.699.703h2.426V9.85H208.61Z"></path>
      <path d="M41.237.276C35.995.392 21.429 0 16.187 0 11.37 0 7.323.632 4.63 2.137c-3.037 1.71-4.684 4.81-4.63 7.32.026 1.292.442 2.645 1.859 3.83-.266-.704-.47-1.274-.487-2.084a6.69 6.69 0 0 1 .69-3.144c.992-2.253 4.348-4.461 10.334-4.595 2.063-.044 5.34.098 7.332.17v35.594h3.134V3.696l3.055.044c1.904.036 6.765-.035 8.59-.222 1.567-.16 4.79-.615 6.596-1.95.354-.259.602-.758.602-.909 0-.25.089-.4-.469-.392v.01ZM79.826 9.85h-3.125v26.483h-7.217V9.85h-3.135v26.484h-7.216V9.85h-3.126v28.675c0 .392.31.704.7.704h23.128V9.849h-.009ZM78.86 51.99l.558-.019c2.09-.053 3.489.882 3.701 2.627.036.303.054.597.036.864-.07 1.238-.762 1.968-2.054 2.2-.452.116-1.01.151-1.647.133l-1.444-.035h-1.195c.088-.713.115-1.826.115-3.34v-3.873c0-1.594-.035-2.69-.097-3.304h5.03v.828c-.435-.116-1.63-.187-3.587-.205-.053.766-.07 1.656-.07 2.672v6.598c.167 0 .424 0 .743.018.336.018.593.018.744.018.558 0 .974-.098 1.293-.303.62-.32.938-.917.938-1.763 0-.926-.354-1.612-.77-1.95-.69-.526-1.55-.597-2.055-.561l-.239-.624v.018ZM89.76 56.068c-.832 1.923-1.832 2.253-3.329 1.576a.301.301 0 0 1-.168-.347l.088-.383c.452.25.912.392 1.346.392.24 0 .47-.17.727-.508.247-.338.371-.695.354-1.05l-2.294-5.71c-.557-1.406-.991-2.332-1.275-2.795h1.771s.053.222.168.623l.523 1.559c.221.623.434 1.202.637 1.71l1.364 3.472 2.108-5.049c.407-.962.69-1.745.858-2.315h1.098a51.008 51.008 0 0 0-1.328 2.76l-2.639 6.065h-.008ZM96.844 56.014c.204-.454.372-1.015.523-1.71.319-1.371.522-3.66.522-6.447-.487 0-.938.053-.938.053v-.658h7.358c-.071.676-.097 2.012-.097 4.033v3.153c0 1.505.035 2.627.115 3.34h-1.399v-7.214c0-.24-.018-1.113-.071-2.654-.593-.035-2.001-.053-4.206-.053 0 5.673-.912 10.206-2.967 10.16-.425-.017-.726-.115-.93-.32l.187-.623.088.053a1.3 1.3 0 0 0 .576.152c.451-.018.84-.339 1.248-1.238M110.587 51.99l.558-.019c2.302-.053 3.754 1.114 3.754 3.233 0 1.3-.805 2.253-2.072 2.458-.451.116-.991.151-1.647.133l-1.452-.035h-1.195c.088-.713.115-1.826.115-3.34v-3.873a63.2 63.2 0 0 0-.089-3.304h1.479c-.089.712-.115 1.807-.115 3.303v6.6c.168 0 .416 0 .744.017.336.018.593.018.744.018.557 0 .974-.098 1.292-.303.656-.338.974-.935.974-1.763 0-.926-.354-1.612-.77-1.95-.629-.454-1.346-.561-1.86-.57a.324.324 0 0 1-.309-.223l-.151-.4v.017ZM118.601 50.226c0-1.033-.036-2.03-.116-3.001l1.701-.036c.602-.018 1.009-.036 1.213-.036 1.771 0 2.913.766 2.913 2.049 0 1.13-.691 1.825-2.09 2.083 2.019.134 3.33 1.256 3.33 3.064 0 .935-.372 1.745-1.098 2.44-.726.694-1.683 1.033-2.86 1.033-.089 0-.434-.018-1.063-.036a69.162 69.162 0 0 0-2.037-.035 68.61 68.61 0 0 0 .098-3.304v-4.23l.009.009Zm1.833.828h.247c.452 0 .912-.09 1.453-.303.557-.223.938-.748.938-1.443 0-.953-.593-1.451-1.788-1.522-.744 0-1.214 0-1.417.017 0 4.925.018 8.042.035 9.342l1.55.036c.726.018 1.363-.259 1.921-.81.558-.562.842-1.22.842-2.013 0-.962-.452-1.71-.992-2.066a2.976 2.976 0 0 0-.974-.437 4.981 4.981 0 0 0-1.417-.231.36.36 0 0 1-.345-.285l-.062-.276.009-.01ZM135.726 54.447a46.479 46.479 0 0 0 1.328 3.322h-1.682a51.359 51.359 0 0 0-1.01-3.322l-.487-1.425c-.15-.018-.557-.018-1.248-.018h-.912c-.47 0-.841.018-1.107.036l-.62 1.638a210.75 210.75 0 0 0-1.08 3.082h-.992a56.966 56.966 0 0 0 1.346-3.197l2.842-7.285 1.01-.098 2.612 7.267Zm-3.099-2.048c.558 0 .912 0 1.027-.018l-1.346-3.892-1.461 3.91h1.789-.009ZM142.536 52.212l-.151-.597.452.018c.283.018.743-.054 1.346-.267.619-.223 1.106-.882 1.106-1.781 0-1.15-.956-1.746-2.054-1.764-.15 0-.407 0-.744.018h-.761v6.617c0 1.104.035 2.2.115 3.304h-1.497c.071-1.425.098-2.52.098-3.304v-3.874c0-1.113-.036-2.235-.115-3.34h1.08c.115 0 .54-.017 1.248-.035.727-.036 1.16-.036 1.311 0 1.461.116 2.559.944 2.559 2.315 0 .766-.336 1.425-1.027 1.95-.673.526-1.567.758-2.657.749l-.318-.018.009.009ZM149.406 53.604l-.002.419 29.229.128.002-.418-29.229-.129ZM41.535 53.12l-.001.42 29.229.127.002-.419-29.23-.127ZM199.109 8.015s3.223 1.149 6.243-.544c3.01-1.692 4.657-1.968 4.657-1.968s-3.365-1.22-7.066.312c-2.444 1.015-3.825 2.2-3.825 2.2M121.771 39.228V25.674h-10.767v13.554h-3.126V9.849h3.126v12.922h10.767V9.849h3.135v29.379h-3.135ZM145.024 36.387l.496 1.71c-1.284 1.095-3.267 1.638-5.968 1.638-3.144 0-5.632-1.229-7.447-3.695-1.824-2.458-2.736-6.296-2.736-11.497 0-5.2.974-9.074 2.922-11.523 1.948-2.45 4.383-3.67 7.305-3.67 2.196 0 4.064.339 5.596 1.007l-.46 1.763a.966.966 0 0 1-1.275.66c-1.01-.357-2.196-.535-3.56-.535-2.116 0-3.843.988-5.198 2.956-1.346 1.968-2.027 5.085-2.027 9.342 0 3.972.681 7.017 2.045 9.128 1.364 2.11 3.223 3.17 5.596 3.17 1.355 0 2.595-.294 3.719-.89a.704.704 0 0 1 1.01.436M161.733 38.364l-7.739-12.735h-1.506v13.599h-3.126V9.849h3.126v13.688l1.461-.588 7.093-12.227c.31-.534.877-.864 1.496-.864h2.595L157.5 22.53l-1.461 1.345 1.709 1.683 8.474 13.687h-2.958c-.628 0-1.204-.33-1.531-.863"></path>
      <path d="M49.268 9.85c-.408 0-.78.222-.974.578L37.765 29.2l-1.46 3.945h-.169l.292-3.776V9.85h-3.666v.615c0 .632.204 1.22.54 1.7v27.072h2.09L46.204 20.1l1.461-3.945h.124l-.248 3.865v18.514c0 .392.31.703.7.703h2.426V9.85h-1.4ZM101.139 9.85a1.11 1.11 0 0 0-.974.578L89.637 29.2l-1.461 3.945h-.169l.292-3.776V9.85h-3.665v.615c0 .632.203 1.22.54 1.7v27.072h2.09L98.075 20.1l1.461-3.945h.124l-.248 3.865v18.514c0 .392.31.703.7.703h2.426V9.85H101.139ZM185.906 9.85c-.408 0-.78.222-.974.578L174.403 29.2l-1.461 3.945h-.168l.292-3.776V9.85H169.4v.615c0 .632.204 1.22.541 1.7v27.072h2.089L182.842 20.1l1.461-3.945h.124l-.248 3.865v18.514c0 .392.31.703.7.703h2.426V9.85H185.906ZM208.61 9.85a1.11 1.11 0 0 0-.974.578L197.108 29.2l-1.461 3.945h-.168l.292-3.776V9.85h-3.666v.615c0 .632.204 1.22.54 1.7v27.072h2.09L205.546 20.1l1.462-3.945h.123l-.247 3.865v18.514c0 .392.309.703.699.703h2.426V9.85H208.61ZM2.745 13.287s1.063 2.84 3.985 3.971c2.913 1.131 4.056 2.093 4.056 2.093s-.966-3.232-4.304-4.657c-2.107-.9-3.745-1.399-3.745-1.399"></path>
      <path d="M41.237.276C35.995.392 21.429 0 16.187 0 11.37 0 7.323.632 4.63 2.137c-3.037 1.71-4.684 4.81-4.63 7.32.026 1.292.442 2.645 1.859 3.83-.266-.704-.47-1.274-.487-2.084a6.69 6.69 0 0 1 .69-3.144c.992-2.253 4.348-4.461 10.334-4.595 2.063-.044 5.34.098 7.332.17v35.594h3.134V3.696l3.055.044c1.904.036 6.765-.035 8.59-.222 1.567-.16 4.79-.615 6.596-1.95.354-.259.602-.758.602-.909 0-.25.089-.4-.469-.392v.01ZM79.826 9.85h-3.125v26.483h-7.217V9.85h-3.135v26.484h-7.216V9.85h-3.126v28.675c0 .392.31.704.7.704h23.128V9.849h-.009Z"></path>
    </g>
    <defs>
      <clipPath id="a">
        <path fill="#fff" d="M0 0h210v58H0z"></path>
      </clipPath>
    </defs>
  </symbol>
  <symbol xmlns="http://www.w3.org/2000/svg" fill="none" viewBox="0 0 24 24" id="icon-phone">
    <path stroke="#fff" d="m17.634 15.545.004.001c1.419.47 2.915.707 4.436.707.786 0 1.426.64 1.426 1.426v4.395c0 .786-.64 1.426-1.426 1.426C10.178 23.5.5 13.822.5 1.926.5 1.14 1.14.5 1.926.5h4.407c.786 0 1.426.64 1.426 1.426 0 1.521.238 3.015.708 4.44a1.44 1.44 0 0 1-.354 1.458l-.028.027-.023.032-.966 1.322-.184.253.146.276c1.695 3.195 3.99 5.49 7.207 7.207l.278.149.254-.188 1.392-1.027.033-.024.029-.03c.122-.125.335-.244.604-.304.266-.06.544-.052.779.028Z"></path>
  </symbol>
  <symbol xmlns="http://www.w3.org/2000/svg" fill="none" viewBox="0 0 135 133" id="icon-unique-1">
    <path fill="#EB3702" d="M131.455 4.47c-17.089 28.143-64.52 5.443-112.383 41.028a.737.737 0 0 1-1.027-.138.713.713 0 0 1 .14-1.005c16.15-12.483 35.963-19.778 56.154-22.976 14.787-2.837 30.623-2.107 44.199-8.734 4.291-2.256 7.739-5.686 10.215-9.783 1.081-1.726 3.794-.17 2.702 1.62V4.47Z"></path>
    <path fill="#EB3702" d="M68.492 46.874c3.102-2.71 11.512-11.381 3.719-20.19-.465-.519-1.373-.339-1.59.296-.918 2.71-1.47 5.665-1.729 8.82-.043.55-.908.571-.983.02a27.702 27.702 0 0 1-.011-7.739c.108-.815-.984-1.291-1.578-.677-4.313 4.404-6.162 9.656.335 19.237.4.593 1.275.71 1.826.233h.011ZM53.072 50.103c2.767-2.54 10.182-10.735 2.605-19.64-.443-.529-1.286-.38-1.46.233-.734 2.626-1.123 5.506-1.231 8.576-.022.54-.822.53-.92 0a28.712 28.712 0 0 1-.334-7.58c.075-.794-.962-1.292-1.492-.72-3.816 4.16-5.296 9.232 1.113 18.856.39.593 1.211.741 1.697.286l.022-.01ZM38.622 55.61c2.605-2.394 9.587-10.175 2.313-19.28-.433-.54-1.222-.435-1.384.169-.68 2.562-1.016 5.378-1.102 8.406-.011.53-.768.487-.865-.042a29.55 29.55 0 0 1-.378-7.496c.064-.784-.93-1.324-1.416-.773-3.59 3.949-4.962 8.893 1.21 18.655.379.604 1.157.773 1.61.36h.012ZM25.958 61.188c2.464-2.213 9.08-9.36 2.475-17.501-.389-.477-1.124-.37-1.286.18-.67 2.33-1.038 4.891-1.167 7.634-.022.487-.725.455-.811-.032a25.95 25.95 0 0 1-.227-6.787c.065-.71-.843-1.186-1.308-.678-3.405 3.632-4.756 8.132.81 16.888.347.54 1.06.688 1.492.296h.022ZM52.015 2.258c4.67.465 18.365 2.964 19.046 16.252.043.783-.832 1.217-1.524.762-2.897-1.916-5.686-4.288-8.399-7.03-.475-.487-1.2.063-.821.624a39.576 39.576 0 0 0 6.129 7.179c.735.677.227 1.842-.735 1.673-6.994-1.24-12.658-4.892-15.003-18.052-.141-.805.475-1.493 1.297-1.408h.01ZM33.457 11.818c4.086-.571 16.344-1.26 20.376 10.112.237.666-.39 1.228-1.092.984-2.951-1.048-5.934-2.53-8.95-4.34-.53-.318-.994.306-.53.709a37.555 37.555 0 0 0 7.07 4.933c.8.434.67 1.546-.195 1.6-6.259.38-12.01-1.6-17.414-12.505-.335-.667.011-1.397.735-1.493ZM17.07 20.956c3.89-1.154 15.716-3.653 21.337 6.691.335.615-.195 1.24-.92 1.112-3.026-.572-6.16-1.546-9.36-2.848-.562-.233-.93.445-.41.762a37.022 37.022 0 0 0 7.609 3.695c.843.297.886 1.387.054 1.567-6.032 1.303-11.923.255-18.808-9.444-.421-.593-.194-1.344.486-1.546l.011.011ZM14.584 45.19c.735-.127 1.178.456.778 1.017-1.686 2.35-3.816 4.69-6.302 7.009-.432.413.108.868.616.519 2.378-1.588 4.562-3.367 6.529-5.379.605-.625 1.73-.392 1.6.328-.898 5.262-4.119 9.858-16.42 13.214-.756.2-1.426-.16-1.383-.773.26-3.473 2.086-13.785 14.582-15.945v.01ZM23.935 34.073c.476.403.314 1.08-.28 1.176-2.487.434-5.2.56-8.086.455-.508-.021-.53.635-.022.752 2.335.529 4.691.783 7.091.762.746 0 1.178.879.616 1.27-4.053 2.86-8.863 3.748-17.64-2.138-.54-.36-.649-1.038-.206-1.408 2.497-2.107 10.453-7.666 18.516-.869h.011ZM112.77 27.33c-7.609 4.668-9.133 14.684-6.615 22.636 1.589 4.976 3.167 10.47 4.173 15.563 2.853 14.071 3.221 28.735.021 42.785a.737.737 0 0 1-.875.551.722.722 0 0 1-.562-.858c1.491-6.914 2.151-13.997 2.021-21.059-.173-10.609-2.043-21.154-5.113-31.318-3.221-8.756-4.961-18.518 1.492-26.395.908-1.006 4.648-5.442 5.923-3.494.357.561.13 1.302-.465 1.599v-.01Z"></path>
    <path fill="#EB3702" d="M84.552 66.101c1.146-4.023 5.513-15.574 17.543-13.139a.901.901 0 0 1 .454 1.525c-2.162 2.128-4.734 4.055-7.62 5.823-.508.307-.13 1.07.432.868a32.237 32.237 0 0 0 7.394-3.79c.724-.498 1.686.222 1.383 1.037-2.205 5.908-6.356 10.08-18.527 9.148-.746-.053-1.264-.762-1.07-1.472h.01ZM88.638 81.061c1.146-3.642 5.513-14.102 17.543-11.9.714.127.962.921.454 1.376-2.162 1.927-4.734 3.674-7.62 5.273-.508.286-.13.974.432.783a33.624 33.624 0 0 0 7.394-3.43c.724-.455 1.686.201 1.383.932-2.205 5.347-6.356 9.137-18.527 8.29-.746-.053-1.264-.688-1.07-1.334l.01.01ZM90.09 96.297c1.08-3.441 5.253-13.32 17.327-11.477.713.106.983.847.475 1.281-2.129 1.842-4.669 3.526-7.523 5.082-.497.275-.108.91.443.73a34.138 34.138 0 0 0 7.329-3.356c.713-.434 1.686.16 1.394.847-2.108 5.05-6.183 8.672-18.375 8.11-.746-.031-1.276-.624-1.092-1.228l.022.01ZM90.66 110.03c.962-3.219 4.713-12.472 15.565-10.747.638.106.886.795.432 1.207-1.913 1.726-4.194 3.304-6.755 4.754-.454.254-.098.858.4.688a30.163 30.163 0 0 0 6.582-3.133c.638-.403 1.514.148 1.254.794-1.891 4.732-5.556 8.12-16.505 7.591-.67-.032-1.146-.582-.984-1.154h.01ZM134.815 58.489c-2.616-3.822-11.371-14.473-24.374-8.534-.768.35-.779 1.324-.022 1.694 3.167 1.578 6.734 2.827 10.615 3.833.681.18.497 1.07-.217 1.017a42.576 42.576 0 0 1-9.706-1.8c-.995-.307-1.859.709-1.254 1.46 4.442 5.453 10.55 8.577 24.202 4.151.843-.275 1.199-1.143.745-1.821h.011ZM134.32 79.283c-1.351-3.822-6.388-14.802-19.132-12.705-.757.127-.995.942-.433 1.429 2.378 2.043 5.178 3.907 8.302 5.632.551.308.173 1.017-.433.816a38.203 38.203 0 0 1-7.998-3.706c-.79-.476-1.784.18-1.438.953 2.54 5.611 7.102 9.624 20.04 8.957.789-.042 1.319-.699 1.081-1.366l.011-.01ZM133.203 97.97c-.703-3.94-3.816-15.427-16.311-15.226-.735.01-1.092.784-.627 1.334 1.956 2.35 4.345 4.585 7.069 6.713.476.38 0 1.016-.54.73a36.156 36.156 0 0 1-7.069-4.785c-.681-.583-1.741-.085-1.525.72 1.557 5.865 5.297 10.46 17.771 11.678.767.074 1.372-.487 1.254-1.186l-.022.021ZM111.215 112.031c-.216-.699-.984-.794-1.33-.18-1.459 2.626-2.702 5.611-3.772 8.904-.184.582-.875.328-.789-.286a40.727 40.727 0 0 1 2.097-8.3c.313-.837-.422-1.694-1.059-1.229-4.616 3.367-7.502 8.407-4.983 20.731.151.752.821 1.154 1.372.815 3.2-1.927 12.204-8.576 8.453-20.476l.011.021ZM117.486 98.468c-.605-.212-1.178.254-.994.815.745 2.372 1.88 4.786 3.329 7.231.259.434-.357.773-.703.392a28.328 28.328 0 0 1-4.032-5.781c-.335-.646-1.383-.593-1.502.085-.843 4.913.54 9.529 10.236 14.251.595.286 1.297.042 1.449-.519.854-3.197 2.453-12.832-7.783-16.485v.01Z"></path>
    <path fill="#EB3702" d="M131.707 4.3c-4.519 10.726-12.171 14.517-22.224 18.953-20.58 9.105-28.763 21.016-33.573 42.191-2.27 9.296-6.302 18.677-13.76 25.178a.745.745 0 0 1-1.038-.032.7.7 0 0 1 .043-1.016c3.438-3.25 6.302-7.041 8.345-11.255 4.216-8.576 5.07-18.232 8.399-27.21 4.734-14.029 16.83-24.564 30.298-30.493 8.647-3.854 17.035-8.396 20.267-17.575.811-2.223 4.226-.964 3.243 1.26Z"></path>
    <path fill="#EB3702" d="M81.038 99.791C74.64 81.2 73.614 60.024 82.66 42.078c.475-.963 2.01-.264 1.502.731-6.604 13.076-7.912 28.163-5.329 42.425.822 4.775 2.076 9.486 3.6 14.102.292.868-1.103 1.366-1.405.445l.01.01Z"></path>
    <path fill="#EB3702" d="M48.695 80.373C65.18 78.18 73.815 70.346 77.33 55.3L48.695 80.373ZM74.523 52.93c-3.73 6.247-11.966 6.596-18.452 7.03-6.453.424-13.068 1.292-18.472 4.945-.779.53-1.633-.635-.833-1.186 8.367-6.014 19.295-4.605 28.807-6.712 3.07-.763 5.761-2.457 7.307-5.061.637-1.07 2.324-.096 1.643.974v.01Z"></path>
    <path fill="#EB3702" d="M45.375 72.54s.778-11.404 13.479-13.638L45.375 72.54ZM122.943 31.098c-3.361-.455-6.474 1.853-6.939 5.146-.465 3.293 1.891 6.342 5.253 6.797 3.362.456 6.475-1.853 6.94-5.145.464-3.293-1.892-6.342-5.254-6.798Zm-.713 8.396c.011.763-.216 1.356-.638 1.45-.421.096-.897-.317-1.243-1.005-.778.01-1.383-.212-1.481-.625-.097-.402.325-.878 1.027-1.217-.011-.763.216-1.355.638-1.45.411-.096.897.317 1.243 1.005.778-.01 1.383.212 1.481.625.097.402-.325.879-1.027 1.217ZM121.24 122.184c-2.983.064-5.35 2.478-5.286 5.4.065 2.922 2.53 5.241 5.513 5.177 2.983-.063 5.351-2.477 5.286-5.399-.065-2.922-2.53-5.241-5.513-5.178Zm-.443 5.093c.119.657 0 1.207-.346 1.345-.346.137-.821-.159-1.221-.699-.671.116-1.233 0-1.373-.339-.141-.339.162-.805.713-1.196-.119-.657 0-1.207.346-1.345.346-.138.822.159 1.222.699.67-.117 1.232 0 1.372.339.141.338-.162.804-.713 1.196ZM99.154 6.038c-1.978-2.71-5.816-3.335-8.583-1.408-2.767 1.937-3.405 5.696-1.438 8.407 1.979 2.71 5.816 3.335 8.583 1.408 2.767-1.938 3.405-5.697 1.438-8.407Zm-5.113 5.146c-.238.349-.876.37-1.61.106-.563.529-1.157.772-1.514.55-.357-.222-.378-.857-.108-1.578-.54-.55-.79-1.132-.562-1.482.227-.35.875-.37 1.61-.106.562-.529 1.157-.773 1.514-.55.356.222.378.857.108 1.577.54.55.789 1.133.562 1.483ZM131.117 18.425c-2.302-.307-4.421 1.26-4.734 3.515-.314 2.255 1.286 4.33 3.589 4.637 2.302.307 4.421-1.26 4.734-3.515.313-2.255-1.286-4.33-3.589-4.637Zm.465 6.162c-.659 0-1.2-.53-1.2-1.175 0-.646.541-1.176 1.2-1.176.66 0 1.2.53 1.2 1.176 0 .645-.54 1.175-1.2 1.175ZM96.86 41.115c-1.967-1.207-4.55-.635-5.793 1.292-1.232 1.927-.648 4.457 1.319 5.675 1.967 1.217 4.55.635 5.793-1.292 1.233-1.927.649-4.457-1.318-5.675Zm-1.696 2.71a1.2 1.2 0 0 1-1.59.583c-.605-.276-.875-.964-.594-1.557a1.204 1.204 0 0 1 1.59-.582c.605.275.875.964.594 1.556ZM131.369 122.163c1.886 0 3.416-1.498 3.416-3.346 0-1.847-1.53-3.345-3.416-3.345-1.887 0-3.416 1.498-3.416 3.345 0 1.848 1.529 3.346 3.416 3.346ZM33.963 7.732c1.886 0 3.415-1.498 3.415-3.345 0-1.848-1.529-3.346-3.415-3.346-1.887 0-3.416 1.498-3.416 3.346 0 1.847 1.53 3.345 3.416 3.345ZM112.665 1.93c-2.194-.74-4.583.392-5.34 2.541-.756 2.15.4 4.49 2.595 5.23 2.194.742 4.583-.391 5.339-2.54.757-2.15-.4-4.49-2.594-5.23Zm-1.319 4.934c-.129.635-.756 1.048-1.416.921a1.168 1.168 0 0 1-.94-1.387c.13-.645.757-1.048 1.416-.92.649.126 1.07.74.94 1.386ZM82.564 4.45C82.327 2.195 80.262.543 77.96.787c-2.303.232-3.989 2.255-3.74 4.51.237 2.255 2.302 3.907 4.604 3.663 2.303-.233 3.989-2.255 3.74-4.51Zm-5.112.921c-.649.159-1.297-.233-1.449-.858a1.165 1.165 0 0 1 .876-1.418c.648-.16 1.297.233 1.448.857a1.165 1.165 0 0 1-.875 1.419ZM27.017 10.198c-.237-2.255-2.302-3.906-4.604-3.663-2.303.233-3.989 2.255-3.74 4.51.238 2.256 2.302 3.907 4.605 3.664 2.302-.233 3.988-2.255 3.74-4.51Zm-5.112.922c-.649.158-1.297-.233-1.449-.858a1.165 1.165 0 0 1 .876-1.419c.638-.148 1.297.233 1.448.858a1.178 1.178 0 0 1-.875 1.419ZM5.86 18.245c-2.314-.201-4.357 1.461-4.562 3.727-.205 2.266 1.492 4.267 3.805 4.468 2.313.201 4.356-1.461 4.561-3.727.206-2.266-1.491-4.267-3.804-4.468Zm.756 6.14a1.188 1.188 0 0 1-1.254-1.121c-.032-.657.476-1.197 1.146-1.229a1.182 1.182 0 0 1 1.254 1.123c.032.656-.476 1.196-1.146 1.228ZM11.687 4.661C9.71 1.951 5.872 1.326 3.105 3.253.348 5.191-.3 8.95 1.678 11.66c1.978 2.71 5.815 3.335 8.582 1.408 2.768-1.938 3.405-5.696 1.438-8.407h-.01ZM6.574 9.807c-.237.35-.875.37-1.61.106-.562.53-1.157.773-1.513.55-.357-.222-.379-.857-.109-1.577-.54-.55-.789-1.133-.562-1.482.227-.35.876-.371 1.611-.106.562-.53 1.157-.773 1.513-.55.357.221.379.857.108 1.577.54.55.79 1.133.562 1.482ZM33.49 101.156c.304-.127.412-.603.304-1.196.497-.35.767-.762.637-1.059-.13-.296-.616-.402-1.221-.296-.357-.487-.778-.752-1.081-.625-.303.127-.41.603-.303 1.196-.497.35-.767.763-.637 1.059.13.297.616.402 1.221.297.357.487.778.751 1.08.624ZM77.617 116.118c.346-.138.465-.688.346-1.345.562-.392.865-.858.714-1.196-.152-.339-.703-.456-1.373-.339-.4-.551-.876-.847-1.222-.699-.345.148-.464.688-.345 1.345-.563.391-.865.857-.714 1.196.151.339.703.455 1.373.339.4.55.876.847 1.221.699ZM54.565 111.544c.4.169.962-.159 1.438-.784.778.159 1.426.032 1.61-.349.184-.381-.162-.943-.8-1.408.162-.763.033-1.398-.356-1.578-.39-.18-.962.159-1.438.784-.778-.159-1.427-.032-1.61.349-.184.381.162.942.8 1.408-.163.762-.033 1.398.356 1.578ZM15.62 92.665c.4.17.962-.159 1.437-.784.779.16 1.427.032 1.611-.349.184-.381-.162-.942-.8-1.408.162-.762.033-1.398-.357-1.578-.389-.18-.962.16-1.437.784-.779-.159-1.427-.032-1.61.35-.185.38.161.941.8 1.407-.163.763-.033 1.398.356 1.578ZM22.913 117.673c.379-.349.26-1.112-.238-1.916.53-.784.692-1.536.325-1.906-.368-.371-1.135-.254-1.957.233-.8-.519-1.567-.678-1.945-.318-.379.36-.26 1.112.237 1.916-.53.784-.691 1.536-.324 1.906.368.371 1.135.254 1.957-.233.8.519 1.567.678 1.945.318ZM24.285 75.503c-.4.17-.962-.159-1.438-.783-.778.159-1.427.031-1.61-.35-.184-.38.162-.942.8-1.408-.163-.762-.033-1.397.356-1.577.39-.18.962.158 1.438.783.778-.159 1.427-.032 1.61.35.184.38-.162.942-.8 1.408.163.762.033 1.397-.356 1.577ZM41.418 84.82c-.152-.402-.79-.55-1.579-.445-.443-.646-.983-1.016-1.394-.857-.41.158-.562.772-.454 1.545-.66.434-1.038.964-.876 1.366.163.403.79.55 1.579.445.443.646.983 1.016 1.394.858.41-.16.562-.773.454-1.546.66-.434 1.038-.964.876-1.366ZM44.379 116.636c-.152-.402-.79-.55-1.579-.445-.443-.645-.983-1.016-1.394-.857-.41.159-.562.773-.454 1.546-.66.434-1.038.963-.875 1.365.162.403.788.551 1.578.445.443.646.983 1.017 1.394.858.41-.159.562-.773.454-1.546.66-.434 1.038-.964.876-1.366Z"></path>
    <path fill="#EB3702" d="M83.92 117.409a6.187 6.187 0 0 1-3.675 4.214c-3.21 1.312-6.886-.18-8.226-3.314-1.34-3.145.184-6.745 3.383-8.058a6.43 6.43 0 0 1 2.4-.476c-.865-2.615-3.373-4.51-6.335-4.51h-.183c0-.085.01-.17.01-.254 0-5.802-6.658-9.01-11.306-6.088-.01-3.886-4.042-6.438-7.599-5.157.065-4.478-3.837-8.035-8.377-7.654a6.05 6.05 0 0 1-1.827 4.076c-2.453 2.403-6.442 2.403-8.895 0a6.077 6.077 0 0 1 0-8.714c.41-.402.864-.73 1.35-1.005 3.578-5.188-.972-12.504-7.371-11.636.68.984 1.08 2.17 1.08 3.451 0 3.399-2.81 6.162-6.29 6.162s-6.291-2.752-6.291-6.162c0-1.45.519-2.784 1.373-3.843-.692-2.721-3.2-4.743-6.194-4.743-3.524 0-6.388 2.805-6.388 6.257 0 .752.14 1.472.389 2.139-2.26.942-3.837 3.134-3.837 5.696 0 1.704.702 3.25 1.837 4.372a5.142 5.142 0 0 0-.238 1.589c0 2.128 1.254 3.96 3.081 4.849-2.713.826-4.68 3.314-4.68 6.247 0 2.308 1.232 4.34 3.08 5.505-2.237 1.133-3.761 3.409-3.761 6.046 0 3.186 2.237 5.855 5.264 6.596a5.316 5.316 0 0 0 .984 5.675c-2.195 1.154-3.687 3.43-3.687 6.035 0 3.79 3.135 6.86 7.005 6.86a7.016 7.016 0 0 0 6.031-3.388 5.588 5.588 0 0 0 6.485-.508c.995 2.679 3.611 4.595 6.692 4.595a7.14 7.14 0 0 0 6.334-3.79 6.422 6.422 0 0 0 3.513 1.048 6.334 6.334 0 0 0 5.426-3.028c1.092 2.901 3.924 4.965 7.264 4.965a7.794 7.794 0 0 0 6.053-2.858 6.495 6.495 0 0 0 3.535 1.048 6.411 6.411 0 0 0 4.799-2.149 6.08 6.08 0 0 0 5.112 2.763 6.09 6.09 0 0 0 4.648-2.128 7.234 7.234 0 0 0 5.956 3.081c3.978 0 7.21-3.155 7.21-7.062 0-3.187-2.162-5.887-5.124-6.755l-.01.011ZM5.986 75.789c.227-.286.8-.254 1.416.031.53-.423 1.07-.592 1.362-.36.291.234.259.784-.033 1.388.433.518.605 1.048.368 1.334-.227.285-.8.254-1.416-.032-.53.423-1.07.593-1.362.36-.292-.223-.26-.784.032-1.387-.432-.519-.605-1.048-.367-1.334Zm2.853 32.546c.12.657 0 1.207-.346 1.345-.346.137-.821-.159-1.221-.699-.67.116-1.232 0-1.373-.339-.14-.339.162-.805.714-1.196-.12-.657 0-1.207.345-1.345.346-.138.822.159 1.222.699.67-.117 1.232 0 1.373.339.14.339-.163.804-.714 1.196Zm36.47-5.781a.94.94 0 0 1 .811 1.048c-.065.509-.551.858-1.07.794a.934.934 0 0 1-.81-1.048.955.955 0 0 1 1.07-.794ZM17.497 83.232c3.47 0 6.291 2.753 6.291 6.162 0 3.41-2.81 6.162-6.29 6.162-3.481 0-6.292-2.753-6.292-6.162 0-3.41 2.81-6.162 6.291-6.162Zm-.151 18.031a.954.954 0 0 1-1.07.794.936.936 0 0 1-.81-1.049c.064-.508.55-.857 1.07-.794.518.064.875.54.81 1.049Zm9.707 15.648c-1.546 3.78-5.935 5.622-9.804 4.108-3.86-1.514-5.74-5.813-4.194-9.603 1.546-3.79 5.934-5.622 9.804-4.108 3.859 1.514 5.74 5.813 4.194 9.603Zm5.177 9.592c-.097.72-.778 1.218-1.513 1.123a1.32 1.32 0 0 1-1.146-1.483c.098-.719.778-1.217 1.513-1.122a1.32 1.32 0 0 1 1.146 1.482Zm-3.718-23.388c-1.19-2.795.162-6.003 3.005-7.167 2.854-1.165 6.129.158 7.318 2.943 1.189 2.795-.163 6.003-3.005 7.168-2.854 1.164-6.13-.159-7.318-2.944Zm16.624 18.899c-2.453 2.404-6.442 2.404-8.896 0a6.077 6.077 0 0 1 0-8.713c2.454-2.404 6.443-2.404 8.896 0a6.077 6.077 0 0 1 0 8.713Zm3.243-27.136c-.28.244-.832.106-1.383-.286-.606.318-1.168.382-1.416.106-.249-.275-.108-.815.291-1.355-.324-.593-.389-1.143-.108-1.387.281-.243.833-.106 1.384.286.605-.318 1.167-.381 1.416-.106.248.275.108.815-.292 1.355.324.593.39 1.144.108 1.387Zm9.404 27.93c.119.657 0 1.207-.346 1.345-.346.138-.821-.159-1.221-.699-.67.117-1.232 0-1.373-.339-.14-.338.162-.804.713-1.196-.118-.656 0-1.207.346-1.345.346-.137.822.159 1.222.699.67-.116 1.232 0 1.372.339.141.339-.162.805-.713 1.196Zm-1.351-8.364c-3.47 0-6.291-2.753-6.291-6.162s2.81-6.162 6.291-6.162c3.48 0 6.29 2.753 6.29 6.162s-2.81 6.162-6.29 6.162Zm11.544-1.016c-.097.72-.778 1.217-1.513 1.122a1.32 1.32 0 0 1-1.146-1.482c.097-.72.778-1.218 1.513-1.123a1.32 1.32 0 0 1 1.146 1.483Zm17.057 13.668c-.076.562-.605.943-1.167.869a1.019 1.019 0 0 1-.887-1.144c.076-.561.606-.942 1.168-.868.573.074.962.593.886 1.143Z"></path>
  </symbol>
  <symbol xmlns="http://www.w3.org/2000/svg" fill="none" viewBox="0 0 135 133" id="icon-unique-2">
    <path fill="#F37600" d="M88.289 37.748c.614-.656.064-1.535-.808-1.28a227.696 227.696 0 0 1-16.82 4.16c-.733.15-1.304-.507-1.013-1.164a167.505 167.505 0 0 1 7.829-15.26c.323-.572-.054-1.175-.722-1.144-1.83.096-3.672.17-5.513.212-.463.01-.83-.317-.83-.752-.021-4.5.216-8.959.7-13.364.087-.762-.893-1.08-1.507-.487a271.848 271.848 0 0 0-5.578 5.517c-.324.329-.84.413-1.196.18-.398-.254-.797-.519-1.195-.783-.485-.318-1.195-.075-1.422.497a129 129 0 0 0-1.96 5.401c-.215.646-1.044.89-1.518.445-.215-.201-.441-.402-.657-.604-.474-.444-1.303-.222-1.529.434a153.067 153.067 0 0 0-2.681 8.854c-.27 1.006-1.734.91-1.831-.128-.377-4.14-.55-8.27-.528-12.39a.89.89 0 0 0-.495-.804c-.776-.371-1.54-.752-2.316-1.134a.906.906 0 0 1-.484-.847c.108-2.086.27-4.15.474-6.227.086-.9-1.002-1.334-1.594-.614a190.001 190.001 0 0 0-5.417 6.905c-.517.688-1.55.392-1.626-.477a130.244 130.244 0 0 1-.495-7.391c-.032-.72-.765-1.134-1.357-.752-.69.434-1.368.879-2.046 1.323a.849.849 0 0 1-1.13-.158 118.424 118.424 0 0 1-3.813-4.713c-.495-.635-1.443-.339-1.594.519-.377 2.15-.7 4.31-.98 6.47-.064.477-.409.848-.84.89l-2.358.222c-.69.064-1.066.932-.7 1.6 1.249 2.266 2.563 4.479 3.93 6.65.485.762-.086 1.768-.904 1.599-2.8-.583-5.6-1.24-8.4-1.96-.894-.232-1.464.996-.818 1.78a141.438 141.438 0 0 0 4.49 5.2c.27.296.367.72.27 1.1-.248.943-.496 1.896-.733 2.85-.097.38.011.794.28 1.09a140 140 0 0 0 9.822 9.68c.85.751.183 2.128-.84 1.715a154.814 154.814 0 0 1-9.154-4.035c-.678-.328-1.357.222-1.25 1.027.055.36.098.72.152 1.09.118.795-.55 1.356-1.239 1.039a163.508 163.508 0 0 1-5.793-2.891c-.614-.318-1.25.095-1.26.847 0 .614-.011 1.228-.022 1.843 0 .55-.355.963-.84.963-2.692 0-5.395-.053-8.098-.148-.883-.032-1.163 1.27-.42 2.001A158.768 158.768 0 0 0 15.394 54.09c.453.349.647.974.464 1.45a213.022 213.022 0 0 0-2.176 5.687c-.258.699.323 1.599 1.066 1.673 6.45.7 12.89 1.09 19.287 1.197.797.01 1.411.91 1.088 1.588a219.94 219.94 0 0 0-6.849 16.287c-.334.88.84 1.949 1.68 1.536 3.63-1.78 7.226-3.59 10.801-5.433.442-.222 1.055-.053 1.422.403.247.296.495.603.743.9.495.604 1.4.656 1.733.095 1.497-2.499 3.026-4.966 4.599-7.423.366-.562 1.281-.498 1.733.127.69.942 1.379 1.874 2.09 2.796.56.72 1.669.614 1.83-.17 1.002-4.787 2.208-9.499 3.597-14.127v-.01c3.263 3.389 6.785 6.544 10.866 9.361 1.346.794 2.498-.656 1.572-1.228a76.566 76.566 0 0 1-11.447-8.748 202.403 202.403 0 0 0 14.936-1.948c.819-.138 1.066-1.09.42-1.567-.829-.614-1.637-1.24-2.455-1.875-.538-.423-.42-1.207.215-1.482a374.887 374.887 0 0 0 8.152-3.685c.603-.286.743-1.007.28-1.409-.226-.201-.463-.402-.689-.604-.344-.296-.355-.804-.032-1.164 2.617-2.88 5.266-5.74 7.947-8.557l.022-.01ZM25.485 25.92c-.55-.498.075-1.515.69-.985a137.856 137.856 0 0 0 14.31 10.695c-4.759-8.8-8.388-17.992-11.005-27.66-.204-.741.85-1.154 1.077-.392 2.8 9.468 6.59 18.606 11.329 27.258 0-5.877.366-11.701 1.087-17.43.097-.742 1.196-.636 1.131.105a138.592 138.592 0 0 0-.355 20.63c2.767 4.754 5.793 9.34 8.96 13.85.441.626-.474 1.23-.948.657-3.554-4.278-6.634-8.885-9.412-13.671A139.088 139.088 0 0 1 25.463 25.92h.022Zm27.04 35.084c-2.336 2.584-4.953 4.903-7.484 7.296-2.53 2.393-5.115 4.755-7.667 7.127-.528.498-1.508-.466-1.002-.985 2.456-2.478 4.922-4.935 7.452-7.339 2.52-2.382 5.04-4.871 7.797-7 .528-.413 1.357.382.894.89l.01.01Zm4.297-3.866c-.043.424-.43.71-.883.657a171.752 171.752 0 0 1-19.48-3.59 470.646 470.646 0 0 1-14.14 4.755c-.69.222-1.27-1.027-.55-1.271a520.386 520.386 0 0 0 11.803-4.215 170.39 170.39 0 0 1-21.688-7.285c-.69-.286-.55-1.61.248-1.282a167.944 167.944 0 0 0 21.15 6.99 146.659 146.659 0 0 1-8.13-7.763c-.55-.572.15-1.504.764-.9a143.194 143.194 0 0 0 10.607 9.467A170.478 170.478 0 0 0 55.25 56.09a144.432 144.432 0 0 1 3.285-17.378 123.002 123.002 0 0 1-2.37-12.03c-.097-.699 1.013-.91 1.131-.222.55 3.113 1.217 6.227 2.014 9.319a146.215 146.215 0 0 1 6.537-18.66c.269-.635 1.313-.37 1.044.297a143.631 143.631 0 0 0-6.375 19.125 518.07 518.07 0 0 1 9.229-8.228c.527-.455 1.292.233.743.741a449.095 449.095 0 0 0-10.607 10.06 141.756 141.756 0 0 0-3.059 18.014v.01Zm21.98-13.66c-2.93 1.959-5.87 3.886-8.831 5.782-2.961 1.906-5.923 3.833-9.078 5.443-.614.307-1.25-.562-.679-.975 2.876-2.054 5.923-3.812 8.939-5.633 3.015-1.822 6.03-3.643 9.045-5.475.614-.37 1.217.455.604.858ZM76.406 122.974c4.448.074 8.97-2.192 12.061-5.348 1.142-1.091 2.068-2.372 2.994-3.643.55-.73 1.712.053 1.206.816-2.552 4.288-6.375 7.953-11.21 9.658-1.335.37-6.31 2.234-6.472-.223-.022-.762.668-1.355 1.421-1.271v.011Z"></path>
    <path fill="#F37600" d="M91.743 116.017v.01c1.045 3.4 1.95 6.852 2.703 10.368.119.572.948.646 1.346.116a103.93 103.93 0 0 0 1.53-2.065c.333-.455 1-.508 1.27-.095a220.123 220.123 0 0 1 3.403 5.432c.248.403.905.371 1.271-.074.183-.222.366-.444.538-.667.27-.328.722-.466 1.045-.296a423.385 423.385 0 0 0 7.958 3.95c.614.296 1.475-.488 1.228-1.133a158.701 158.701 0 0 0-5.105-11.946c-.237-.497.216-1.154.797-1.175a156.16 156.16 0 0 0 14.172-.953c.549-.064.969-.731.775-1.239a140.204 140.204 0 0 0-1.626-4.173c-.14-.349 0-.804.334-1.069a114.336 114.336 0 0 0 9.864-8.684c.55-.54.334-1.493-.312-1.472-1.981.074-3.974.127-5.955.138-.356 0-.614-.297-.625-.699 0-.456-.011-.9-.021-1.356-.011-.55-.485-.857-.937-.614-1.4.742-2.822 1.462-4.243 2.15-.506.243-.991-.17-.915-.763.032-.264.075-.529.107-.804.076-.593-.42-.996-.915-.752a121.578 121.578 0 0 1-6.709 3.007c-.754.307-1.249-.699-.625-1.26a100.65 100.65 0 0 0 7.172-7.148.904.904 0 0 0 .205-.805c-.183-.699-.366-1.398-.549-2.086a.896.896 0 0 1 .194-.815c1.12-1.25 2.218-2.531 3.284-3.844.474-.583.043-1.483-.614-1.303-2.046.54-4.103 1.027-6.16 1.472-.603.127-1.023-.614-.667-1.176a96.25 96.25 0 0 0 2.864-4.903c.27-.487-.021-1.133-.517-1.175l-1.733-.159c-.313-.032-.571-.296-.614-.646a119.022 119.022 0 0 0-.743-4.755c-.108-.624-.819-.847-1.174-.37a81.529 81.529 0 0 1-2.789 3.473.637.637 0 0 1-.829.127c-.507-.317-1.013-.646-1.508-.963-.442-.276-.98.031-1.002.56-.064 1.812-.172 3.633-.333 5.433a.658.658 0 0 1-1.196.35 154.921 154.921 0 0 0-4.016-5.052c-.442-.529-1.239-.2-1.174.456.161 1.514.28 3.04.377 4.575a.662.662 0 0 1-.345.624c-.56.286-1.13.572-1.69.848a.65.65 0 0 0-.367.593 95.446 95.446 0 0 1-.334 9.107c-.064.762-1.141.836-1.346.106a110.893 110.893 0 0 0-2.003-6.502c-.161-.477-.775-.646-1.12-.308-.161.149-.323.297-.474.445-.355.328-.958.148-1.12-.317a96.62 96.62 0 0 0-1.464-3.961c-.162-.424-.69-.593-1.045-.36-.29.19-.581.392-.872.582-.258.17-.635.117-.883-.127a162.696 162.696 0 0 0-4.124-4.024c-.453-.434-1.174-.19-1.11.37.377 3.23.571 6.513.571 9.817 0 .318-.258.562-.603.551a128.016 128.016 0 0 1-4.049-.138c-.485-.02-.765.424-.528.837 2.111 3.611 4.06 7.339 5.816 11.183.215.476-.205.964-.744.858a171.19 171.19 0 0 1-12.384-2.997c-.646-.18-1.044.466-.592.942a403.067 403.067 0 0 1 5.88 6.259.597.597 0 0 1-.022.858c-.161.148-.334.296-.506.444-.334.297-.237.826.205 1.038 1.981.921 3.984 1.811 5.998 2.679.463.202.55.784.162 1.091-.593.466-1.196.932-1.799 1.387-.474.35-.28 1.049.323 1.155 3.619.582 7.29 1.048 10.984 1.376m12.514-15.545c-2.025 3.526-4.265 6.925-6.86 10.081-.345.424-1.023-.021-.7-.477 2.315-3.325 4.512-6.703 6.526-10.208a101.56 101.56 0 0 0-.345-15.165c-.053-.54.765-.624.83-.084.549 4.214.85 8.493.872 12.803a102.112 102.112 0 0 0 8.216-20.078c.162-.562.937-.265.797.285a93.933 93.933 0 0 1-7.969 20.365 99.82 99.82 0 0 0 10.478-7.922c.453-.391.916.36.517.72a102.147 102.147 0 0 1-12.351 9.669l-.011.011Zm-6.72 15.567c2.035 1.546 3.898 3.367 5.761 5.114a238.437 238.437 0 0 1 5.514 5.369c.377.371-.334 1.091-.732.731-1.885-1.737-3.791-3.452-5.665-5.21s-3.801-3.452-5.535-5.337c-.345-.371.259-.953.657-.657v-.01Zm-6.149-15.387a339.38 339.38 0 0 0-7.84-7.36c-.409-.37.151-.88.539-.551a361.883 361.883 0 0 1 6.816 6.015 105.64 105.64 0 0 0-4.76-14.031c-.204-.488.56-.689.765-.223a105.942 105.942 0 0 1 4.878 13.682 90.146 90.146 0 0 0 1.444-6.851c.086-.509.904-.35.829.158a90.91 90.91 0 0 1-1.691 8.853 106.16 106.16 0 0 1 2.488 12.761c4.587-.593 9.175-1.44 13.751-2.563a106.566 106.566 0 0 0 7.754-6.999c.452-.445.969.233.56.656a111.612 111.612 0 0 1-5.944 5.74 125.784 125.784 0 0 0 15.507-5.221c.581-.243.689.731.183.943a125.799 125.799 0 0 1-15.906 5.443 371.288 371.288 0 0 0 8.691 3.05c.527.18.107 1.09-.399.931a321.818 321.818 0 0 1-10.413-3.441 127.778 127.778 0 0 1-14.301 2.711c-.323.042-.614-.17-.646-.477-.496-4.5-1.282-8.916-2.326-13.226h.021Zm-13.44 2.636c2.219 1.335 4.448 2.658 6.666 3.993 2.219 1.334 4.48 2.605 6.59 4.109.42.296-.042.942-.494.72-2.327-1.165-4.513-2.574-6.699-3.961a374.51 374.51 0 0 1-6.515-4.215c-.452-.296 0-.9.442-.635l.01-.011ZM34.411 114.895a184.358 184.358 0 0 0 2.477 4.511c.194.35-.14.667-.485.466a99.517 99.517 0 0 0-6.762-3.569c-.291-.137-.614.085-.56.392a76.492 76.492 0 0 0 1.68 7.381c.075.276-.151.498-.431.413-.776-.233-1.55-.466-2.337-.677-.194-.053-.388.042-.442.233a49.594 49.594 0 0 0-1.163 5.813c-.043.339-.495.371-.7.053a103.208 103.208 0 0 1-1.787-2.954c-.108-.18-.313-.265-.496-.201-.204.063-.398.137-.603.211-.237.085-.517-.095-.549-.36a64.714 64.714 0 0 1-.247-2.531c-.022-.296-.345-.487-.604-.349a8.467 8.467 0 0 0-.344.191.417.417 0 0 1-.603-.35 64.175 64.175 0 0 1-.183-4.088c0-.455-.646-.571-.797-.137a57.73 57.73 0 0 0-1.583 5.263.389.389 0 0 1-.302.296c-.377.075-.743.159-1.12.244a.402.402 0 0 0-.301.318c-.183.9-.345 1.81-.485 2.721-.064.403-.581.466-.754.096a96.093 96.093 0 0 1-1.572-3.537c-.14-.35-.625-.329-.754.031a62.712 62.712 0 0 0-1.023 3.124c-.097.307-.452.403-.667.18-.248-.264-.496-.519-.733-.783a.372.372 0 0 0-.506-.053 60.464 60.464 0 0 0-2.154 1.62c-.28.222-.657 0-.624-.392.075-.964.172-1.927.29-2.88.022-.212-.086-.403-.258-.466-.323-.117-.657-.233-.99-.35-.291-.095-.356-.508-.13-.762a65.04 65.04 0 0 1 2.412-2.436c.291-.275.162-.773-.215-.783a89.744 89.744 0 0 0-3.812-.053c-.41 0-.517-.583-.162-.848a66.53 66.53 0 0 1 2.499-1.757.537.537 0 0 0 .237-.445v-1.303c0-.169.096-.339.236-.434a61.729 61.729 0 0 1 5.277-3.113c.452-.233.313-.901-.172-.826a62.891 62.891 0 0 0-4.372.762c-.323.064-.56-.243-.42-.572.064-.148.118-.296.183-.455.14-.328-.086-.646-.42-.572a63.31 63.31 0 0 0-2.8.625c-.302.074-.528-.18-.452-.498l.193-.794c.065-.233-.043-.455-.258-.498a96.318 96.318 0 0 0-3.49-.794c-.387-.085-.354-.667.044-.9a70.444 70.444 0 0 1 7.075-3.611c.237-.106.388-.35.356-.572a75.035 75.035 0 0 1-.313-2.669c-.032-.328.313-.656.646-.603 2.843.381 5.654.9 8.41 1.535.345.074.7-.243.647-.561a96.418 96.418 0 0 1-1.152-7.71c-.043-.412.57-.74.893-.476a313.613 313.613 0 0 1 4.039 3.473c.161.149.452.138.657-.02.14-.107.28-.202.42-.308.28-.212.667-.127.753.138.367 1.228.754 2.457 1.163 3.674.098.276.496.35.754.128.399-.329.797-.657 1.207-.975.312-.254.786-.085.764.265a71.274 71.274 0 0 0 0 6.439c0 .158.108.296.27.349a94.997 94.997 0 0 1 6.288 2.446c.334.149.334.583 0 .72l-1.26.54a.378.378 0 0 0-.075.657c1.044.805 2.078 1.62 3.09 2.446.227.18.205.509-.032.636-.118.063-.237.127-.355.18-.183.095-.237.307-.14.497l-.01-.042Z"></path>
    <path fill="#F37600" d="M22.498 110.139c3.425-3.939 7.463-7.339 12.201-9.69a.666.666 0 0 1 .883.286.638.638 0 0 1-.312.869c-4.652 2.086-8.777 5.305-12.223 9.001-.301.339-.861-.127-.549-.477v.011ZM107.636 35.153c-1.26.381-2.52.784-3.769 1.197-.291.095-.485-.19-.28-.424a81.813 81.813 0 0 0 3.64-4.469c.151-.2.021-.466-.216-.466a59.048 59.048 0 0 0-5.826.223c-.226.02-.355-.18-.258-.37.291-.541.56-1.081.84-1.621.065-.138.022-.297-.118-.35a39.214 39.214 0 0 0-4.254-1.652c-.248-.084-.216-.413.054-.518.818-.318 1.658-.615 2.487-.911.151-.053.248-.19.226-.34-.021-.158-.053-.306-.075-.465-.032-.19.14-.37.355-.36.647.042 1.303.095 1.95.17.226.02.42-.191.344-.393l-.097-.285c-.075-.202.119-.424.345-.403a45.25 45.25 0 0 1 3.123.434c.344.064.527-.391.215-.572a48.061 48.061 0 0 0-3.78-1.884c-.107-.053-.183-.149-.183-.265 0-.286-.021-.572-.032-.847 0-.117-.086-.223-.194-.265a55.384 55.384 0 0 0-2.003-.73c-.29-.096-.27-.488.032-.562a67.633 67.633 0 0 1 2.897-.667c.28-.064.334-.413.076-.55a44.791 44.791 0 0 0-2.23-1.176c-.226-.106-.247-.392-.043-.52.237-.148.463-.285.7-.433a.271.271 0 0 0 .108-.36 41.027 41.027 0 0 0-.926-1.8c-.129-.234.097-.477.388-.403.721.19 1.432.392 2.143.603.161.053.323 0 .387-.127.13-.222.27-.455.399-.677.118-.202.441-.191.592.01a46.759 46.759 0 0 1 1.518 2.107c.173.255.56.223.625-.052.205-.922.398-1.854.56-2.796.054-.297.517-.297.668 0 .344.688.678 1.377.99 2.075a.423.423 0 0 0 .302.233c.334.053.657.117.991.18a.421.421 0 0 1 .301.233 46.31 46.31 0 0 1 1.637 4.3c.119.36.635.35.657-.01a48.16 48.16 0 0 0 .021-3.315c0-.244.259-.37.496-.233.108.063.215.127.312.201.226.148.496.021.496-.222-.011-.71-.044-1.43-.087-2.14-.01-.232.205-.36.442-.264.194.084.388.17.571.254.172.074.344.032.42-.117.377-.815.732-1.63 1.087-2.457.119-.264.56-.169.679.16a52.51 52.51 0 0 1 1.766 5.686c.043.18.215.328.387.339.69.032 1.379.085 2.068.138.248.02.452.317.377.55a70.019 70.019 0 0 1-2.315 5.962c-.108.244.086.551.344.551 1.993 0 4.006.064 6.009.212.323.021.485.53.237.72a180.994 180.994 0 0 1-3.198 2.489c-.129.095-.162.307-.075.487.064.116.118.233.172.35.118.232 0 .507-.216.529-.98.105-1.97.211-2.939.349-.227.032-.334.318-.205.54l.581 1.017c.151.264-.043.593-.312.53a55.728 55.728 0 0 0-4.889-.89.298.298 0 0 0-.301.148 67.807 67.807 0 0 1-2.725 4.278c-.161.223-.485.17-.549-.095-.076-.328-.151-.667-.237-.995-.054-.223-.312-.297-.495-.149-.754.657-1.519 1.303-2.283 1.938-.173.138-.42.085-.474-.116a2.596 2.596 0 0 1-.086-.286c-.043-.148-.205-.223-.356-.17l.011-.02Z"></path>
    <path fill="#F37600" d="M114.971 29.573c3.252 2.488 3.306 7.455 1.012 10.6-2.348 3.389-6.935 4.035-10.736 3.283-.991-.17-.679-1.642.301-1.409 3.381.752 7.366.403 9.552-2.52 2.111-2.637 2.197-7.148-.56-9.383-.388-.264.054-.868.431-.582v.01Z"></path>
    <path fill="#F37600" d="M56.27 121.163c-4.49-.879-6.385-6.354-4.64-10.187 1.625-3.781 5.771-5.74 9.551-5.443 7.646.497 12.783 8.736 10.855 15.747-2.681 10.992-18.34 12.57-25.877 5.485-13.43-12.909-1.056-33.856 10.66-43.524 10.145-8.535 22.41-13.915 34.407-19.252 13.752-6.428 31.488-12.994 38.973-26.782 7.538-14.836-.948-33.601-18.781-34.279-6.354-.487-12.794 1.472-17.263 6.005-9.929 9.986-7.172 24.875 5.18 31.42a.72.72 0 0 1 .28.984c-.194.35-.646.466-1.001.276-2.919-1.62-5.611-3.739-7.732-6.344-11.89-15.185 1.981-35.952 20.643-34.152 24.004 1.07 30.853 29.916 14.689 45.134-22.765 21.984-64 24.06-79.743 53.468-2.778 5.591-4.932 11.881-3.532 17.896 1.26 6.005 6.483 10.982 12.75 11.607 5.977.847 12.987-2.213 14.204-8.408.646-2.86-.022-5.973-1.712-8.303-3.177-4.723-10.995-5.983-13.504-.307-.84 1.906.064 5.136 2.283 5.443 2.466.424 1.766 4.014-.679 3.537l-.01-.021Z"></path>
    <path fill="#F37600" d="M57.193 121.311c2.29 0 4.146-1.825 4.146-4.077 0-2.251-1.856-4.077-4.146-4.077s-4.146 1.826-4.146 4.077c0 2.252 1.856 4.077 4.146 4.077ZM84.433 66.965c10.812-4.363 23.304-7.19 34.719-3.378 5.384 1.652 12.837 7.593 8.744 13.608-.775 1.048-1.82 1.8-2.907 2.404a.747.747 0 0 1-1.002-.276.72.72 0 0 1 .302-.995c1.787-.996 3.317-2.669 3.177-4.755-.14-1.97-1.454-3.823-3.134-5.157-7.226-5.507-17.338-5.126-25.9-3.347-4.447.964-8.776 2.436-12.954 4.257-1.583.668-2.65-1.673-1.034-2.372l-.01.01ZM39.773 88.028c-3.339-.095-5.934 2.934-4.319 5.825 1.626 2.647 5.568 2.89 8.325 1.8 1.992-.773 3.682-2.213 4.953-3.971.894-1.24 2.822.106 1.928 1.345-2.994 4.15-8.852 6.756-13.87 4.468-4.265-1.662-5.019-7.751-.862-9.996.85-.53 4.523-1.705 4.566-.18 0 .391-.323.71-.721.72v-.01Z"></path>
    <path fill="#F37600" d="M91.099 59.268c-2.865-1.96-4.071-6.217-1.96-9.16 4.092-6.376 14.882-4.554 16.142 3.092.603 3.547-1.68 6.872-4.426 8.853a1.177 1.177 0 0 1-1.626-.212 1.144 1.144 0 0 1 .248-1.63c2.229-1.547 4.103-3.972 3.726-6.725-.819-5.91-9.401-7.413-12.654-2.5-1.712 2.373-.807 5.422 1.476 7.149.732.593-.172 1.694-.926 1.122v.01ZM20.342 77.894l1.281-4.098a.508.508 0 0 0-.56-.646l-1.033.149a.512.512 0 0 1-.571-.371l-.808-3.124c-.118-.466-.775-.519-.969-.064l-2.714 6.481c-.172.413-.754.413-.937.01l-2.304-5.124c-.172-.392-.732-.403-.926-.022l-.873 1.705a.505.505 0 0 1-.721.201l-2.682-1.61c-.42-.253-.926.18-.732.626l1.228 2.848a.502.502 0 0 1-.312.678l-1.842.604a.497.497 0 0 0-.108.9l4.825 2.986a.498.498 0 0 1-.15.91L2.518 82.64a.502.502 0 0 0-.075.953L5.47 84.83c.237.095.366.36.29.614l-.3.985c-.108.35.193.699.57.646l4.308-.646c.398-.064.71.339.549.699l-1.443 3.198c-.216.466.344.91.764.614l3.694-2.637a.805.805 0 0 1 .99.043l.486.413c.28.233.71.116.818-.233l1.13-3.686a.496.496 0 0 1 .41-.35l3.866-.57a.499.499 0 0 0 .355-.763l-.344-.53a.79.79 0 0 1 .107-.974l3.188-3.22c.366-.37 0-.974-.506-.836l-3.425.932a.508.508 0 0 1-.624-.636h-.011ZM64.333 90.231l-.496 2.34a.28.28 0 0 0 .345.329l.57-.138c.14-.032.291.043.335.18l.613 1.695c.097.254.463.243.539-.011l1.173-3.738c.076-.233.399-.265.517-.053l1.551 2.732a.29.29 0 0 0 .517-.032l.398-.995c.065-.149.237-.223.388-.149l1.572.752c.248.117.507-.148.377-.38l-.829-1.515a.284.284 0 0 1 .14-.392l.99-.424a.28.28 0 0 0 .012-.508l-2.833-1.419c-.226-.116-.204-.434.033-.508l3.747-1.292c.259-.085.248-.456 0-.53l-1.744-.54a.277.277 0 0 1-.194-.328l.118-.561a.28.28 0 0 0-.344-.329l-2.359.572c-.215.053-.409-.148-.334-.36l.636-1.842c.097-.276-.237-.488-.452-.297l-1.917 1.652a.444.444 0 0 1-.55.032l-.29-.201a.286.286 0 0 0-.442.17l-.441 2.096a.274.274 0 0 1-.216.212l-2.121.508a.283.283 0 0 0-.162.445l.216.275a.439.439 0 0 1 0 .54l-1.605 1.949c-.183.222.054.54.323.434l1.853-.689c.215-.074.43.106.376.318h-.01ZM130.683 54.12l-1.217-1.95a.274.274 0 0 0-.463 0l-.301.467a.277.277 0 0 1-.356.095l-1.551-.783c-.236-.117-.484.127-.366.36l1.68 3.357c.108.211-.097.444-.323.37l-2.897-.9c-.215-.064-.42.148-.333.35l.387.942a.277.277 0 0 1-.172.36l-1.605.487a.265.265 0 0 0 0 .508l1.594.52a.265.265 0 0 1 .162.36l-.41.942a.268.268 0 0 0 .324.36l2.918-.837c.226-.063.431.17.323.382l-1.745 3.314c-.118.233.13.477.367.36l1.572-.752a.275.275 0 0 1 .355.096l.291.466c.108.17.355.17.463 0l1.26-1.917a.272.272 0 0 1 .474.032l.786 1.694c.118.244.495.19.517-.085l.237-2.382a.419.419 0 0 1 .366-.371l.334-.042c.194-.032.301-.244.194-.403l-1.099-1.747a.273.273 0 0 1 0-.286l1.131-1.726c.108-.159 0-.381-.183-.413l-.334-.053a.418.418 0 0 1-.355-.381l-.183-2.383c-.022-.275-.399-.339-.517-.095l-.83 1.673a.271.271 0 0 1-.473.021l-.022-.01ZM54.568 2.823l-2.003.53a.232.232 0 0 0-.119.38l.323.371a.238.238 0 0 1 0 .318l-1.076 1.112c-.162.17-.011.434.215.402l3.338-.56c.216-.033.366.19.237.37l-1.518 2.203c-.119.169.021.391.226.37l.915-.085c.14-.01.259.096.27.233l.021 1.472c0 .233.302.329.442.138l.85-1.207a.24.24 0 0 1 .356-.043l.71.583c.162.127.399.021.399-.18V6.572c0-.212.269-.318.42-.17l2.444 2.309c.173.159.442.01.41-.212l-.259-1.514a.234.234 0 0 1 .172-.265l.485-.127a.232.232 0 0 0 .118-.381l-1.356-1.546c-.13-.138-.044-.36.15-.392l1.67-.233c.247-.032.29-.37.053-.455l-2.013-.795a.383.383 0 0 1-.237-.402l.043-.297a.24.24 0 0 0-.302-.264l-1.798.476a.247.247 0 0 1-.248-.074L56.7.843c-.118-.127-.323-.106-.398.053l-.13.264a.366.366 0 0 1-.42.202L53.631.917c-.237-.053-.398.243-.215.413l1.249 1.122c.14.128.086.36-.097.403v-.032ZM123.282 125.474l-.743 2.51a.31.31 0 0 0 .345.391l.635-.106a.324.324 0 0 1 .356.223l.517 1.906c.075.286.484.307.592.032l1.604-3.982c.097-.254.463-.265.571-.011l1.454 3.114c.108.233.452.243.56 0l.517-1.049a.313.313 0 0 1 .441-.127l1.659.964c.258.148.57-.116.441-.392l-.775-1.726c-.076-.159.011-.349.183-.413l1.12-.381a.308.308 0 0 0 .065-.551l-2.973-1.79c-.237-.137-.183-.487.086-.561l4.211-1.101c.291-.074.312-.477.032-.583l-1.863-.73a.31.31 0 0 1-.183-.371l.183-.604c.065-.211-.129-.423-.355-.391l-2.628.434a.305.305 0 0 1-.333-.424l.85-1.959c.13-.286-.215-.551-.474-.371l-2.239 1.642a.478.478 0 0 1-.603-.021l-.302-.244c-.172-.137-.442-.063-.495.148l-.668 2.256a.31.31 0 0 1-.248.222l-2.358.382a.304.304 0 0 0-.215.466l.215.317a.472.472 0 0 1-.054.593l-1.917 1.991c-.215.223 0 .593.312.509l2.079-.604a.312.312 0 0 1 .388.381l.01.011ZM14.183 6.847l.528-2.976a.358.358 0 0 0-.452-.402l-.711.201a.352.352 0 0 1-.43-.212l-.84-2.117c-.13-.318-.593-.297-.69.031l-1.324 4.776c-.087.297-.496.36-.657.085l-2.079-3.4c-.161-.253-.549-.222-.646.064L6.42 4.168a.362.362 0 0 1-.485.201L3.91 3.48c-.323-.137-.635.202-.463.498l1.109 1.885a.348.348 0 0 1-.161.498l-1.239.583c-.28.127-.27.518 0 .646l3.65 1.683c.291.138.27.54-.02.657l-4.696 1.79a.357.357 0 0 0 .032.677l2.23.604c.183.053.29.222.258.402l-.13.72a.358.358 0 0 0 .453.403l2.961-.826c.27-.074.528.18.442.445l-.722 2.361c-.107.35.323.614.593.36l2.358-2.16a.56.56 0 0 1 .7-.053l.377.243a.369.369 0 0 0 .56-.232l.474-2.68a.372.372 0 0 1 .258-.286l2.66-.73a.36.36 0 0 0 .183-.572l-.29-.34a.55.55 0 0 1-.011-.687l1.949-2.531c.226-.286-.086-.678-.43-.54l-2.316.953a.365.365 0 0 1-.496-.392v-.01ZM91.066 74.622c.043.36.42.635.786.55a3.765 3.765 0 0 0 1.335-.593c.205.678.873 2.13 1.745 1.98.872-.147 1.034-1.715 1.001-2.435.485.138.98.19 1.454.138.366-.043.646-.413.56-.773-.377-1.663-2.261-3.124-4.017-2.838-1.755.286-3.058 2.276-2.864 3.96v.01ZM12.173 25.75c-.14-.34-.581-.488-.915-.318-.42.233-.797.55-1.11.932-.387-.593-1.442-1.8-2.24-1.43-.796.37-.506 1.938-.269 2.616-.506 0-.99.084-1.432.264-.344.138-.495.572-.323.9.83 1.494 3.058 2.383 4.663 1.632 1.605-.752 2.294-3.03 1.626-4.596ZM85.12 62.538c-.237-.391-.807-.508-1.184-.233-.485.35-.894.816-1.217 1.345-.582-.678-2.1-1.99-3.026-1.398-.926.593-.29 2.489.118 3.283a4.58 4.58 0 0 0-1.733.572.81.81 0 0 0-.237 1.165c1.292 1.705 4.21 2.436 6.063 1.239 1.906-1.24 2.315-4.13 1.227-5.962l-.01-.01ZM77.14 9.208c.226.37.765.466 1.12.212.453-.339.83-.773 1.12-1.281.56.624 1.992 1.853 2.865 1.27.872-.582.247-2.34-.151-3.081a4.56 4.56 0 0 0 1.626-.561c.377-.223.474-.752.215-1.102-1.238-1.588-3.984-2.245-5.707-1.09-1.723 1.154-2.122 3.907-1.077 5.623l-.01.01ZM125.825 40.83c-.204-.297-.667-.35-.947-.117a3.536 3.536 0 0 0-.873 1.133c-.495-.497-1.776-1.44-2.466-.91-.689.53-.075 1.97.302 2.573a3.58 3.58 0 0 0-1.325.55c-.301.202-.355.657-.118.933 1.12 1.26 3.457 1.652 4.835.593 1.422-1.091 1.551-3.39.582-4.766l.01.01ZM50.992 98.12a.784.784 0 0 0 1.11-.18c.3-.466.506-.996.602-1.557.733.403 2.488 1.049 3.091.233.603-.815-.57-2.245-1.195-2.806a4.113 4.113 0 0 0 1.313-1.06c.27-.328.184-.857-.183-1.09-1.69-1.059-4.458-.752-5.664.89-1.238 1.694-.625 4.33.937 5.57h-.01ZM127.197 86.154a.786.786 0 0 0-.172 1.144c.377.445.84.815 1.389 1.09-.635.593-1.852 2.108-1.217 2.955.636.847 2.466.148 3.231-.275.108.593.334 1.143.657 1.62.248.37.808.455 1.163.17 1.615-1.324 2.186-4.141.905-5.836-1.325-1.758-4.19-1.99-5.945-.857l-.011-.01Z"></path>
  </symbol>
  <symbol xmlns="http://www.w3.org/2000/svg" fill="none" viewBox="0 0 135 133" id="icon-unique-3">
    <g clip-path="url(#a)">
      <path fill="#5BC94E" d="M64.047 52.082a92.113 92.113 0 0 1 15.934 25.844c.428 1.048-1.005 1.68-1.562.706-6.057-10.466-12.938-19.648-19.67-27.064-.588-.653-1.572-.064-1.22.706C61.5 63.072 73.797 77.391 89.57 112.845c.235.577 1.06.47 1.113-.161 1.99-35.411-16.256-54.91-25.405-61.865-.953-.728-1.99.385-1.22 1.263h-.011ZM98.794 51.632c-1.883-.16-2.9.93-1.776 1.905 6.41 5.532 17.775 14.372 34.18 33.12.578.728 1.509.46 1.498-.224-.363-20.386-21.253-33.731-33.902-34.801ZM124.51 2.673c-6.196-.985-15.774-.47-23.061 3.703-.675.385-.429 1.402.353 1.434 12.371.513 19.755-2.151 22.922-3.692.674-.332.525-1.327-.214-1.445ZM131.755 41.99c-3.831 3.863-6.966 10.916-6.774 16.48.032.9 1.124 1.37 1.809.782 7.18-6.143 7.287-13.27 6.838-16.62-.118-.899-1.231-1.295-1.873-.642ZM119.332 20.395c-3.521 2.022-12.103 8.796-13.762 27.524-.064.685.77 1.102 1.273.631 7.877-7.437 12.328-22.44 13.613-27.32.171-.654-.535-1.167-1.124-.835ZM103.309 71.483c2.836 6.796 4.998 15.175 4.987 24.881 0 .953-1.573 1.06-1.723.14-1.648-9.964-4.559-19.146-7.983-26.872-.3-.674-1.434-.482-1.402.225-.407 9.663 5.575 24.399 6.753 56.878 0 .524.802.663 1.091.171 15.282-27.599 5.747-48.07-.107-56.097-.61-.835-1.99-.235-1.605.674h-.011Z"></path>
      <path fill="#5BC94E" d="M53.229 28.913c9.096 3.135 18.588 8.668 25.844 18 .706.92-.524 1.872-1.327 1.07-8.818-8.668-19.712-14.404-30.403-17.626-.93-.278-1.712.503-.974.963 8.251 7.288 31.163 13.153 46.862 50.736.214.632.91.375.942-.364.941-41.275-27.471-52.223-40.216-54.17-1.349-.225-1.937.973-.717 1.39h-.011Z"></path>
      <path fill="#5BC94E" d="M57.133 44.077c-21.328-8.23-44.218-19.584-54.61-41.222l2.141-.674c2.665 15.624 10.798 29.75 18.91 43.212 8.261 13.655 17.593 26.732 24.41 41.244.363.76-.825 1.573-1.328.62C32.96 58.588 8.752 34.51 2.428 2.555c-.224-1.263 1.606-1.862 2.14-.674 2.409 5.126 5.64 9.867 9.472 14.072 11.718 12.778 27.738 20.333 43.63 26.754.856.343.374 1.712-.536 1.36v.01Z"></path>
      <path stroke="#5BC94E" stroke-linecap="round" stroke-linejoin="round" stroke-width="1.466" d="M118.398 102.785c4.966-19.637-7.523-33.581-21.456-42.453"></path>
      <path fill="#5BC94E" d="M43.79 43.285c2.76 7.234 5.832 15.892 9.064 26.037.321.995-1.145 1.552-1.616.61-5.008-10.145-9-20.033-12.071-28.605-.268-.75-1.402-.557-1.391.235.096 10.006 3.991 30.189 27.181 59.286.364.46 1.135.129 1.028-.438-5.736-31.334-14.533-48.895-20.611-57.906-.589-.867-1.959-.193-1.595.781h.01ZM25.917 62.215c-.61-.695-1.851.033-1.434.846 3.125 6.057 6.635 13.313 10.412 21.874.375.834-.963 1.477-1.466.695-5.447-8.368-9.92-16.619-13.43-23.81-.31-.632-1.36-.343-1.295.353.824 8.743 5.95 26.015 29.868 49.13.374.364 1.07 0 .931-.492-7.673-26.84-17.219-41.319-23.586-48.596ZM14.18 16.692c9.995-1.145 20.12 1.445 28.755 6.432 1.241.695 2.397 1.53 3.596 2.28a.727.727 0 0 1 .225 1.005.73.73 0 0 1-1.06.193c-9.021-6.122-20.311-9.503-31.205-8.155-1.188.225-1.53-1.573-.31-1.765v.01ZM14.96 31.31c-.812 7.93.333 16.448 4.645 23.275.493.803-.738 1.584-1.252.77-2.3-3.552-3.81-7.565-4.57-11.717-.77-4.163-.994-8.326-.566-12.564a.877.877 0 0 1 .963-.781.877.877 0 0 1 .77 1.017h.01ZM120.014 31.106c6.624-8.293 11.632-18.181 13.537-28.669l1.701.75c-1.915 2.471-4.601 4.216-7.384 5.34-8.283 3.22-17.325 3.242-25.929 4.612-11.28 1.509-22.944 5.04-30.542 13.944-.589.695-1.755-.204-1.103-.963 3.874-4.517 8.904-7.973 14.351-10.253 5.469-2.29 11.269-3.531 17.048-4.398 9.856-1.862 25.437-1.188 32.04-9.45a.958.958 0 0 1 1.38-.17.955.955 0 0 1 .321.92c-1.048 5.404-2.889 10.637-5.372 15.538-2.472 4.912-5.404 9.525-8.946 13.762-.632.728-1.745-.224-1.102-.963ZM35.111 132.899c-14.34-7.951-23.703-22.741-28.24-38.194l1.712.3c-4.345 7.202-6.186 16.223-4.377 24.506.61 2.772 1.616 5.447 2.932 7.973a.73.73 0 0 1-.31.995.737.737 0 0 1-.985-.299c-1.413-2.612-2.504-5.415-3.178-8.326-1.36-5.822-.963-11.975.749-17.668.877-2.858 1.99-5.587 3.585-8.219.396-.696 1.52-.535 1.69.235 2.066 7.566 5.533 14.929 9.996 21.403 2.247 3.243 4.794 6.293 7.662 9 2.847 2.729 6.046 5.073 9.47 7.01.825.449.15 1.755-.706 1.284Z"></path>
      <path stroke="#5BC94E" stroke-linecap="round" stroke-linejoin="round" stroke-width="1.466" d="M7.787 94.47c4.045 10.477 10.884 12.671 10.884 12.671"></path>
      <path fill="#5BC94E" d="M45.48 16.927C56.492 4.171 75.658.008 91.143 6.525c1.081.46.396 2.13-.706 1.659-14.757-6.335-33.228-2.45-43.844 9.717-.62.717-1.744-.246-1.102-.974h-.01Z"></path>
      <path stroke="#5BC94E" stroke-linecap="round" stroke-linejoin="round" stroke-width="1.466" d="M24.012 11.994s18.02-12.83 39.317-5.94"></path>
      <path fill="#5BC94E" d="M108.587 131.711c4.623-5.212 15.453-19.744 16.598-42.453.032-.727.91-1.07 1.445-.567 10.22 9.76 7.362 36.653-17.133 44.368-.814.257-1.477-.706-.91-1.348ZM123.985 131.454c2.119-1.733 5.586-5.094 7.759-9.867.289-.631 1.187-.684 1.508-.075 2.366 4.452.568 11.462-8.732 11.43-.792 0-1.145-.996-.535-1.499v.011ZM75.797 131.208c2.055-2.258 5.373-6.507 7.31-12.211.267-.77 1.305-.909 1.755-.214 3.092 4.741 1.027 12.639-8.209 14.03-.899.139-1.466-.942-.856-1.605ZM20.504 130.127c-2.27-2.622-6.068-7.63-8.883-14.479-.438-1.059-1.99-1.006-2.333.086-1.862 5.843 1.306 14.714 10.167 16.255 1.038.182 1.734-1.059 1.049-1.851v-.011ZM57.027 130.309c-2.826-3.007-7.93-8.721-11.355-14.115-.642-1.006-2.236-.567-2.236.621-.011 6.495 4.323 14.265 12.531 15.485 1.124.171 1.83-1.167 1.06-1.991ZM90.094 130.577c1.402-2.975 3.607-8.412 4.912-15.507.15-.802 1.188-1.091 1.702-.46 3.178 3.906 3.339 12.264-5.222 17.197-.835.482-1.809-.363-1.402-1.23h.01ZM67.802 128.19c1.53-5.918 4.324-19.509 2.986-36.139-.086-1.06 1.263-1.573 1.926-.727 8.583 10.958 6.85 28.626-3.135 37.915-.781.728-2.044 0-1.777-1.038v-.011ZM41.318 126.221c-3.532-5.832-11.483-19.562-16.405-32.618-.396-1.06-1.959-.941-2.173.172-2.525 13.419 5.308 29.429 16.983 34.287 1.135.471 2.226-.792 1.595-1.841ZM51.279 95.648c.47 9.567 3.317 19.712 8.882 30.039.482.888 1.83.706 2.044-.279 2.611-11.878-3.168-23.318-8.69-30.563-.738-.974-2.29-.407-2.236.813v-.01ZM16.576 92.308c-1.787-5.907-5.447-20.579-5.03-40.89.022-.856-1.027-1.284-1.648-.685-13.023 12.403-6.067 33.902 5.02 42.677.802.632 1.958-.117 1.658-1.091v-.01ZM4.889 46.848c.075-4.002.428-13.034 2.194-20.525.182-.76-.685-1.306-1.327-.846C.79 29.073-2.088 38.105 3.658 47.191c.353.545 1.22.3 1.231-.343ZM40.963 16.734a43.023 43.023 0 0 1 7.298-9.289c.514-.492.118-1.348-.588-1.284-8.123.706-11.975 6.903-8.176 10.744a.914.914 0 0 0 1.455-.181l.011.01ZM58.941 21.55c4.067-2.173 13.548-6.742 26.968-10.092.813-.203.877-1.348.064-1.605-9.118-2.825-22.034.321-28.07 10.627-.396.663.353 1.434 1.038 1.07ZM131.402 24.311c-2.001 4.077-6.956 12.81-15.924 20.504-.557.482-.225 1.402.514 1.413 8.336.064 18.203-10.145 16.951-21.628-.086-.803-1.177-1.017-1.541-.278v-.011ZM86.197 34.167c2.205-3.745 7.138-11.332 13.548-16.426.675-.535.204-1.595-.652-1.488-8.337.985-15.24 6.999-14.49 17.55.053.825 1.166 1.082 1.594.364ZM95.456 44.954c2.728-5.083 9.053-15.356 21.467-28.498.717-.76.096-2.012-.953-1.883-12.221 1.53-23.447 13.366-22.644 29.9.053 1.145 1.594 1.487 2.13.481Z"></path>
      <path stroke="#5BC94E" stroke-linecap="round" stroke-linejoin="round" stroke-width="1.466" d="M122.08 16.382s6.881 1.027 9.685-4.28"></path>
    </g>
    <defs>
      <clipPath id="a">
        <path fill="#fff" d="M0 .76h135v132H0z"></path>
      </clipPath>
    </defs>
  </symbol>
</svg>